<?xml version="1.0" encoding="UTF-8" standalone="no"?>
<!-- Created with Inkscape (http://www.inkscape.org/) -->

<svg
   xmlns:dc="http://purl.org/dc/elements/1.1/"
   xmlns:cc="http://creativecommons.org/ns#"
   xmlns:rdf="http://www.w3.org/1999/02/22-rdf-syntax-ns#"
   xmlns:svg="http://www.w3.org/2000/svg"
   xmlns="http://www.w3.org/2000/svg"
   xmlns:xlink="http://www.w3.org/1999/xlink"
   xmlns:sodipodi="http://sodipodi.sourceforge.net/DTD/sodipodi-0.dtd"
   xmlns:inkscape="http://www.inkscape.org/namespaces/inkscape"
   width="64px"
   height="64px"
   id="svg2918"
   sodipodi:version="0.32"
   inkscape:version="0.48.3.1 r9886"
   sodipodi:docname="Sketcher_Element_Circle_MidPoint.svg"
   inkscape:output_extension="org.inkscape.output.svg.inkscape"
   version="1.1">
  <defs
     id="defs2920">
    <linearGradient
       inkscape:collect="always"
       id="linearGradient3144">
      <stop
         style="stop-color:#ffffff;stop-opacity:1;"
         offset="0"
         id="stop3146" />
      <stop
         style="stop-color:#ffffff;stop-opacity:0;"
         offset="1"
         id="stop3148" />
    </linearGradient>
    <inkscape:perspective
       sodipodi:type="inkscape:persp3d"
       inkscape:vp_x="0 : 32 : 1"
       inkscape:vp_y="0 : 1000 : 0"
       inkscape:vp_z="64 : 32 : 1"
       inkscape:persp3d-origin="32 : 21.333333 : 1"
       id="perspective2926" />
    <radialGradient
       inkscape:collect="always"
       xlink:href="#linearGradient3144"
       id="radialGradient5352"
       gradientUnits="userSpaceOnUse"
       gradientTransform="matrix(1,0,0,0.6985294,0,202.82863)"
       cx="225.26402"
       cy="672.79736"
       fx="225.26402"
       fy="672.79736"
       r="34.345188" />
  </defs>
  <sodipodi:namedview
     id="base"
     pagecolor="#ffffff"
     bordercolor="#666666"
     borderopacity="1.0"
     inkscape:pageopacity="0.0"
     inkscape:pageshadow="2"
     inkscape:zoom="5.4999999"
     inkscape:cx="-16.119015"
     inkscape:cy="24.817835"
     inkscape:current-layer="g4470"
     showgrid="true"
     inkscape:document-units="px"
     inkscape:grid-bbox="true"
     inkscape:window-width="1416"
     inkscape:window-height="823"
     inkscape:window-x="0"
     inkscape:window-y="24"
     inkscape:window-maximized="1"
     inkscape:snap-nodes="false" />
  <metadata
     id="metadata2923">
    <rdf:RDF>
      <cc:Work
         rdf:about="">
        <dc:format>image/svg+xml</dc:format>
        <dc:type
           rdf:resource="http://purl.org/dc/dcmitype/StillImage" />
        <dc:title></dc:title>
      </cc:Work>
    </rdf:RDF>
  </metadata>
  <g
     id="layer1"
     inkscape:label="Layer 1"
     inkscape:groupmode="layer">
    <g
       id="g4470"
       inkscape:export-filename="/home/yorik/Documents/Lab/Draft/icons/circle.png"
       inkscape:export-xdpi="6.7850704"
       inkscape:export-ydpi="6.7850704"
       transform="matrix(0.1460346,0,0,0.1460346,-220.10298,-56.296235)">
      <path
         id="path4439"
         d="m 1721.8125,442.99554 c -99.7853,0 -180.7813,80.99602 -180.7813,180.78125 0,99.78525 80.996,180.78125 180.7813,180.78125 80.6935,0 152.8254,-64.16742 172.3125,-126 14.9908,-37.30252 10.4525,-76.39247 4.125,-94.28125 -29.229,-101.0508 -90.2444,-141.28125 -176.4375,-141.28125 z m -1.4375,35.71875 c 67.8769,-1e-5 124.9765,46.48942 140.75,109.75 -1.1108,38.30121 -1.6582,38.21183 -3.625,82.71875 -19.6543,56.82547 -73.646,97.65625 -137.125,97.65625 -80.0709,10e-6 -145.0625,-64.99154 -145.0625,-145.0625 0,-80.07095 64.9916,-145.0625 145.0625,-145.0625 z m -3.4062,99.0625 c -0.8285,-0.01 -1.6316,0.0297 -2.4688,0.0625 -26.7908,1.05093 -47.7071,23.64668 -46.6562,50.4375 1.0509,26.79082 23.6466,47.67593 50.4374,46.625 26.7909,-1.05093 47.7072,-23.64665 46.6563,-50.4375 -1.0181,-25.95361 -22.2855,-46.39231 -47.9687,-46.6875 z"
         style="fill:#000000;fill-opacity:0.58469944;fill-rule:nonzero;stroke:none;stroke-width:5.80000019;marker:none;visibility:visible;display:inline;overflow:visible;enable-background:accumulate"
         inkscape:connector-curvature="0"
         sodipodi:nodetypes="sssccssccsssssssss" />
      <path
         inkscape:connector-curvature="0"
         id="path4425"
         d="m 1705.7188,410.15625 c -99.7853,0 -180.7813,80.99602 -180.7813,180.78125 0,99.78525 80.996,180.78125 180.7813,180.78125 99.7852,0 180.7811,-80.99599 180.7812,-180.78125 l -0.094,-4.96875 c -2.6923,-98.00357 -82.647,-175.8125 -180.6874,-175.8125 z m -1.4376,35.71875 c 78.671,-10e-6 142.8396,62.42122 145,141.0625 l 0.063,4 c 0,80.07098 -64.9916,145.0625 -145.0626,145.0625 -80.0709,10e-6 -145.0624,-64.99154 -145.0624,-145.0625 0,-80.07095 64.9915,-145.0625 145.0624,-145.0625 z"
         style="fill:#008900;fill-opacity:1;fill-rule:nonzero;stroke:#000000;stroke-width:5.80000019000000044;stroke-linecap:butt;stroke-linejoin:miter;stroke-miterlimit:4;stroke-opacity:1;stroke-dasharray:none;stroke-dashoffset:0;marker:none;visibility:visible;display:inline;overflow:visible;enable-background:accumulate" />
      <path
         d="m 245.71428,655.2193 a 48.57143,48.57143 0 1 1 -97.14286,0 48.57143,48.57143 0 1 1 97.14286,0 z"
         sodipodi:ry="48.57143"
         sodipodi:rx="48.57143"
         sodipodi:cy="655.2193"
         sodipodi:cx="197.14285"
         id="path3187"
         style="fill:#ff2000;fill-opacity:1;fill-rule:nonzero;stroke:#000000;stroke-width:5.79999970999999981;stroke-linecap:butt;stroke-linejoin:miter;stroke-miterlimit:4;stroke-opacity:1;stroke-dasharray:none;stroke-dashoffset:0;marker:none;visibility:visible;display:inline;overflow:visible;enable-background:accumulate"
         sodipodi:type="arc"
         transform="matrix(-0.9992315,0.03919708,-0.03919708,-0.9992315,1922.9598,1240.4934)" />
      <path
         transform="matrix(-0.83008233,0.55764075,-0.55764075,-0.83008233,2253.0007,1013.1888)"
         d="m 259.60921,672.79736 a 34.345188,23.991123 0 1 1 -68.69038,0 34.345188,23.991123 0 1 1 68.69038,0 z"
         sodipodi:ry="23.991123"
         sodipodi:rx="34.345188"
         sodipodi:cy="672.79736"
         sodipodi:cx="225.26402"
         id="path3189"
         style="fill:url(#radialGradient5352);fill-opacity:1;stroke:none"
         sodipodi:type="arc" />
    </g>
  </g>
</svg>
