/* XPM */
static char *Sketcher_Element_EndPoint_sm[] = {
/* columns rows colors chars-per-pixel */
"16 16 102 2 ",
"   c #78F73EC03664",
".  c #002877700028",
"X  c #4AC65ABB4AC6",
"o  c #67D366D467D3",
"O  c #6FCB6EC76FCB",
"+  c #7EDC6965664A",
"@  c #706C72397279",
"#  c #72FB73137317",
"$  c #B86C26C811D8",
"%  c #F73F19FB0000",
"&  c #FDC21F6C008C",
"*  c #D6B1206E070A",
"=  c #E2EF21E90788",
"-  c #FFFF257D0600",
";  c #FDBB2D4B0F32",
":  c #FFFF3AF11EAA",
">  c #D25837C92189",
",  c #D1D6394E25C4",
"<  c #C7FF4B6F397F",
"1  c #DDE74D9C38EE",
"2  c #E93945CB2E53",
"3  c #E6464C613717",
"4  c #CAEE53774245",
"5  c #CF2F56104496",
"6  c #C85F5E804FA7",
"7  c #D9555C864AB0",
"8  c #C180627654C7",
"9  c #C9AB61C352F1",
"0  c #CA25683A5A1F",
"q  c #FFFF69645350",
"w  c #C83B78536CDC",
"e  c #CA3478FF6D5C",
"r  c #F22E737E614F",
"t  c #17C4809717C4",
"y  c #113993901139",
"u  c #20F0814A20F0",
"i  c #2A9383612A93",
"p  c #3BB8A7733BB8",
"a  c #46C9907D46C9",
"s  c #5BBD8E375BBD",
"d  c #56BD951D56BD",
"f  c #5A3C96E35A3C",
"g  c #5ECD935A5ECD",
"h  c #42A2A82742A2",
"j  c #FFFF83F071BA",
"k  c #FFFF8CBE7BD2",
"l  c #87AA878E87AA",
"z  c #875B882F875B",
"x  c #8C2E8C2E8C2E",
"c  c #8F6F8F6F8F6F",
"v  c #92068F7E8F1F",
"b  c #904D904D904D",
"n  c #94E094E094E0",
"m  c #9F02A00C9F02",
"M  c #B22B9610922B",
"N  c #A3C9A3E1A3E4",
"B  c #A8CEA8CEA8CE",
"V  c #AC0BADCDAE0D",
"C  c #AFC5ADCEAD83",
"Z  c #AFA2B88DAFA2",
"A  c #B238B238B238",
"S  c #B5FDB5FDB5FD",
"D  c #B8A0B8A0B8A0",
"F  c #BE07BE02BE07",
"G  c #CD0B9919919D",
"H  c #CDDD9F7998C9",
"J  c #D08CA863A293",
"K  c #C79AB0A8AD64",
"L  c #D49DB776B3F2",
"P  c #D920BF56BB97",
"I  c #83B4C67283B4",
"U  c #AFD5C315AFD5",
"Y  c #B241C55FB241",
"T  c #C09FC0E4C0EF",
"R  c #C78FC77EC78F",
"E  c #CC6CCC6CCC6C",
"W  c #CFF5CFF6CFF5",
"Q  c #CCD8D550CCD8",
"!  c #D267D264D263",
"~  c #D739D739D739",
"^  c #D936D936D936",
"/  c #DD39DD3FDD41",
"(  c #DEF5DEF1DEF0",
")  c #E15AD131CEE9",
"_  c #E11CD435D25F",
"`  c #E504D9A9D806",
"'  c #DDBCE2E7DDBC",
"]  c #E345E345E345",
"[  c #E6F3E2D9E278",
"{  c #E5D0E5E3E5E6",
"}  c #EAB3E70CE682",
"|  c #EA13E969E94B",
" . c #EA77EA77EA77",
".. c #ED00ED00ED00",
"X. c #EF19EE3CEE15",
"o. c #F1F0F20EF214",
"O. c #F75FF75FF75F",
"+. c #FA15FA14FA14",
"@. c #FBBFFBBFFBBF",
"#. c #F954FC8BFCEF",
"$. c #FB66FDD7FE16",
"%. c #FFFCFFFEFFFE",
/* pixels */
"%.%.%.%.%.%.%.%.%.%.%.%.o.o.%.%.",
"%.%.%.%.%.%.%.%.%.%.%.U f d Y %.",
"%.%.%.%.%.%.%.%.%.%.' a I h i / ",
"%.%.%.%.%.%.%.%.%.%.Z u p y t Q ",
"%.%.%.%.%.%.%.%.@.R F g . . s O.",
"%.%.%.%.%.%.%.O.F W o.m X X z o.",
"%.%.%.%.%.%.o.D ^ X.D A O o l o.",
"%.%.%.%.%. .S ] { S F c B B ~ %.",
"%.%.%.%.] S  ./ S F c E %.%.%.%.",
"%.@.) K C o.! D S c ~ %.%.%.%.%.",
"%.H 7 1 8 D T A b / %.` G J X.%.",
"} 5 k q = M V n { %.[ 9 r 2 w O.",
"X.4 ; - * + m X.%.%.L 3 j : , [ ",
"%.P < $   @ { %.%.%._ > & % 6 o.",
"%.%. .v @ N @.%.%.%.%.L 0 e ` %.",
"%.%.%.o.~ O.%.%.%.%.%.%.#.#.%.%."
};
