/* XPM */
static char *Sketcher_Element_Line_sm[] = {
/* columns rows colors chars-per-pixel */
"16 16 111 2 ",
"   c #59D55EB163CA",
".  c #587972327739",
"X  c #60B7612161BF",
"o  c #66B766AC669F",
"O  c #6E6B6E576E77",
"+  c #723E723A7154",
"@  c #762875DF7591",
"#  c #6DD5A97A37D0",
"$  c #74B4AE393ED3",
"%  c #7950BD4A36DD",
"&  c #7A36BBCF3A27",
"*  c #7CD1BB1C3FF3",
"=  c #6DE18ADE7388",
"-  c #8017BA05477A",
";  c #81C1B8964C3B",
":  c #85EBBA5852A6",
">  c #86E7B87F5698",
",  c #8BEFBB805D48",
"<  c #8D7CB93962B2",
"1  c #957FBAC6710D",
"2  c #9E5DBE877E80",
"3  c #5AEA780C9873",
"4  c #5C367B779CD6",
"5  c #6172705C82C6",
"6  c #6FEC8F38B0A1",
"7  c #69E39350BF85",
"8  c #73A090F6B03B",
"9  c #74C691EAB10E",
"0  c #71229701BF56",
"q  c #6BC59562C1CE",
"w  c #6E2099D9C877",
"e  c #748E9DCCC5F5",
"r  c #72CE9C6BC8C3",
"t  c #71699DEDCD95",
"y  c #7AA9A695D59D",
"u  c #876787658763",
"i  c #8AE08AE08AE1",
"p  c #8C028C058BFF",
"a  c #89388BE78EC5",
"s  c #8E248E1D8E2B",
"d  c #8277977D9326",
"f  c #86ED995C9E83",
"g  c #945D9461945A",
"h  c #9C819C839C7E",
"j  c #9848B03A8073",
"k  c #81039162A2DD",
"l  c #81C99968B268",
"z  c #89689F2FB65B",
"x  c #8BF7A0B0B6E1",
"c  c #8DA7A20AB8B4",
"v  c #96CFA550B4CE",
"b  c #98F6A6E6B5D0",
"n  c #9ACEA9F2BA05",
"m  c #A008ACF9BAD1",
"M  c #9E76AC30BC56",
"N  c #A3A9A3AAA3AC",
"B  c #A8CAA8CBA8CA",
"V  c #AEB8AE38AF36",
"C  c #A4B2AFD8BBDD",
"Z  c #A3DAB036BD66",
"A  c #A553B116BDB9",
"S  c #A9E1B3F8BEB5",
"D  c #B826B77AB8D0",
"F  c #B943CC2CA6BE",
"G  c #C290D084B50C",
"H  c #C67ED256BAB6",
"J  c #8DD0A96FC6CF",
"K  c #95EAB00CCC14",
"L  c #8A17ACD9D21B",
"P  c #8CC5AFD4D532",
"I  c #8D9AB2C6DA86",
"U  c #9ABAB4C7D0AA",
"Y  c #ABEBB665C19A",
"T  c #A2C5BE38DBD0",
"R  c #BB7CC242C980",
"E  c #BF02C5B8CCFA",
"W  c #B1C7CB21E660",
"Q  c #B565CDABE7DE",
"!  c #C1DBC108C2AA",
"~  c #C3F2C96ACF4A",
"^  c #CADBC9DDCBCE",
"/  c #CABDD4D4C0D6",
"(  c #CF3DD786C715",
")  c #D2BED98ACC21",
"_  c #CBA4D074D59F",
"`  c #CEFCD321D77D",
"'  c #D373D276D46C",
"]  c #D739D739D739",
"[  c #D824DAF5D3B2",
"{  c #D8E4DE09D3E9",
"}  c #D919DD1FD513",
"|  c #D3E7D79BDB8D",
" . c #D720DA2DDD5F",
".. c #D9B2DC4CDF19",
"X. c #DEEEDEEEDEEE",
"o. c #E149E473DE14",
"O. c #DDEBE025E286",
"+. c #DEA3E0DAE347",
"@. c #E5AEE5AEE5AE",
"#. c #E8E1EA65E757",
"$. c #EA6EEB58EC5D",
"%. c #ECF3ECF3ECF3",
"&. c #ED5AEE22EEFA",
"*. c #F02EF0B0F13C",
"=. c #F38EF3AEF191",
"-. c #F5CAF58DF54F",
";. c #FA17FA17FA17",
":. c #FB05FA55FAAF",
">. c #FC99FC64FC14",
",. c #FD42FD01FCBE",
"<. c #FFFFFFFEFFFF",
/* pixels */
"<.<.<.<.<.<.<.<.<.<.<.<.+.~ @.<.",
"<.<.<.<.<.<.<.<.<.<.<.| z J l  .",
"<.<.<.<.<.<.<.<.<.<.<.M T W r b ",
"<.<.<.<.<.<.<.<.<.<.=.d e y q C ",
"<.<.<.<.<.<.<.<.<.&.2 # . 3 k $.",
"<.<.<.<.<.<.<.<.#.1 % j + X i =.",
"<.<.<.<.<.<.<.o.< & F ^ O o u =.",
"<.<.<.<.<.<.{ > * G ' s B B ] <.",
"<.<.<.<.<.( ; * / ^ i ^ <.<.<.<.",
"<.<.-.;.H * > ) ! i ] <.>.-.<.<.",
"&.A c f $ , } D s X.<.&.m x C &.",
"S K Q 0 = [ V g @.<.<.Y U W 0 S ",
"b L I t 5 u h %.<.<.<.b P I w v ",
"` 8 7 4   @ @.<.<.<.<._ 6 7 9 ` ",
"<.O.R a + N ;.<.<.<.<.<...E +.<.",
"<.<.<.=.X.=.<.<.<.<.<.<.<.<.<.<."
};
