/* XPM */
static char *Sketcher_Element_Circle_MidPoint_svg[] = {
/* columns rows colors chars-per-pixel */
"16 16 59 1 ",
"  c #3C9F5B1D3C9F",
". c #2BD9633B2BD9",
"X c #5D0E79CB5D0E",
"o c #6B756B756B75",
"O c #6A276D936A27",
"+ c #6DAA6DAA6DAA",
"@ c #722F722F722F",
"# c #766D766D766D",
"$ c #7A907A907A90",
"% c #7F207F207F20",
"& c #004D8070004D",
"* c #055480840554",
"= c #288F8123288F",
"- c #28129DD12812",
"; c #389594A23895",
": c #583F9906583F",
"> c #5647A0825647",
", c #63BCB8CB63BC",
"< c #79D6A6A479D6",
"1 c #7F09AAC37F09",
"2 c #808180818081",
"3 c #85E985E985E9",
"4 c #8BFC8BFC8BFC",
"5 c #926092609260",
"6 c #95C195C195C1",
"7 c #9F669F669F66",
"8 c #986AB726986A",
"9 c #A23FA23FA23F",
"0 c #A4C8A4C8A4C8",
"q c #ABD4ABD4ABD4",
"w c #AC94AC94AC94",
"e c #B14CB14CB14C",
"r c #B4FFB344B4FF",
"t c #B4B0B4B0B4B0",
"y c #B75AB75AB75A",
"u c #BFEABFEABFEA",
"i c #C3B5C3B5C3B5",
"p c #C7E4C7E4C7E4",
"a c #C8CBC8CBC8CB",
"s c #CFD9CFCCCFD9",
"d c #C324D1C8C324",
"f c #C635D3DFC635",
"g c #D12DD12DD12D",
"h c #D7F2D7F2D7F2",
"j c #D879D831D879",
"k c #DA98DA98DA98",
"l c #DCEDDCEDDCED",
"z c #E3E9E3E9E3E9",
"x c #E4E6E4E6E4E6",
"c c #E74CE74CE74C",
"v c #EBFFEBFEEBFF",
"b c #EFE3EFE0EFE3",
"n c #F1DEF1DEF1DE",
"m c #F438F438F438",
"M c #F6A9F634F6A9",
"N c #F8B2F8DCF8B2",
"B c #FB11FB11FB11",
"V c #FCC8FCC9FCC8",
"C c #FFFDFFFDFFFD",
/* pixels */
"CCCCNvkkknCCCCCC",
"CCCzghhhkhknCCCC",
"CChhp6$#3wkgbCCC",
"Clhqo%quy65ksMCC",
"ngyowbCCCCgwkkCC",
"kh%qNNfdnCClhpNC",
"ga2vC8>;8nCMgpxC",
"su7CM:,-=lCNgipC",
"garCC<*&.pCMgytC",
"lguCCxX OhCck6yC",
"MsgxCClysBnsg#lC",
"CkgglNCCCbsl45NC",
"CNyuhghhgkk5#lCC",
"CCn05usgpw#$gCCC",
"CCCNu3#@+$9xCCCC",
"CCCCCMlagxNCCCCC"
};
