/* XPM */
static char *Sketcher_ConstrainVertical_sm[] = {
/* columns rows colors chars-per-pixel */
"16 16 90 1 ",
"  c #16311631002A",
". c #1017101705BF",
"X c #19F419F40000",
"o c #0FAF0FAF085A",
"O c #178C178C17F6",
"+ c #1B921B921D3F",
"@ c #302730270000",
"# c #37F837F80000",
"$ c #2BD42BD42EBB",
"% c #32F832F8366D",
"& c #3A763A763DFE",
"* c #4F3B4F3B0000",
"= c #595A595A0000",
"- c #5C4A5C4A0906",
"; c #54EC54EC0FD1",
": c #759A759A00AE",
"> c #7E887E880000",
", c #4B164B162000",
"< c #4DA74DA737D6",
"1 c #7D3B7D3B388B",
"2 c #4CF54CF54551",
"3 c #540C540C4463",
"4 c #52CD52CD55EF",
"5 c #5C845C845F5F",
"6 c #67EE67EE6344",
"7 c #702B702B6B7B",
"8 c #88A888A80000",
"9 c #932593250000",
"0 c #A1ACA1AC0000",
"q c #AD98AD980000",
"w c #B46BB46B00AE",
"e c #B6B5B6B50000",
"r c #BF38BF380000",
"t c #BB91BB911605",
"y c #BE98BE983B10",
"u c #C9D9C9D90000",
"i c #CCD6CCD60000",
"p c #D450D4500000",
"a c #DC1EDC1E0000",
"s c #E2B9E2B90000",
"d c #E7B1E7B10663",
"f c #EA46EA460000",
"g c #F023F0230035",
"h c #F37EF37E0000",
"j c #F8B0F8B00000",
"k c yellow",
"l c #FFFFFFFF053A",
"z c #FFFFFFFF0896",
"x c #FFFFFFFF0EBD",
"c c #FFFFFFFF172B",
"v c #FFFFFFFF1D57",
"b c #FFFFFFFF2E03",
"n c #FFFFFFFF34F9",
"m c #FF7EFF7E3B79",
"M c #FFFFFFFF4322",
"N c #FFFFFFFF4C4A",
"B c #FFFFFFFF54B2",
"V c #FFFFFFFF5ED1",
"C c #FFFFFFFF795B",
"Z c #8247824783F6",
"A c #8D478D478EA7",
"S c #9EAA9EAA8134",
"D c #9124912493CA",
"F c #94DC94DC9561",
"G c #A790A790A845",
"H c #B07EB07EB41F",
"J c #BD61BD61B26A",
"K c #FFFFFFFF8260",
"L c #FFFFFFFF8F85",
"P c #FFFBFFFB9C80",
"I c #FFFFFFFFA734",
"U c #FFFFFFFFAF9D",
"Y c #CFC1CFC1CFE2",
"T c #D741D741D754",
"R c #D801D801DA8A",
"E c #DD23DD23DD94",
"W c #FFFFFFFFC77C",
"Q c #FFFFFFFFCD0C",
"! c #FFFFFFFFD746",
"~ c #FEDCFEDCDF94",
"^ c #E711E711E715",
"/ c #EBABEBABED10",
"( c #FFFFFFFFE209",
") c #FEC4FEC4E7D8",
"_ c #FFFFFFFFEB1B",
"` c #F29DF29DF657",
"' c #FF13FF13F71D",
"] c #FC33FC33FC33",
"[ c #FFFFFFFFF940",
"{ c #FFFEFFFEFFFF",
/* pixels */
"{{{{{{{{{{{{{{{{",
"{{QP~{{{{{{'UU'{",
"{{UzyG{{{{{Qct7E",
"{{_nu</{{{{Kj*&/",
"{{{Kj-H{{{_ni A{",
"{{{Qc06{{{Uz>+T{",
"{{{[Bs,R{[Vf@5]{",
"{{{{Il:D{!vqoH{{",
"{{{{)br3`Lj=%/{{",
"{{{{{Ch;JMpXZ{{{",
"{{{{{Wc91x8OY{{{",
"{{{{{'Nawg#4]{{{",
"{{{{{{Pjkw.G{{{{",
"{{{{{{(md=$^{{{{",
"{{{{{{{_S2F{{{{{",
"{{{{{{{{][]{{{{{"
};
