/* XPM */
static char *Sketcher_ConstrainLock_sm[] = {
/* columns rows colors chars-per-pixel */
"16 16 87 1 ",
"  c #7BDF2A9F1BC7",
". c #79DF2C581E5D",
"X c #7D5A2E7F2049",
"o c #7C53323A24D6",
"O c #6CCC3B43321A",
"+ c #6CA73D1A3451",
"@ c #98DF1B29049F",
"# c #B07E1A570000",
"$ c #976620650B11",
"% c #842724F715D1",
"& c #8A74288A172E",
"* c #8C582AD71A14",
"= c #AC0D284010AC",
"- c #BD242A641031",
"; c #AD3431171ADB",
": c #89E830641FE7",
"> c #C7EB19690000",
", c #D0C51B3A0000",
"< c #D2A41CF60000",
"1 c #EF041F7C0000",
"2 c #F0B71E760000",
"3 c #CA69205E0333",
"4 c #C45F28CB0CE0",
"5 c #D1EA20D40124",
"6 c #DDF51FB60000",
"7 c #E013247103D2",
"8 c #E2EE20450000",
"9 c #E7FF21110000",
"0 c #F02F208F0000",
"q c #ED9321C70000",
"w c #F99C227D0000",
"e c #F9F623E30000",
"r c #FFFF243B0000",
"t c #FFFF26320000",
"y c #D0FD3DB0268B",
"u c #D6C13F1E268B",
"i c #ACF240712D0D",
"p c #B576487634FB",
"a c #B58A492635C6",
"s c #DAF0420D270A",
"d c #ADEC5A124AF5",
"f c #B6C1528F405C",
"g c #B76C636753F6",
"h c #B7CA64DC55E0",
"j c #91ED6E6067D5",
"k c #99FC6D2264FD",
"l c #A2F06AD860B7",
"z c #B12277966D00",
"x c #BFC178CD6BC2",
"c c #BDEA7D267160",
"v c #BE5A7F6D73D7",
"b c #C930609F4DB2",
"n c #CC93666F5403",
"m c #D5476C295942",
"M c #D2A46F645D76",
"N c #B8BE85747BF6",
"B c #BFD385377A6F",
"V c #CF4B86E579AE",
"C c #A1989FF29F94",
"Z c #A938AA93AABC",
"A c #A997AB24AB65",
"S c #ADDAAF54AF8E",
"D c #BB92BB2BBB15",
"F c #BBB8BE90BF11",
"G c #D7458F0181EB",
"H c #D2EA9E4A949C",
"J c #D8E2BDC2B8AF",
"K c #C713C9B4CA28",
"L c #CEAACC4DCBDF",
"P c #CCBBCCEECCF5",
"I c #DB49C4F3C0C0",
"U c #D425D70DD794",
"Y c #E7FFE5DDE578",
"T c #F245E8EBE72C",
"R c #F166EC4FEB4F",
"E c #F612EF28EDDB",
"W c #F632F0B9EFB3",
"Q c #EF9DF150F1A0",
"! c #F423F10FF07A",
"~ c #F6DFF247F171",
"^ c #F513F335F2DD",
"/ c #F80EF7EEF7E6",
"( c #F9E4F714F689",
") c #F9ECF8CAF883",
"_ c #F925FAA9FAE8",
"` c #FC47FD2EFD53",
"' c gray100",
/* pixels */
"'''''''_''''''''",
"''''(JvggBI(''''",
"'''Wx4<>>,-zY'''",
"'''H75:kNf73jQ''",
"'''Mq C_'RbqoK''",
"''`m9+U'''GqXF''",
"''!n6OL~E~V8.D''",
"'Eh=#$ippp;#@lY'",
"'Tuwwwwweweee*S'",
"'Tstttttttttt&Z'",
"'Tstttttttttt&Z'",
"'Tstttttttttt&Z'",
"'Tsrtttttttte&Z'",
"'Ty20qqqqq1qq%Z'",
"'EvddddddddddkP'",
"'''(////))///_''"
};
