/* XPM */
static char *Sketcher_Element_StartingPoint_sm[] = {
/* columns rows colors chars-per-pixel */
"16 16 108 2 ",
"   c #0D7C6D410D7C",
".  c #113470BD1134",
"X  c #16BD75FB16BD",
"o  c #1AD47E441AD4",
"O  c #3AE259FF3AE2",
"+  c #63505AD6599D",
"@  c #60E25B2A5A50",
"#  c #669E672B6740",
"$  c #6E9A6F036F13",
"%  c #724071657240",
"&  c #750A743C750A",
"*  c #783B7C4E783B",
"=  c #BE0525690F73",
"-  c #F73F19FB0000",
";  c #FDC21F6C008C",
":  c #C65D20AB08DC",
">  c #DFC6285F0F08",
",  c #DEFB299B118D",
"<  c #FFFF2A090B07",
"1  c #FFFF3AF11EAA",
"2  c #C1B63B0227B2",
"3  c #D25837C92189",
"4  c #D1D6394E25C4",
"5  c #FFFF3CAD201C",
"6  c #E93945CB2E53",
"7  c #E6464C613717",
"8  c #B53F6D2D62D8",
"9  c #CEB956D04584",
"0  c #C85F5E804FA7",
"q  c #D70854A641E3",
"w  c #D1D05ED44E44",
"e  c #C9AB61C352F1",
"r  c #CA25683A5A1F",
"t  c #FFFF693A538C",
"y  c #C83B78536CDC",
"u  c #CA3478FF6D5C",
"i  c #F22E737E614F",
"p  c #05EC8EB905EC",
"a  c #1E7A99821E7A",
"s  c #23DD857A23DD",
"d  c #334983F43349",
"f  c #3CEEA7D23CEE",
"g  c #3FE892AC3FE8",
"h  c #4B7A96194B7A",
"j  c #C871833D7948",
"k  c #FFFF83F071BA",
"l  c #876587728774",
"z  c #89F08AF48B18",
"x  c #89DF8DBE89DF",
"c  c #8F6F8F6F8F6F",
"v  c #904D904D904D",
"b  c #94E094E094E0",
"n  c #9DCB9D849DCB",
"m  c #87F3A79987F3",
"M  c #8472A9C98472",
"N  c #8B10AD628B10",
"B  c #A3CEA3C8A3CE",
"V  c #A741A892A8C0",
"C  c #A8CEA8CEA8CE",
"Z  c #AF66AF69AF69",
"A  c #AE21B239AE21",
"S  c #B238B238B238",
"D  c #B5FDB5FDB5FD",
"F  c #B7DCB7DCB7DC",
"G  c #B8A0B8A0B8A0",
"H  c #BBAABBAABBAA",
"J  c #BE33BE33BE33",
"K  c #C5489A0E93D5",
"L  c #CD0B9919919D",
"P  c #FFFF92248201",
"I  c #CFF1A8A3A2FD",
"U  c #D08CA863A293",
"Y  c #D49DB776B3F2",
"T  c #D508BDA9BA5B",
"R  c #8BEACC198BEA",
"E  c #C647C368C306",
"W  c #C240C70AC240",
"Q  c #C497C61DC655",
"!  c #CC6CCC6CCC6C",
"~  c #C783D260C783",
"^  c #C8F4D322C8F4",
"/  c #D266D267D266",
"(  c #D739D739D739",
")  c #D7E5DC5CD7E5",
"_  c #D936D936D936",
"`  c #DEF5DEF1DEF0",
"'  c #E11CD435D25F",
"]  c #E09FD660D4DF",
"[  c #E504D9A9D806",
"{  c #E5A6DDE8DCC7",
"}  c #DC15E1C4DC15",
"|  c #E91AE167E056",
" . c #E345E345E345",
".. c #E6F3E2D9E278",
"X. c #E6E1E6E1E6E1",
"o. c #EC67E8D6E853",
"O. c #EA77EA77EA77",
"+. c #ED00ED00ED00",
"@. c #F14EEE8CEE1A",
"#. c #F1F5F1EAF1F5",
"$. c #F4E9F4CFF4CB",
"%. c #F75FF75FF75F",
"&. c #F801F983F9BD",
"*. c #F921F8CDF921",
"=. c #FBBFFBBFFBBF",
"-. c #F954FC8BFCEF",
";. c #FB66FDD7FE16",
":. c #FFFEFFFEFFFE",
/* pixels */
":.:.:.:.:.:.:.:.:.:.:.=.{ ] %.:.",
":.:.:.:.:.:.:.:.:.:.:.I w q j %.",
":.:.:.:.:.:.:.:.:.:.o.9 P t , T ",
":.:.:.:.:.:.:.:.:.:.E 2 1 < > T ",
":.:.:.:.:.:.:.:.=.Q Q K = : 8 #.",
":.:.:.:.:.:.:.%.J / #.V @ + z %.",
":.:.:.:.:.:.#.G _ +.F Z $ # l #.",
":.:.:.:.:.O.D  .X.D J c V V ( :.",
":.:.:.:. .D O.` D J z ! :.:.:.:.",
":.=.} W D #./ D D c ( :.:.:.:.:.",
"=.m h d m Q J S c ` :.[ L U @.:.",
"~ g R f X A Z b X.:.| e i 6 y &.",
"^ s a p . * n O.:.:.Y 7 k 1 4 ..",
"=.M o   O & X.:.:.:.' 3 ; - 0 #.",
":.=.) x % B =.:.:.:.:.Y r u [ :.",
":.:.:.#.` #.:.:.:.:.:.:.;.;.:.:."
};
