/* XPM */
static char *Sketcher_Element_Line_EndPoint_svg[] = {
/* columns rows colors chars-per-pixel */
"16 16 78 1 ",
"  c #78F73EC03664",
". c #002877700028",
"X c #4AC65ABB4AC6",
"o c #67D366D467D3",
"O c #6FCB6EC76FCB",
"+ c #7EDC6965664A",
"@ c #706C72397279",
"# c #72FB73137317",
"$ c #B86C26C811D8",
"% c #D6B1206E070A",
"& c #E2EF21E90788",
"* c #FFFF257D0600",
"= c #FDBB2D4B0F32",
"- c #C7FF4B6F397F",
"; c #DDE74D9C38EE",
": c #CAEE53774245",
"> c #CF2F56104496",
", c #D9555C864AB0",
"< c #C180627654C7",
"1 c #FFFF69645350",
"2 c #17C4809717C4",
"3 c #113993901139",
"4 c #20F0814A20F0",
"5 c #2A9383612A93",
"6 c #3BB8A7733BB8",
"7 c #46C9907D46C9",
"8 c #5BBD8E375BBD",
"9 c #56BD951D56BD",
"0 c #5A3C96E35A3C",
"q c #5ECD935A5ECD",
"w c #42A2A82742A2",
"e c #FFFF8CBE7BD2",
"r c #87AA878E87AA",
"t c #875B882F875B",
"y c #8F6F8F6F8F6F",
"u c #92068F7E8F1F",
"i c #904D904D904D",
"p c #94E094E094E0",
"a c #9F02A00C9F02",
"s c #B22B9610922B",
"d c #A3C9A3E1A3E4",
"f c #A8CEA8CEA8CE",
"g c #AC0BADCDAE0D",
"h c #AFC5ADCEAD83",
"j c #AFA2B88DAFA2",
"k c #B238B238B238",
"l c #B5FDB5FDB5FD",
"z c #B8A0B8A0B8A0",
"x c #BE07BE02BE07",
"c c #CDDD9F7998C9",
"v c #C79AB0A8AD64",
"b c #D920BF56BB97",
"n c #83B4C67283B4",
"m c #AFD5C315AFD5",
"M c #B241C55FB241",
"N c #C09FC0E4C0EF",
"B c #C78FC77EC78F",
"V c #CC6CCC6CCC6C",
"C c #CFF5CFF6CFF5",
"Z c #CCD8D550CCD8",
"A c #D267D264D263",
"S c #D739D739D739",
"D c #D936D936D936",
"F c #DD39DD3FDD41",
"G c #DEE7DEE7DEE7",
"H c #E15AD131CEE9",
"J c #DDBCE2E7DDBC",
"K c #E345E345E345",
"L c #E5D0E5E3E5E6",
"P c #EAB3E70CE682",
"I c #EA13E969E94B",
"U c #EA77EA77EA77",
"Y c #EF19EE3CEE15",
"T c #F1F0F20EF214",
"R c #F75FF75FF75F",
"E c #FA15FA14FA14",
"W c #FBBFFBBFFBBF",
"Q c #FFFDFFFEFFFE",
/* pixels */
"QQQQQQQQQQQQTTQQ",
"QQQQQQQQQQQm09MQ",
"QQQQQQQQQQJ7nw5F",
"QQQQQQQQQQj4632Z",
"QQQQQQQQWBxq..8R",
"QQQQQQQRxCTaXXtT",
"QQQQQQTzDYzkOorT",
"QQQQQUlKLlxyffSQ",
"QQQQKlUFlxtCQQQQ",
"QWHvhTAzlySQQQQQ",
"Qc,;<zNkiFQQQQQQ",
"P>e1&sgpLQQQQQQQ",
"Y:=*%+aYQQQQQQQQ",
"Qb-$ @LQQQQQQQQQ",
"QQIu@dRQQQQQQQQQ",
"QQQTDRQQQQQQQQQQ"
};
