/* XPM */
static char *Sketcher_CreateSquare_sm[] = {
/* columns rows colors chars-per-pixel */
"16 16 88 1 ",
"  c #736B53764EDD",
". c #6CD262FC6194",
"X c #6C2D6A3269F0",
"o c #7C5F6592624C",
"O c #74B96A3068B1",
"+ c #736B736B736B",
"@ c #797379737973",
"# c #7D537DA37DAE",
"$ c #AECA26941309",
"% c #AB7D28A415EE",
"& c #E8931C920000",
"* c #CF4430511995",
"= c #EA9221070576",
"- c #FC46237604CF",
"; c #CB8836AF2160",
": c #F21D3E372496",
"> c #D5B047BF3356",
", c #FFFF480A2CE1",
"< c #F2E0513039F5",
"1 c #B25852DD45AD",
"2 c #AF216FE966D0",
"3 c #C9EE59EE49E1",
"4 c #FFFF5B8C434B",
"5 c #D86C65965520",
"6 c #F3AF6DEC5AA3",
"7 c #D0387C056FDE",
"8 c #CE9382AA77DB",
"9 c #FE18883F774F",
"0 c #806380638063",
"q c #838983898389",
"w c #8AE28AE28AE2",
"e c #8DEA8EFD8F25",
"r c #98E18D5E8BB3",
"t c #92A292A392A3",
"y c #979697969796",
"u c #99EC99EC99EC",
"i c #9CCE9CCE9CCE",
"p c #A11DA11DA11D",
"a c #A5E7A631A63B",
"s c #A9DAA9DAA9DA",
"d c #B00EAB12AA60",
"f c #AAE7ADA4AE09",
"g c #AC10AD64AD95",
"h c #B146A48AA2BA",
"j c #B22FB22FB22F",
"k c #B4E2B4E2B4E2",
"l c #B470B57CB5A3",
"z c #BBD8BBD8BBD8",
"x c #BD6BBE37BE54",
"c c #CF8C8CB58309",
"v c #C3D19BDC96BA",
"b c #D3D89CD59578",
"n c #D4D3A38B9C71",
"m c #C500BDF6BCF7",
"M c #D815BE81BADA",
"N c #C109C109C109",
"B c #C814C814C814",
"V c #CBB0CC1CCC2B",
"C c #CAA1CDA6CE0D",
"Z c #CEBECFDAD003",
"A c #E041C93FC5EF",
"S c #DE2BCD36CAC2",
"D c #D092D092D092",
"F c #D308D308D308",
"G c #D4C6D4C6D4C6",
"H c #D8B7D8B7D8B7",
"J c #DC75DC73DC72",
"K c #DDCDDDCADDCA",
"L c #E005E005E005",
"P c #E3DACE3ACB16",
"I c #E38ED158CEB9",
"U c #E58AD56FD31D",
"Y c #E343E343E343",
"T c #E5E8E5E8E5E8",
"R c #E64CE7BBE7F0",
"E c #EE13E704E601",
"W c #E7F8E8BFE8DC",
"Q c #E957EA45EA67",
"! c #EE5AEE5AEE5A",
"~ c #ECD8F050F0C6",
"^ c #F111F111F111",
"/ c #F4DCF4DCF4DC",
"( c #F7A3F7A0F79F",
") c #F6E5F950F99F",
"_ c #F9B7F9B5F9B4",
"` c #FC18FC14FC13",
"' c #FB2BFCFDFD2D",
"] c #FFFDFFFEFFFE",
/* pixels */
"]]]]_]]]]]]]]]]]",
"]]]FZHT^_]]]']]]",
"]]_ZJZGGGGYM7cE]",
"]]!Gy+0ykVm39:8'",
"]]YFwFZge#O;,-1~",
"]]GBt_PnSQZ2*%oT",
"]_FjgA56>U]ZdXk'",
"]^GuCb<4=v)Fak]]",
"]TFwTI;&$rWGtH]]",
"]FVe/]h .xKZw^]]",
"]VKlFKYBG_GNu]]]",
"]ZysNFFFGFZsl]]]",
"]/xyq#wpxZYtG]]]",
"]]]_^Hziq@##!]]]",
"]]]]]]]]/KNN_]]]",
"]]]]]]]]]]]]]]]]"
};
