/* XPM */
static char *Sketcher_CreatePolyline_sm[] = {
/* columns rows colors chars-per-pixel */
"16 16 105 2 ",
"   c #9EE13EC8315B",
".  c #A56B3CE32EED",
"X  c #E32B1CC60257",
"o  c #F1361C550000",
"O  c #F7EA1E520046",
"+  c #D8BF20BB0745",
"@  c #DA91242D0B93",
"#  c #C757337F1E7D",
"$  c #CF7631621ABC",
"%  c #EAED20AB05A4",
"&  c #FE6F2B480CE3",
"*  c #FFFF2BCE0D52",
"=  c #F027331717EA",
"-  c #FE1C34EB1825",
";  c #FEBA3C4C2146",
":  c #95EE412C353E",
">  c #9837434F370C",
",  c #B08E48453943",
"<  c #C615406A2D3E",
"1  c #CD2F40692C42",
"2  c #CF684E0A3B62",
"3  c #DEF64C473755",
"4  c #F3CD54DB3DE5",
"5  c #876251094924",
"6  c #9149556C4CC7",
"7  c #86CD5735506B",
"8  c #8A0F609F5BC5",
"9  c #A42260405686",
"0  c #BA5566A35A91",
"q  c #8F18699B6436",
"w  c #849F6EEA6BC3",
"e  c #82727431721F",
"r  c #94357C667911",
"t  c #A3C1786D7236",
"y  c #CF7F58D547D2",
"u  c #D25B5A0548C1",
"i  c #D8305AAA4891",
"p  c #D81E647553EE",
"a  c #FFFF604F48BA",
"s  c #E4EE67D955E0",
"d  c #F3C66CE55994",
"f  c #CD9B77A36B45",
"g  c #CCF17BB07006",
"h  c #FFFF7A33664F",
"j  c #FFFF8C567B16",
"k  c #858085838584",
"l  c #8A9B895C892C",
"z  c #94F58A8E8913",
"x  c #8EA79008903B",
"c  c #910891089108",
"v  c #924194F9955B",
"b  c #943794369436",
"n  c #A9938C418802",
"m  c #AAB897EF953D",
"M  c #A8C599A49777",
"N  c #BBB89F929B86",
"B  c #B32EA1CA9F58",
"V  c #A5C5A0E9A030",
"C  c #A801AB41ABB4",
"Z  c #ADA8ABDDAB9C",
"A  c #BEBFAF35ACFD",
"S  c #B246B246B246",
"D  c #B409B409B409",
"F  c #B34EB60EB673",
"G  c #B95ABA37BA57",
"H  c #C90589E880D3",
"J  c #CB038E5685A7",
"K  c #D02F9BE6945B",
"L  c #D18599269178",
"P  c #D242A02598E4",
"I  c #CB21AF30AB31",
"U  c #D481BF30BC25",
"Y  c #BDE5C146C1AF",
"T  c #C30EC586C5E0",
"R  c #C78FC78FC78F",
"E  c #C5B4C8E8C954",
"W  c #CE02CEBDCED8",
"Q  c #DF29C8B1C578",
"!  c #D099D099D099",
"~  c #D59AD10DD068",
"^  c #D639D3B3D355",
"/  c #D856D858D859",
"(  c #DB0EDB10DB10",
")  c #DC93DD56DD72",
"_  c #E14ECF7CCD27",
"`  c #E1C8D0BECE54",
"'  c #E4FBD530D2E4",
"]  c #E62ADC30DAC4",
"[  c #E97ADF8FDE1E",
"{  c #E0FBE2ECE335",
"}  c #E332E5B0E5FB",
"|  c #E5F5E75BE78E",
" . c #EB84E5F6E524",
".. c #EDF7E8C7E809",
"X. c #E7E4E8DCE900",
"o. c #EE05E9DCE942",
"O. c #EBB2ED92EDD7",
"+. c #EE38EF24EF45",
"@. c #F398F3EEF3FA",
"#. c #F377F4F6F52D",
"$. c #F721F73BF740",
"%. c #F7F4F80CF810",
"&. c #FA44FBA6FBC1",
"*. c #FD29FE16FE36",
"=. c #FFFCFFFDFFFD",
/* pixels */
"=.=.=.=.=.=.=.=.=.=.=.&.]  .=.=.",
"=.=.=.=.=.=.=.=.=.=.&.K p u I %.",
"=.=.=.=.=.=.=.=.=.=.[ i j ; . Y ",
"=.=.=.=.=.=.=.=.=.=.o.2 & O : C ",
"=.=.=.=.Q P ` =.=.=.=.N , > z ) ",
"=.=.=.Q p d 1 A &.=.@.W v C @.=.",
"=.=.=.L 4 a % 8 } =.) R k / =.=.",
"=.=.=.U $ o # e ) =.W S c @.=.=.",
"=.=.=.W m 7 M G G +.W b S =.=.=.",
"=.%.^ E x F | W V n B k ( =.=.=.",
"[ g y 9 l ..=.^ 0 s 1 q O.=.=.=.",
"H d h @ r #.=._ 3 h -   E =.=.=.",
"J = & + w } =...2 O X 5 T =.=.=.",
" .f < 6 C %.=.=.' H t Z @.=.=.=.",
"=.&.| { %.=.=.=.=.=.%.=.=.=.=.=.",
"=.=.=.=.=.=.=.=.=.=.=.=.=.=.=.=."
};
