/* XPM */
static char *Sketcher_SelectOrigin_sm[] = {
/* columns rows colors chars-per-pixel */
"16 16 97 2 ",
"   c #00007AAD0E7C",
".  c #025B6CE11E57",
"X  c #018F724C182F",
"o  c #050B5F382EA2",
"O  c #06BC5B8C3582",
"+  c #09C955193A55",
"@  c #097C54683E67",
"#  c #04236539273F",
"$  c #034169642356",
"%  c #0AE3503D446A",
"&  c #16554DB156B7",
"*  c #16E7491B5BEF",
"=  c #1A634CB65D81",
"-  c #3AEF67F451D4",
";  c #1B7C46B562BF",
":  c #27874BC36FEB",
">  c #3130418D6CA0",
",  c #4348764E49B8",
"<  c #9BEC1DA93CCE",
"1  c #A76B19DE33D1",
"2  c #FFFF227C0000",
"3  c #FFFF25EC018F",
"4  c #FFFF28CB0318",
"5  c #FFFF2B5C0927",
"6  c #FFFF32C80F20",
"7  c #FFFF488D2965",
"8  c #FFFF52103518",
"9  c #DDE15BBA5AB5",
"0  c #FFFF5E71420E",
"q  c #FFFF62324500",
"w  c #FFFF65334A98",
"e  c #FFFF742E5BD3",
"r  c #FFFF7E206776",
"t  c #0000836F0566",
"y  c #000089860000",
"u  c #00008BAB0000",
"i  c #71A3D242130A",
"p  c #7368D2CF1603",
"a  c #7D37D5F6265D",
"s  c #7F25D6952988",
"d  c #66768C516FF0",
"f  c #82DBD7C42FA8",
"g  c #844ED83E3220",
"h  c #936ADD174B50",
"j  c #9534DF984AF8",
"k  c #9681DE18506A",
"l  c #9A11DF4D565E",
"z  c #9EF5E0CA5E83",
"x  c #A008E129603D",
"c  c #4D5D57059CB2",
"v  c #5AE26396A443",
"b  c #5BA76228A6C3",
"n  c #702271A3B5B1",
"m  c #73F27578B797",
"M  c #9E51BFD59373",
"N  c #FFFF99948798",
"B  c #FFFFA8A29991",
"V  c #C7FD9342ABFF",
"C  c #FFFFB2F3A551",
"Z  c #FFFFB590A88F",
"A  c #FFFFB713A839",
"S  c #FFFFB83DAB9D",
"D  c #FFFFBD77B1C4",
"F  c #B729EA2A8443",
"G  c #B8A5E9178938",
"H  c #BE1CEACC923C",
"J  c #CC99EF77AA60",
"K  c #CE3DEFF8AD29",
"L  c #D20CF13DB388",
"P  c #D344F1A8B599",
"I  c #D77BF302BCAF",
"U  c #863186B7C1D3",
"Y  c #85BD84ADC31F",
"T  c #89668AEEC279",
"R  c #AB7DA8C4D7CB",
"E  c #AF96ACE5D74C",
"W  c #AF84AC31DA41",
"Q  c #B7FBB4C9DE79",
"!  c #FFFFD1B1C99B",
"~  c #FFFFDA01D351",
"^  c #E5A1F781D429",
"/  c #EC37F9A9DF04",
"(  c #E651E879EE4F",
")  c #FFFFE8D2E4BE",
"_  c #FFFFEC2EE8C2",
"`  c #FFFFEF40EC51",
"'  c #ED49FA05E0DE",
"]  c #F2D7FBC4EA14",
"[  c #E598E3F6F413",
"{  c #F8BCFDC5F3BE",
"}  c #FFFFF898F74A",
"|  c #F66EF5C9FBBB",
" . c #F7FEF74EFC91",
".. c #FFFFFA63F952",
"X. c #FD8FFF35FBEE",
"o. c #FA94FA1AFDAC",
"O. c gray100",
/* pixels */
"O.O.X.K ^ O.O.O.O.O.O.O.O.O.O.O.",
"O.O.J a k / O.O.O.O.O.O.O.O.O.O.",
"O.L s i p l ' O.O.O.O.O.O.O.O.O.",
"P f i p p p x ] O.O.O.O.O.O.O.O.",
"I H g p i z J ' O.O.O.O.O.O.O.O.",
"O.{ h i i G O.O.O.O.O.O.O.O.O.O.",
"O.{ h i i F O.O.O.O.O.O.O.O.O.O.",
"O.{ j i i F O.O.O.O.O.X.} O.O.O.",
"O.( d - , M O.O.O.O.O.` N _ O.O.",
"[ v % $ o : E ........_ 8 e ` O.",
"Y @ u u u   > 9 q q q 0 6 3 r ` ",
"c X u u u u + 1 2 2 2 2 3 3 5 B ",
"v . u u u u O < 4 4 4 4 3 3 w ) ",
"R * t u u t ; V Z Z S C 7 7 ~ O.",
" .T = # # * U o.O.O.O.} e D O.O.",
"O.| Q m n W | O.O.O.O...! ..O.O."
};
