/* XPM */
static char *Sketcher_Element_Arc_StartingPoint_svg[] = {
/* columns rows colors chars-per-pixel */
"16 16 89 1 ",
"  c #03BB7B2203BB",
". c #430468884304",
"X c #782663A460B6",
"o c #72A7739C72A7",
"O c #754A71A6711E",
"+ c #7DB47D9A7DB4",
"@ c #BAAA29D11514",
"# c #9FC7383F295C",
"$ c #E0941FF305D3",
"% c #E15C222206BA",
"& c #F80022D20504",
"* c #E3D2379E1EFB",
"= c #D46740272AEE",
"- c #D31245F831B5",
"; c #FFFF484D2D53",
": c #E46D481D31BD",
"> c #F63150EF3957",
", c #997455924CBA",
"< c #A92F68285ED0",
"1 c #83186A2066FE",
"2 c #84B77BE27AA3",
"3 c #A4AA7C6976A1",
"4 c #CD1668D55A6A",
"5 c #D37B648654A0",
"6 c #E3956A1A58A5",
"7 c #F9FF6AFA567A",
"8 c #FA857CE26AE2",
"9 c #0AC68F9A0AC6",
"0 c #103D8725103D",
"q c #1E7487401E74",
"w c #3E7084063E70",
"e c #4FF599674FF5",
"r c #4E1CA14F4E1C",
"t c #66819D9F6681",
"y c #7C7A93337C7A",
"u c #7C1BA8137C1B",
"i c #708BBFC2708B",
"p c #C93C831E79BF",
"a c #859C8580859C",
"s c #891B899889AA",
"d c #8E948F918FB5",
"f c #970C9593970C",
"g c #999A999A999A",
"h c #86A0A34C86A0",
"j c #9710B7BD9710",
"k c #A1D2A220A22C",
"l c #A3EAA6C7A730",
"z c #AC1AAD83ADB6",
"x c #B004B004B004",
"c c #BF36A8ECA5B7",
"v c #B4A0B4A0B4A0",
"b c #B855B855B855",
"n c #CEEE8D75841B",
"m c #D05BA63BA029",
"M c #D1FAA7FDA1F5",
"N c #D69FB048AACD",
"B c #C9B6B407B0ED",
"V c #AAC2C11CAAC2",
"C c #B845C9BAB845",
"Z c #C250C250C250",
"A c #C3D5C3D5C3D5",
"S c #C7D3C969C99D",
"D c #C97FC97BC97B",
"F c #CF05CDB2CF05",
"G c #DDE7C607C2C6",
"H c #DEB9C952C637",
"J c #D74FCB45C98F",
"K c #CEE5D0F6D141",
"L c #D0F1D0F1D0F1",
"P c #D310D310D310",
"I c #D800D800D800",
"U c #DDEFDC52DDEF",
"Y c #DD34DD34DD34",
"T c #E911DD90DBF6",
"R c #E005E483E005",
"E c #E451E451E451",
"W c #E613E452E613",
"Q c #EC86E425E2F2",
"! c #E844EC1FE844",
"~ c #EA53EA82EA87",
"^ c #ED18ED18ED18",
"/ c #ECA2EF0BECA2",
"( c #F2B7EFEAEF81",
") c #F209F206F206",
"_ c #F462F4BBF462",
"` c #F64AF69BF64A",
"' c #F9A8F9A8F9A8",
"] c #FCB5FCDEFCE5",
"[ c #FFFDFFFEFFFE",
/* pixels */
"[`R_[[[[[[[[[[[[",
"/uet![[[[[[[[[[[",
"Vri0hU/[[[[[[[[[",
"Cq9 yFLP^[[[[[[[",
"`jw.o+gDPY'[[[[[",
"[[WfazbgvPI[[[[[",
"[[[/E'[`FAPU[[[[",
"[[[[[[[[[EPAW[[[",
"[[[[[[[[[[IFx'[[",
"[[[[[[[[[[)FlK[[",
"`NnG[[[[[[[c<3`[",
"M67=J][[[[T58*m[",
"p>;%1S[[[[G:>&,I",
"H-$#Ok[[[[(4%@Xz",
"[QBssS[[[[[)c2dI",
"[[[~W'[[[[[[[W!["
};
