/* XPM */
static char *Sketcher_Element_Circle_Edge_svg[] = {
/* columns rows colors chars-per-pixel */
"16 16 125 2 ",
"   c #0A056BEB0A05",
".  c #087A6FAE087A",
"X  c #0F386AC30F38",
"o  c #0D0F6F1D0D0F",
"O  c #040F752B040F",
"+  c #04CF742C04CF",
"@  c #06A978EF06A9",
"#  c #095F705C095F",
"$  c #09A37BF709A3",
"%  c #0CA87B1D0CA8",
"&  c #11CE675F11CE",
"*  c #196A6888196A",
"=  c #11E379B611E3",
"-  c #14157BE11415",
";  c #169A780C169A",
":  c #18247DD61824",
">  c #2A305EA82A30",
",  c #32C15F6C32C1",
"<  c #3AB05F763AB0",
"1  c #3F385F0D3F38",
"2  c #270162772701",
"3  c #29C063E329C0",
"4  c #2D4164822D41",
"5  c #23C37BEC23C3",
"6  c #3CEC6ABE3CEC",
"7  c #756643CA3C9F",
"8  c #43CB5F6B43CB",
"9  c #4B357FFD4B35",
"0  c #52CC63B352CC",
"q  c #53A766C453A7",
"w  c #576562555765",
"e  c #5E2565285E25",
"r  c #5C416A365C41",
"t  c #70906AFA6A27",
"y  c #6BD7770C6BD7",
"u  c #736275337362",
"i  c #776F778A776F",
"p  c #7A5A7A7C7A5A",
"a  c #92FD38E12BD9",
"s  c #EF801DAF004D",
"d  c #EAD321F90554",
"f  c #CDB83BFC288F",
"g  c #FFFF42FC2812",
"h  c #E3E84E193895",
"j  c #928F63D15D0E",
"k  c #D06466EF583F",
"l  c #E068678F5647",
"z  c #FF9F778763BC",
"x  c #1E8480AF1E84",
"c  c #236D830E236D",
"v  c #2635822F2635",
"b  c #26ED859126ED",
"n  c #35588B3E3558",
"m  c #3E248D5B3E24",
"M  c #424590B54245",
"N  c #4A3C93734A3C",
"B  c #4B6F94C94B6F",
"V  c #504994255049",
"C  c #51D495F851D4",
"Z  c #5E26994D5E26",
"A  c #5E9E9D7A5E9E",
"S  c #63C59DA063C5",
"D  c #7AB89FC07AB8",
"F  c #6B7BA07F6B7B",
"G  c #6B93A27B6B93",
"H  c #76C7A65E76C7",
"J  c #78E2A72D78E2",
"K  c #7FCDACC57FCD",
"L  c #CD35845979D6",
"P  c #D06789427F09",
"I  c #843E8220843E",
"U  c #928A9451928A",
"Y  c #93229C9E9322",
"T  c #96449B349644",
"R  c #8D4BB2598D4B",
"E  c #9081A5719081",
"W  c #9FC4AB289FC4",
"Q  c #9B5ABB3C9B5A",
"!  c #A4F0A37EA4F0",
"~  c #ACACAA92ACAC",
"^  c #AECDAD9CAECD",
"/  c #A070BD4AA070",
"(  c #B2B4B3D0B2B4",
")  c #B1C5B497B4FF",
"_  c #BAEBB8AEBAEB",
"`  c #BEEDBD23BEED",
"'  c #D1909F8C986A",
"]  c #A4E8C075A4E8",
"[  c #B168C668B168",
"{  c #B567C8BBB567",
"}  c #B680C9C4B680",
"|  c #BE2BCE05BE2B",
" . c #C07EBEE3C07E",
".. c #C0F4C44DC0F4",
"X. c #C643C76EC797",
"o. c #C112CEAAC112",
"O. c #CE81CD51CE81",
"+. c #CFAED017D027",
"@. c #DE62C68EC324",
"#. c #DFB2C96EC635",
"$. c #C593D359C593",
"%. c #CB3AD637CB3A",
"&. c #CDD8D857CDD8",
"*. c #D142D0A4D142",
"=. c #D2C9D26ED2C9",
"-. c #D63ED4A5D63E",
";. c #D27BDC21D27B",
":. c #D64DDE05D64D",
">. c #DCFADBEDDCFA",
",. c #DDA8E040E09F",
"<. c #E31CE43AE31C",
"1. c #E3D4E3BAE3D4",
"2. c #E759E4D9E475",
"3. c #E778E760E778",
"4. c #E9A2E611E58F",
"5. c #E9F3EBF3E9F3",
"6. c #EAF4ED52EAF4",
"7. c #ED4DEC9AED4F",
"8. c #F157F1BBF157",
"9. c #F4E8F499F4E8",
"0. c #F5E3F68FF6A9",
"q. c #F8A9F813F8A9",
"w. c #FB7CFB97FB96",
"e. c #FC7BFC7CFC7B",
"r. c #FFFDFFFAFFFD",
/* pixels */
"r.r.r.r.r.<.| [ &.8.r.r.r.r.r.r.",
"r.r.r.;.G b % % : M / 9.r.r.r.r.",
"r.r.[ c # 3 1 8 , & @ S 6.r.r.r.",
"r.$.x * w I ~  ._ U 6 O G q.r.r.",
"9.C X e ^ 7.r.r.r.e.-.9 % } r.r.",
"o.- < ~ w.w.#.@.9.r.r.&.: Z w.r.",
"R # y 7.r.' l h P r.r.q.N 5 <.r.",
"H   T r.9.k z g f 2.r.e.A o ..r.",
"R . W r.r.L d s a X.r.9.B & ( r.",
"o.= D r.r.4.j 7 t -.r.:.x 2 ` r.",
"9.V c :.r.r.,.) +.r.9.G O q >.r.",
"r.o.; m %.r.r.r.r.5.J % > U q.r.",
"r.r.E X : S Q / R n O 2 u >.r.r.",
"r.r.8.Y 4   . O O * 8 p =.r.r.r.",
"r.r.r.w...I r 0 w u ! <.r.r.r.r.",
"r.r.r.r.r.9.>.O.*.3.w.r.r.r.r.r."
};
