/* XPM */
static char *Sketcher_AlterFillet_sm[] = {
/* columns rows colors chars-per-pixel */
"16 16 95 2 ",
"   c #2E152E2F2E2F",
".  c #532054335433",
"X  c #686567896789",
"o  c #92882AC22AC2",
"O  c #A3A1263B263B",
"+  c #BE2B3B083B08",
"@  c #E9061C961C96",
"#  c #EE191EFA1EFA",
"$  c #CC94258B258B",
"%  c #C9D32FAA2FAA",
"&  c #CD1037743774",
"*  c #FF1829642964",
"=  c #E395393F393F",
"-  c #F6873B923B92",
";  c #9004497E497E",
":  c #9CF946C546C5",
">  c #89C4655D655D",
",  c #98567CF47CF4",
"<  c #A12A7BC47BC4",
"1  c #BE3D7E217E21",
"2  c #C6E848D848D8",
"3  c #CDB749594959",
"4  c #D612491F491F",
"5  c #DF955C385C38",
"6  c #E69C4F854F85",
"7  c #F2004FC94FC9",
"8  c #E35C5B725B72",
"9  c #D86A72527252",
"0  c #D99477E477E4",
"q  c #D8177AC57AC5",
"w  c #8C698B068B06",
"e  c #8FFA8E438E43",
"r  c #97F184E384E3",
"t  c #9A9799579957",
"y  c #99C49C0C9C0C",
"u  c #AB0C80628062",
"i  c #B18487FC87FC",
"p  c #A5DA9D3B9D3B",
"a  c #B3F991BB91BB",
"s  c #A203A203A203",
"d  c #A300A5B9A5B9",
"f  c #A79EA65DA65D",
"g  c #AD9EADA0ADA0",
"h  c #B1E9A859A859",
"j  c #BEFEAD51AD51",
"k  c #AC81B07BB07B",
"l  c #B19DB407B407",
"z  c #B84FB99EB99E",
"x  c #BB60BB61BB61",
"c  c #BD1CBD30BD30",
"v  c #BD73BE6EBE6E",
"b  c #C3BC85508550",
"n  c #DD5287698769",
"m  c #C923940D940D",
"M  c #E7F8852D852D",
"N  c #DDBAA81CA81C",
"B  c #C4E0B521B521",
"V  c #CA17B28EB28E",
"C  c #E251A5D6A5D6",
"Z  c #E49FBF86BF86",
"A  c #F007C032C032",
"S  c #BFDFC092C092",
"D  c #C47CC5E6C5E6",
"F  c #CC04CE78CE78",
"G  c #CF4ECF4ECF4E",
"H  c #D636C804C804",
"J  c #D52BCB9CCB9C",
"K  c #DA47CAD6CAD6",
"L  c #D23ED33AD33A",
"P  c #D450D539D539",
"I  c #D634D634D634",
"U  c #DE19D0CCD0CC",
"Y  c #DEBCDEDCDEDC",
"T  c #E7B0C272C272",
"R  c #E5D7C60EC60E",
"E  c #E9CDD0ADD0AD",
"W  c #E49FD961D961",
"Q  c #EC99DB56DB56",
"!  c #E447E6AAE6AA",
"~  c #E7BFE7CCE7CC",
"^  c #E8DBE611E611",
"/  c #E9E1EA4BEA4B",
"(  c #EFD9F033F033",
")  c #F7F6E6BFE6BF",
"_  c #F375E94BE94B",
"`  c #EFBBF17CF17C",
"'  c #F1D9F25CF25C",
"]  c #F715F089F089",
"[  c #F766F3F7F3F7",
"{  c #F6E0F735F735",
"}  c #FBC0F5E6F5E6",
"|  c #F99EF99DF99D",
" . c #FAB5FCE3FCE3",
".. c #FCCCFCEBFCEB",
"X. c #FFFEFFFFFFFF",
/* pixels */
"X.X.X.X.X.X.X.[ Q } X.X.X.X.X.X.",
"X.X.X.X.X.X.| 9 6 1 l ' X.X.X.X.",
"X.X.X.X.X.X.^ % * o   v X.X.X.X.",
"X.X.X.X.X.' L a : , . x X.X.X.X.",
"X.X.X.X.W B S v k D x y Y X.X.X.",
"X.X.X.! b 4 r v ^ I j u t ^ X.X.",
"_ Z H F < $ i l I  .N = < d ( X.",
"q 7 + e w V } { D ! ) 8 m f p / ",
"0 # O X G X.X.X.( z / { U 3 2 > ",
"[ R h l { X.X.X.T , x X.E @ - ; ",
"X.X.X.X.X.| {  .M & J X.| C n K ",
"X.X.X.X.X.I g  .A 5 ) X.X.X.X.X.",
"X.X.X.X.X.G s } | [ X.X.X.X.X.X.",
"X.X.X.X.X.{ ( X.X.X.X.X.X.X.X.X.",
"X.X.X.X.X.X.X.X.X.X.X.X.X.X.X.X.",
"X.X.X.X.X.X.X.X.X.X.X.X.X.X.X.X."
};
