/* XPM */
static char *Sketcher_MapSketch_sm[] = {
/* columns rows colors chars-per-pixel */
"16 16 167 2 ",
"   c #06D51FC57318",
".  c #000029B17E37",
"X  c #00002B5A7FDD",
"o  c #0DA3363F769E",
"O  c #00003A6D7D40",
"+  c #3C3154F76B20",
"@  c #3C7C419771BF",
"#  c #39354EE27B0A",
"$  c #2D195EC27AA7",
"%  c #3EA1602379DA",
"&  c #741F5BD562CA",
"*  c #516D62397216",
"=  c #6F1D68C172BF",
"-  c #7852695E708F",
";  c #704672237B03",
":  c #BA8F79D67162",
">  c #E1F86ADE5B03",
",  c #FFFF6B665785",
"<  c #CDFE731A6706",
"1  c #C06076CE6D13",
"2  c #C5D778206DE8",
"3  c #C5F77BA0720A",
"4  c #C2A27DA67487",
"5  c #CB257A93700A",
"6  c #FFFF7E376DB7",
"7  c #EBF8865A78C5",
"8  c #FBD885C87607",
"9  c #FE8987497767",
"0  c #00002E769483",
"q  c #000033A994E9",
"w  c #0000383995A9",
"e  c #0000395497B0",
"r  c #00003ACD9A09",
"t  c #13B630EB90C0",
"y  c #1F273C36979B",
"u  c #158838F19EF1",
"i  c #1BF53B9B9A82",
"p  c #18BB3A199C47",
"a  c #05BD3DFDA31F",
"s  c #000032EDADCC",
"d  c #02853508ACBF",
"f  c #00003A6FB05E",
"g  c #000041108B68",
"h  c #000042358FDB",
"j  c #095A4C898B42",
"k  c #00004153956D",
"l  c #00004492941A",
"z  c #00004AF89796",
"x  c #000040D79C1E",
"c  c #050556DA9141",
"v  c #00005EE0948B",
"b  c #2DB550559928",
"n  c #2D7A5AF69BD1",
"m  c #39A9525B946B",
"M  c #00004970A377",
"N  c #00004552AB34",
"B  c #083349EFAB80",
"V  c #00005263A1BA",
"C  c #00005B6EA293",
"Z  c #0000538EA942",
"A  c #00005C08A9A4",
"S  c #13B35AA0A6AE",
"D  c #293A6236A0AD",
"F  c #453753968F7A",
"G  c #691176798403",
"H  c #6D1F716E9327",
"J  c #4FD473A3A151",
"K  c #6D387900A378",
"L  c #00004E56C706",
"P  c #00005EE5CCDC",
"I  c #00004BD2D3EC",
"U  c #0000468BDA7B",
"Y  c #00004717DBA2",
"T  c #0000485ADDE2",
"R  c #000050D3DA9D",
"E  c #00005262DDA8",
"W  c #00005871DA0F",
"Q  c #00005927DAF6",
"!  c #00005A54DCF2",
"~  c #00005B6EDEE6",
"^  c #00006A14D185",
"/  c #00007F8CDCEB",
"(  c #0000691CE899",
")  c #00007169E78B",
"_  c #000077E4E710",
"`  c #7CDB85838F15",
"'  c #7E6F8E25955C",
"]  c #7D74881CA5C0",
"[  c #00008734F013",
"{  c #8677852D8525",
"}  c #82268AE8943A",
"|  c #96C091BD953A",
" . c #97E696529750",
".. c #982F9BDCB5C8",
"X. c #ADAAAC85AC71",
"o. c #B83CAD11ABB8",
"O. c #BC3CAC97AAA3",
"+. c #A116A3A2B956",
"@. c #B2D0B07BB161",
"#. c #BDEDBD0DBD0D",
"$. c #FFFF8FF580B3",
"%. c #FFFF955D8655",
"&. c #FFFF9C2F8F12",
"*. c #EFABA1F69786",
"=. c #E1F0A1A798DA",
"-. c #F0A4A5C39B9F",
";. c #FFFFA8929C38",
":. c #C980AB55A766",
">. c #C740ADA3AA2D",
",. c #C04BB1E6B012",
"<. c #CFC9BEA2BC6A",
"1. c #FFF5AE39A2C3",
"2. c #FFFFB1CAA72E",
"3. c #FB8BB36DA9D5",
"4. c #FFFFB414A9C7",
"5. c #FF45B71BACD7",
"6. c #FFFFB945B01F",
"7. c #EC79BDA3B771",
"8. c #FFFFBB4DB156",
"9. c #FEA3BCE9B3A5",
"0. c #FE33BD18B474",
"q. c #F06AC27BBC62",
"w. c #FFFFC603BE32",
"e. c #B1E1B3E0C66E",
"r. c #B459B5EFC6BA",
"t. c #BA76BA0DC8C4",
"y. c #C9B5CB30CAF4",
"u. c #C72FC61AD19D",
"i. c #C9B6C927D3BA",
"p. c #CCE4CC2FD5E8",
"a. c #CFF2CF14D7DB",
"s. c #D092D142D19D",
"d. c #D701D66AD637",
"f. c #D31FD222DA1A",
"g. c #D639D536DC6B",
"h. c #D767D78FE018",
"j. c #D954D84FDEE0",
"k. c #D9B6D92CD92C",
"l. c #DD4CDCD4DCD5",
"z. c #E737CAAEC707",
"x. c #FFFFD00FC9A9",
"c. c #FFFFD47ACEAF",
"v. c #EB46DAE8D7B0",
"b. c #D9A6E038E118",
"n. c #E232DFCDE567",
"m. c #E1FCE1D4E1DC",
"M. c #E700E2B9E228",
"N. c #E33FE16DE690",
"B. c #E5DCE733E76C",
"V. c #E77DE64DE939",
"C. c #E8DFE795EB4D",
"Z. c #E7F5E937E96D",
"A. c #EA71EC1AEC5D",
"S. c #E917E8ECED67",
"D. c #EC9DEBA4EEAD",
"F. c #ED3CED02ED02",
"G. c #EC8EEE8DEED6",
"H. c #FA62EF69EDDE",
"J. c #EEB3F14BF1AC",
"K. c #FFFFF54AF3DB",
"L. c #F94DF72EF814",
"P. c #FFFFF796F647",
"I. c #FFFFF957F82D",
"U. c #FAEBFAC3FAB5",
"Y. c #FC4BFC53FD1F",
"T. c #FCE3FDC2FDE1",
"R. c #FFFDFFFAFFF9",
/* pixels */
"R.R.R.R.R.L.n.u.N.R.R.R.R.R.R.R.",
"R.R.Y.t.] J D S n K r.C.R.R.R.R.",
"F.d.V.# O A / [ _ P B b K e.V.R.",
"d.X.@.+ v C z Z ^ ) ( W f   @ h.",
"k.d.U.s.' $ c V l r N q 0 s t u.",
"l.s.R.P.9.=.| % j z 0 L R T u i.",
"m.<.I.4.7 -.;.v.* l r ! E U u p.",
"B.< $.6 z.b.c.5.G h e ! E U p a.",
"V.5 q.8 9 0.P.1.= h e W W U p f.",
"A.2 >.7.4.;.x.4.& l e W E U i g.",
"F.3 :.M.2.&.1.%.- h w W E U i j.",
"J.4 *.H.K.&., 8.` g w W E U y l.",
"U.,.1 7 4.w.6.R.} g q W I d F S.",
"R.R.m.O.: > 3.y.; o . a m ..V.R.",
"R.R.R.Y.Z.#.o.{  .t.H +.D.R.R.R.",
"R.R.R.R.R.R.Z.#.F.R.R.R.R.R.R.R."
};
