/* XPM */
static char *Sketcher_Create3PointArc_sm[] = {
/* columns rows colors chars-per-pixel */
"16 16 89 1 ",
"  c #782663A460B6",
". c #746B72DE72A7",
"X c #7D847DAE7DB3",
"o c #BAAA29D11514",
"O c #95CE3EBF3242",
"+ c #E2851EF303BB",
"@ c #CBBE2C4015F5",
"# c #E15C222206BA",
"$ c #E35A25DD0C9C",
"% c #F80022D20504",
"& c #FEF9221A034A",
"* c #FFFF29970AC6",
"= c #E6F92D8812E8",
"- c #EE792AB1103D",
"; c #E17936F21E74",
": c #BFF34EB63E70",
"> c #E46D481D31BD",
", c #88C64BC14304",
"< c #997455924CBA",
"1 c #9D3C613D589B",
"2 c #A92F68285ED0",
"3 c #84B77BE27AA3",
"4 c #A4AA7C6976A1",
"5 c #E0945B964882",
"6 c #FFFF587F3FD3",
"7 c #C42860B85259",
"8 c #CD1668D55A6A",
"9 c #D37B648654A0",
"0 c #D8D061214FF5",
"q c #E8A261854E1C",
"w c #FFFF6B0F556B",
"e c #F6E46E4D5A5C",
"r c #CC6972C965ED",
"t c #CD2773686681",
"y c #FA857CE26AE2",
"u c #A6C081C87C7A",
"i c #CE1186687C1B",
"p c #FFFF82E5708B",
"a c #85688596859C",
"s c #8E948F918FB5",
"d c #94368700850F",
"f c #944E96B4970C",
"g c #9B859C789C9C",
"h c #A43886B18274",
"j c #BC3A8D2C86A0",
"k c #A3EDA6CAA732",
"l c #AB7EAB7BAB7B",
"z c #ACD4ADC8ADE9",
"x c #B5C1A5C2A36F",
"c c #BF36A8ECA5B7",
"v c #B03FB03EB03E",
"b c #B68EB9B1BA25",
"n c #C64A93298BD4",
"m c #D3C19EB99710",
"M c #C155ABD5A8BF",
"N c #D05BA63BA029",
"B c #D4C1AAA0A49B",
"V c #D478AFF8AAC2",
"C c #D38BBB44B805",
"Z c #D8B0BC4CB845",
"A c #CC8ECEB6CF05",
"S c #CFD4CFCECFCD",
"D c #DDE7C607C2C6",
"F c #CEE5D0F6D141",
"G c #D2DBD3B1D3CF",
"H c #D085D481D505",
"J c #D51CD512D510",
"K c #DAECDD91DDEF",
"L c #DFF9DFF9DFF9",
"P c #E47FD4E4D2A0",
"I c #E153DB85DAAB",
"U c #E911DD90DBF6",
"Y c #E86EE10FE005",
"T c #E451E451E451",
"R c #E2C5E5ABE613",
"E c #E5F9E6A0E6B8",
"W c #EF6DE929E844",
"Q c #E99CE999E999",
"! c #EDE0EDDEEDDE",
"~ c #EFDCEFDDEFDD",
"^ c #F128ED36ECA2",
"/ c #F2B7EFEAEF81",
"( c #F3E3F132F0CD",
") c #F4D4F3A0F375",
"_ c #F6CFF60CF5EB",
"` c #F9A8F9A8F9A8",
"' c #FCDDFD5AFD6D",
"] c #FD11FE00FE23",
"[ c gray100",
/* pixels */
"[_Y_[[[[[[[[[[[[",
"^i0rW[[[[[[[[[[[",
"Vqp-jK~[[[[[[[[[",
"Z;*+uASGKP([[[[[",
"_m:,.Xgx75t^[[[[",
"[[Rfalb1ew$C[[[[",
"[[[~T`[B=&@d_[[[",
"[[[[[[[_nOhzL[[[",
"[[[[[[[[_bgFz`[[",
"[[[[[[[[[[~SkF[[",
"[[[[[[[[[[[c24_[",
"[[[[[[[[[[U9y;N[",
"[[[[[[[[[[D>6%<H",
"[[[[[[[[[[~8#o z",
"[[[[[[[[[[[^M3sJ",
"[[[[[[[[[[[[[EQ["
};
