/* XPM */
static char *Sketcher_ConstrainParallel_sm[] = {
/* columns rows colors chars-per-pixel */
"16 16 34 1 ",
"  c yellow",
". c #FFFFFFFF04C8",
"X c #FFFFFFFF0D22",
"o c #FFFFFFFF18A5",
"O c #FFFFFFFF1F5E",
"+ c #FFFFFFFF240B",
"@ c #FFFFFFFF335B",
"# c #FFFFFFFF3928",
"$ c #FFFFFFFF3B6F",
"% c #FFFFFFFF42CA",
"& c #FFFFFFFF4923",
"* c #FFFFFFFF506C",
"= c #FFFFFFFF5E86",
"- c #FFFFFFFF6007",
"; c #FFFFFFFF6D9F",
": c #FFFFFFFF77EB",
"> c #FFFFFFFF7819",
", c #FFFFFFFF7CA4",
"< c #FFFFFFFF823F",
"1 c #FFFFFFFF87A1",
"2 c #FFFFFFFF88F1",
"3 c #FFFFFFFF8C31",
"4 c #FFFFFFFF99D0",
"5 c #FFFFFFFFB672",
"6 c #FFFFFFFFCD1B",
"7 c #FFFFFFFFDC8D",
"8 c #FFFFFFFFDD9C",
"9 c #FFFFFFFFE42B",
"0 c #FFFFFFFFE822",
"q c #FFFFFFFFEDBB",
"w c #FFFFFFFFF31B",
"e c #FFFFFFFFF6FB",
"r c #FFFFFFFFFA13",
"t c gray100",
/* pixels */
"ttt>    .+;7tttt",
"ttt> @-=*O %7ttt",
"ttt: 2tre6# <ttt",
"ttt: 2tttt4 &wtt",
"ttt: 3tttt5X#qtt",
"ttt: 3tttt4 &wtt",
"ttt: 2tre6$ <ttt",
"ttt> @==*O #7ttt",
"ttt> XooO#>7tttt",
"ttt: ,090qtttttt",
"ttt: 3tttttttttt",
"ttt: 3tttttttttt",
"ttt: 3tttttttttt",
"ttt: 2tttttttttt",
"ttt1o4tttttttttt",
"tttq7wtttttttttt"
};
