/* XPM */
static char *Sketcher_SelectConstraints_sm[] = {
/* columns rows colors chars-per-pixel */
"16 16 97 2 ",
"   c #150E72DA150E",
".  c #202073862020",
"X  c #21CA74D321CA",
"o  c #29CB7B1329CB",
"O  c #2AF17D852AF1",
"+  c #2E977BA62E97",
"@  c #34687EEB3468",
"#  c #FA462E931170",
"$  c #FEA031AC16CF",
"%  c #DB5251F33E48",
"&  c #C7FE59044914",
"*  c #EE615735417F",
"=  c #E8D459124449",
"-  c #E22F5FAD4CEF",
";  c #DC85668B558C",
":  c #D8116A3F5C4B",
">  c #D9E76BFF5C37",
",  c #3481821C3481",
"<  c #39EF833839EF",
"1  c #437484E34374",
"2  c #4451875B4451",
"3  c #46EB89AC46EB",
"4  c #4CF186924CF1",
"5  c #498C8AE0498C",
"6  c #557188B35571",
"7  c #582594755825",
"8  c #5AE795CB5AE7",
"9  c #5C54966D5C54",
"0  c #66DB9C1366DB",
"q  c #69309D7C6930",
"w  c #786A9EED786A",
"e  c #7D01A2B57D01",
"r  c #7ED6A66B7ED6",
"t  c #7FE1A8657FE1",
"y  c #D93C88037C54",
"u  c #829F9EA7829F",
"i  c #836AA204836A",
"p  c #8015A8B38015",
"a  c #861CA854861C",
"s  c #8C66AB128C66",
"d  c #93D8AED193D8",
"f  c #907EB155907E",
"g  c #91BAB18B91BA",
"h  c #AA16BA8CAA16",
"j  c #ABA4BC3DABA4",
"k  c #AB9BBE4BAB9B",
"l  c #DABC8D278208",
"z  c #D52292BA8939",
"x  c #C0E6A3D69FBB",
"c  c #E129AD79A612",
"v  c #B0ACC1E1B0AC",
"b  c #B3BFC2F3B3BF",
"n  c #B81BC7F6B81B",
"m  c #B9ACC5EAB9AC",
"M  c #BF7ACCC9BF7A",
"N  c #E165C219BD8F",
"B  c #CAF3CD16CD60",
"V  c #CF62CF63CF63",
"C  c #C1C9D0CDC1C9",
"Z  c #C2EFD140C2EF",
"A  c #C3F0D218C3F0",
"S  c #CBF4D26CCBF4",
"D  c #CDE1D7DCCDE1",
"F  c #CFDFD9ACCFDF",
"G  c #CF77D0AFD0DC",
"H  c #D10BD6EFD10B",
"J  c #DD9AD404D2A8",
"K  c #D1EADB16D1EA",
"L  c #D4DDDBD9D4DD",
"P  c #D8B0DDC2D8B0",
"I  c #DC7FDEE6DC7F",
"U  c #E29CC6E5C2E3",
"Y  c #E5B4C9B6C5AA",
"T  c #E819CE21CA5E",
"R  c #DCCCE291DCCC",
"E  c #DFE2E54DDFE2",
"W  c #EDBCE149DF85",
"Q  c #E0A1E3E0E0A1",
"!  c #E375E4D5E375",
"~  c #E396E84BE396",
"^  c #E785E7B2E7B9",
"/  c #E9E3E1E3E0BE",
"(  c #EF28E5E4E493",
")  c #EB3AED40EB3A",
"_  c #F026F04CF026",
"`  c #F225ECB5EBE4",
"'  c #F2A8EC90EBAD",
"]  c #F39BEE94EDC7",
"[  c #F346F353F355",
"{  c #F392F392F392",
"}  c #F593F5C6F593",
"|  c #F841F757F737",
" . c #F91CF795F91C",
".. c #FB50F9DEFB50",
"X. c #FD0CFAF5FD0C",
"o. c #FB46FDE3FE2A",
"O. c #FF5EFFFFFFFF",
/* pixels */
"O.] ( O.O.O.O.O.O.O.O.O.L D O.O.",
"W l - c O.O.O.O.O.O.O.K < w X.O.",
"U = $ : o.O.O.O.O.O.F , 8 P a M ",
"| z & N O.O.O.O.O.D , 8 P q o M ",
"O.! B { O.) Q O.P @ 9 R 0 O Z O.",
"O.! G { O.s 6 ..E s L 0 O Z O.O.",
"O.^ G { O.t 2  .O.O.d + Z O.O.O.",
"O.! V { O.p 2  .O.O.! L O.O.O.O.",
"O.^ V { O.t 2  .O.O.O.O.O.O.O.O.",
"O.^ V { O.t 2  .O.O.O.O.O.O.O.O.",
"O.! B { O.r 1 | O.H m X.O.O.m S ",
"O.^ G { O.k i ..O.n . g _ g X v ",
"O.J x / O.O.X.O.O.| w   u   e | ",
"' y * > | O.O.O.O.E 3 , h + 3 R ",
"' ; # % { O.O.O.O.v 4 K O.K 4 h ",
"O.T l Y O.O.O.O.O.! ! O.O.O.! ! "
};
