/* XPM */
static char *Sketcher_Sketch_sm[] = {
/* columns rows colors chars-per-pixel */
"16 16 87 1 ",
"  c #FFFF2E1912F7",
". c #FFFF34CB19B7",
"X c #FFFF3B66212E",
"o c #FFFF3C79226A",
"O c #DEE54CC0393C",
"+ c #FFFF43422A19",
"@ c #FFFF47672ED1",
"# c #EFA54F9B3A2F",
"$ c #FFFF4AD632AC",
"% c #FFFF4B573340",
"& c #F4B2547B3F0F",
"* c #FFFF4FDC3868",
"= c #FFFF511A3A19",
"- c #FFFF53023BEA",
"; c #FFA954AE3D8E",
": c #86D37EC67DA5",
"> c #FFFF59314303",
", c #FFFF59D244AF",
"< c #FFFF5CAE46DA",
"1 c #FFFF5E8A490F",
"2 c #FFFF602B4AC7",
"3 c #FFFF61954C46",
"4 c #FFFF64764F81",
"5 c #FFFF657951CF",
"6 c #FFFF68DE54C0",
"7 c #FFFF6BCE57D4",
"8 c #FFFF6E185AB1",
"9 c #FFFF72215F2A",
"0 c #FFFF74C86237",
"q c #FFFF77FB660A",
"w c #FFFF79E8688A",
"e c #890A80E47FC2",
"r c #FFFF83BA73E8",
"t c #FF6D87B077B4",
"y c #FFFF8C857D42",
"u c #7F807FF88009",
"i c #82D683518362",
"p c #8BDF8F268F96",
"a c #A3329AFB99DA",
"s c #A688A87AA8BD",
"d c #ADCDADCDADCD",
"f c #B3C3B3EEB3F3",
"g c #FFFF97568997",
"h c #FFFF9B3B8E42",
"j c #FFFF9F239233",
"k c #FFFFA6289A32",
"l c #FFFFA9DD9E6B",
"z c #C2FFBAFFB9E5",
"x c #F54BAE54A4D0",
"c c #FFFFB0FCA675",
"v c #FFFFB20EA790",
"b c #FFFFB3B3A988",
"n c #FFFFB5ABABDF",
"m c #FDFAB82DAEDE",
"M c #FFFFB865AED8",
"N c #FFFFB9C9B06C",
"B c #FFFFBE16B556",
"V c #FFFFC234B9F8",
"C c #FFFFC439BC40",
"Z c #FFFFC6B4BF1C",
"A c #C930CCECCD69",
"S c #DC8DCC53CA2A",
"D c #D0F6D0F6D0F6",
"F c #E042D902D802",
"G c #DD39DA27D9A2",
"H c #FFFFC9A7C246",
"J c #FFFFD721D1AD",
"K c #FFFFDBD0D701",
"L c #FFFFDD2FD890",
"P c #E8F5E151E049",
"I c #FC5EE389E00E",
"U c #FFFFE35EDF89",
"Y c #FFFFE71EE3CE",
"T c #F5B1E9D2E818",
"R c #FFFFEAF5E827",
"E c #FFFFEEA2EC4D",
"W c #FFFFF01BEDFA",
"Q c #FFFFF203F02A",
"! c #EE34F09CF0EE",
"~ c #EDF7F1A6F220",
"^ c #FFFFF2E0F115",
"/ c #FFFFF728F5FA",
"( c #FFFFF8E0F7ED",
") c #FE57FADBFA65",
"_ c #FFFFFCD5FC68",
"` c #FC11FCE8FCFD",
"' c #FFFFFFFEFFFE",
/* pixels */
"'''''''_KblVW'''",
"''''''Rt;37;1M''",
"'''''E7OaP/Ek$c'",
"'''''g3S::G''m*L",
"''''^,N~pA`''/5h",
"QVMNk+jmxMBW''tq",
"Bo24< *333Xc''qr",
"n1TG/8y'))7l'U-N",
"n2zi~H$M''8lQ90/",
"m&eif'c$wb>5<8Y'",
"n#:ud''Jy5.-cQ''",
"n<aiD''''(7l''''",
"n2Fs)'''''8l''''",
"n>LIYYYYYU3l''''",
"Z@*-*;;-**+N''''",
")LJJJJJJJJK/''''"
};
