/* XPM */
static char *Sketcher_CreateHeptagon_sm[] = {
/* columns rows colors chars-per-pixel */
"16 16 78 1 ",
"  c #72FB53064E6D",
". c #6CC862F2618A",
"X c #7C7865AC6266",
"o c #718371837183",
"O c #748B748B748B",
"+ c #7B8B7B8B7B8B",
"@ c #7C997C997C99",
"# c #AECA26941309",
"$ c #B2A92FCB1D16",
"% c #E8931C920000",
"& c #C89D29A812F2",
"* c #EA9221070576",
"= c #FC3F22FA041A",
"- c #CA84360120B6",
"; c #D3E83F792A0B",
": c #F21F3E392498",
"> c #D544475332EA",
", c #FFFF47D42CAB",
"< c #F2E0513039F5",
"1 c #B2D9536C4633",
"2 c #C75F57514749",
"3 c #FFFF5B8C434B",
"4 c #D862658B5516",
"5 c #F3A56DE25A99",
"6 c #CF427B0E6EE8",
"7 c #BFC380947773",
"8 c #CE9382AA77DB",
"9 c #FDF8881E772E",
"0 c #82FD82FD82FD",
"q c #8C1785088409",
"w c #8ACB8ACB8ACB",
"e c #8F648F648F64",
"r c #97808BFD8A52",
"t c #922192219221",
"y c #94A494A494A4",
"u c #9DF79BF99BB7",
"i c #BC78A2DC9F3E",
"p c #A1E8A1E8A1E8",
"a c #B00FA354A183",
"s c #A864A864A864",
"d c #ABD6ABD6ABD6",
"f c #AEB1A9B1A8FD",
"g c #AB2AAC36AC5C",
"h c #B43AB43AB43A",
"j c #B5B2B5B2B5B2",
"k c #BBD6BCA3BCC0",
"l c #BDA6BDB0BDB1",
"z c #CF988CC18316",
"x c #C35F9B6A9648",
"c c #D1769A739316",
"v c #D3D7A28F9B76",
"b c #C7F2BD63BBDF",
"n c #C2D4C2D4C2D4",
"m c #C3D9C3D9C3D9",
"M c #C855C855C855",
"N c #CFB4CFB4CFB4",
"B c #DF05C803C4B2",
"V c #D207D207D207",
"C c #D4E9D5E8D60D",
"Z c #D7A4D7A4D7A4",
"A c #D9D4D9D4D9D4",
"S c #DC5FDC5DDC5D",
"D c #E17ECBF7C8D2",
"F c #E210CFDACD3A",
"G c #E3B5D2A8D031",
"H c #E177E227E23F",
"J c #E473E477E478",
"K c #E565E565E565",
"L c #EE13E704E601",
"P c #E72CE89BE8D0",
"I c #EBD4EBD4EBD4",
"U c #ED88ED88ED88",
"Y c #ED59F0D0F146",
"T c #F1D8F1D8F1D8",
"R c #F770F837F853",
"E c #F9CEF9CCF9CC",
"W c #FB6EFD40FD70",
"Q c #FFFAFFFAFFFA",
/* pixels */
"QQQQQEKZNIQQQQQQ",
"QQQIZVAVVVAEWQQQ",
"QQVVVjeo@jZi6zLQ",
"QUVdootnAdq29:8W",
"QAV@jKEQQQb;,=1Y",
"ENjyEQDvGQE7&$XP",
"KVenQB45>GQHfugW",
"VN0IQc<3*xQQVlAQ",
"VVdEQF-%#rQQVnVQ",
"UMZPQQa .kQTNnnQ",
"QZVNEQRVZRTNV@lQ",
"QRnZZTRQQYNV@wIQ",
"QQJMZZVNVNV+eKQQ",
"QQQnwtphnn+eIQQQ",
"QQQRndyw@OtIQQQQ",
"QQQQQQQRUKTQQQQQ"
};
