/* XPM */
static char *Sketcher_Element_MidPoint_sm[] = {
/* columns rows colors chars-per-pixel */
"16 16 107 2 ",
"   c #78933E5D3601",
".  c #00007F930000",
"X  c #0F1E7CE90F1E",
"o  c #67F0517C4E43",
"O  c #68D554C151E2",
"+  c #658B66FD6733",
"@  c #6BF96C6E6C7F",
"#  c #6E8D6E8D6E8D",
"$  c #707372407281",
"%  c #725372387233",
"&  c #78B4758B7519",
"*  c #7BFC7C137C17",
"=  c #B86E26C911D9",
"-  c #9385347526DC",
";  c #D33E1CFC0397",
":  c #D8521E7D03D7",
">  c #DAC41C7D012B",
",  c #DFB81E7C0361",
"<  c #DE2029DD10E3",
"1  c #D4F7354D1F8F",
"2  c #FFFF258A060D",
"3  c #FDBB2D4A0F32",
"4  c #FFFF300511C0",
"5  c #D0623C6A2718",
"6  c #C8174B863996",
"7  c #FFFF4EB13497",
"8  c #A6C65EE75485",
"9  c #B8FA648E5862",
"0  c #8C6270416C44",
"q  c #904D7AD577BB",
"w  c #CAF2537B424A",
"e  c #C5315E264F6F",
"r  c #CF515A4D498C",
"t  c #CDF35E424E57",
"y  c #D1F75528434C",
"u  c #E4BA54763FC8",
"i  c #FFFF61F34B88",
"p  c #FFFF69475340",
"a  c #04508B620450",
"s  c #1DED904F1DED",
"d  c #28DF81A928DF",
"f  c #2A7596C22A75",
"g  c #3E00A7413E00",
"h  c #4B4C8E764B4C",
"j  c #4A019BE44A01",
"k  c #59CE96C759CE",
"l  c #6A7F9CA06A7F",
"z  c #71FBA00171FB",
"x  c #A0AB81F77D8F",
"c  c #FFFF8D217C34",
"v  c #805180518051",
"b  c #85B285DB85E1",
"n  c #88EC87D187A7",
"m  c #8BAF8BAF8BAF",
"M  c #8E938E928E92",
"N  c #92068F7F8F20",
"B  c #951295129512",
"V  c #994D994D994D",
"C  c #9C8E9D9C9DBE",
"Z  c #BD0B8EA787EE",
"A  c #8B2EAD178B2E",
"S  c #92D9B1B892D9",
"D  c #9C6EB80A9C6E",
"F  c #A0F1A0F1A0F1",
"G  c #A741A741A741",
"H  c #AFFFA7E3A6B9",
"J  c #A8C2A8C2A8C2",
"K  c #B016B016B016",
"L  c #A02ABA61A02A",
"P  c #B208B208B208",
"I  c #BC39BC39BC39",
"U  c #BF17BF17BF17",
"Y  c #FF64928F82DC",
"T  c #D0EDA786A191",
"R  c #C343B31DB0D8",
"E  c #D922BF58BB99",
"W  c #8178C5F38178",
"Q  c #BFD8CE0BBFD8",
"!  c #C6B2C6B2C6B2",
"~  c #C81AC941C96D",
"^  c #CBBFCBBFCBBF",
"/  c #CCA0CCA0CCA0",
"(  c #D80EC36DC08A",
")  c #DE63C775C431",
"_  c #CEDDD86BCEDD",
"`  c #DEF1D1C5CFCB",
"'  c #D0B1D0CAD0CE",
"]  c #D5C6D5CDD5CE",
"[  c #D663D663D663",
"{  c #D619DD6BD619",
"}  c #DD1ADD1DDD1E",
"|  c #DFE8E53ADFE8",
" . c #E15DE15DE15D",
".. c #E4B3E4B3E4B3",
"X. c #EAFFE5B8E4F8",
"o. c #EB44EB44EB44",
"O. c #EE99ECE0ECA2",
"+. c #EFAEEFC5EFC7",
"@. c #F10DF10CF10C",
"#. c #F722F722F722",
"$. c #F7F3F690F7F3",
"%. c #F6FEF8C1F901",
"&. c #FADAFADAFADA",
"*. c #FAABFC0CFC3F",
"=. c #FCBFFBD6FCBF",
"-. c #FBC7FCFBFD24",
";. c #FFFAFFFCFFFC",
/* pixels */
";.;.;.;.;.;.#. .[ [ } +.+.+.&.;.",
";.;.;.;.@.^ I ! / ' ~ x e t T -.",
";.;.;.+.I [ &.;.;.;.X.r Y i 1 ` ",
";.;.&.I ..;.o.^ U I H 5 7 4 < ( ",
";.;.[ / ;.} K F b m C 8 : > 9 @.",
";.;.U @.#.P V # q M b % O o n #.",
";.+.U ;.} B % J +.%.@.' b + b @.",
";. ./ ;.! % m @.-.-.;.;.} G ' ;.",
";.[ [ ;.K + U ;.;.;.;.;.;.;.;.;.",
";.^ R ) m @ } ;.;.;.;.;.#.*.;.;.",
";.Z y u - & +.;.;.;.#.S k z | ;.",
"X.w c p , 0 %.;.;.;.L j W s l *.",
"+.w 3 2 ; q *.;.;.;.A f g a h #.",
";.E 6 =   * @.;.;.;._ d . X D ;.",
";.;.o.N % F #.;.;.;.;.{ L Q &.;.",
";.;.;.@.} #.;.;.;.;.;.;.;.;.;.;."
};
