/* XPM */
static char *Sketcher_ProfilesHexagon1_sm[] = {
/* columns rows colors chars-per-pixel */
"16 16 97 2 ",
"   c #6F484F7F121C",
".  c #77FA561E1BC6",
"X  c #FA031E3D0000",
"o  c #D9782E811487",
"O  c #FDAF245A0605",
"+  c #FCA6277808AD",
"@  c #E0563DFD23EF",
"#  c #CF1A47013417",
"$  c #C92B49F13813",
"%  c #D2C343F92FBA",
"&  c #CC7150D53F2E",
"*  c #F384420D28AA",
"=  c #FFFF4A212FEC",
"-  c #CC0758B6484C",
";  c #D573557F431A",
":  c #D1D05BBF4ADF",
">  c #D94B5FD44E96",
",  c #C1D464AD4EB8",
"<  c #C3AE60D950C4",
"1  c #D0ED62FB531B",
"2  c #D7D765A45571",
"3  c #D0BA6B0D5C7C",
"4  c #1F8198311F81",
"5  c #27D997F527A5",
"6  c #20F498C720F0",
"7  c #24599A6B2459",
"8  c #27369B122736",
"9  c #27E59BF327E5",
"0  c #29EA9CE029EA",
"q  c #2D2A9E6E2D2A",
"w  c #32D8A11332D8",
"e  c #3398A17E3398",
"r  c #3900A3F13900",
"t  c #4085A75A4085",
"y  c #478AAAA9478A",
"u  c #49C3ABA249C3",
"i  c #4AACACB24B17",
"p  c #4D90AD574D90",
"a  c #5321A836508B",
"s  c #529DAFAA529D",
"d  c #5DEAB4F45DEA",
"f  c #63E5B7D163E5",
"g  c #68CEB9FE68CE",
"h  c #709DBD81709D",
"j  c #736DBF04736D",
"k  c #7C18C2E07C18",
"l  c #FFFF8CAC7BD7",
"z  c #FF998EB17EC7",
"x  c #D028992B915D",
"c  c #D410A2389AD1",
"v  c #D646B226ACD1",
"b  c #D7FFB462AF8D",
"n  c #D204BB79B37D",
"m  c #968CCF4C968C",
"M  c #9AB6D1109AB6",
"N  c #9D76D2639D76",
"B  c #BE2FC5D7AF15",
"V  c #A676D6AFA676",
"C  c #AB7ED8F5AB7E",
"Z  c #B27BDC35B27B",
"A  c #BA87DA0AB955",
"S  c #BFC5DA62BEFA",
"D  c #BCE1E0FCBCE1",
"F  c #BDEAE177BDEA",
"G  c #DD5DC1C4BDBC",
"H  c #E1C3CBE1C8B8",
"J  c #E277CF57CCDE",
"K  c #E3BAD604D37F",
"L  c #E641D6B7D487",
"P  c #E7D1DB47D97E",
"I  c #C2B5E358C2B5",
"U  c #C402E414C402",
"Y  c #C372E4BBC3D8",
"T  c #C526E498C526",
"R  c #C9CFE6D6C9D4",
"E  c #CD8BE880CD8B",
"W  c #CEBDE920CEBD",
"Q  c #D040E9B7D040",
"!  c #D275EAEDD275",
"~  c #DAD9EECADAD9",
"^  c #DE78F06DDE78",
"/  c #EBACE336E225",
"(  c #EDE5E4FEE3C0",
")  c #F0BDEC07EB69",
"_  c #EBF6F6ACEBF6",
"`  c #EF4EF851EF4E",
"'  c #F3E0F1AAF14F",
"]  c #F51AF570F57B",
"[  c #F661F6FCF717",
"{  c #F964F86CF84A",
"}  c #F3B7FA4EF3B7",
"|  c #F67AFB94F67A",
" . c #FACEFAD7FAD8",
".. c #F8FFFCC2F8FF",
"X. c #FB0BFDB8FB0B",
"o. c #FC38FE3BFC38",
"O. c #FFFBFFFCFFFB",
/* pixels */
"O.O.O.O.O.O.^ k k ^ O.O.O.O.O.O.",
"O.O.O.O.` N r 0 0 r M _ O.O.O.O.",
"O.O.} C r 0 k ~ ~ k 8 t V } O.O.",
"X.I s 4 f W O.O.O.O.! g 6 p D X.",
"W 0 u D | O.O.O.O.O.O.X.D p 9 W ",
"I 8 I O.O.O.{ L P  .O.O.O.T 8 I ",
"I 0 R O.O. .x 2 ; c X.O.O.R 0 I ",
"I 0 R O.O.( : l = # ) O.O.R 0 I ",
"I 0 R O.O.) & + X - ' O.O.S 5 I ",
"I 0 R O.O.O.G 1 3 H O. .b , . B ",
"I 8 Y O.O.O.O.] [ O.O.J > z * < ",
"W q i A | O.O.O.O.O.O.n @ = O $ ",
"X.R d 6 f R X.O.O.X.I a   o % b ",
"O.O.| Z y 8 k ~ ~ j 4 u A K / O.",
"O.O.O.O._ m w 0 q w M ` O.O.O.O.",
"O.O.O.O.O.O.~ j j ~ O.O.O.O.O.O."
};
