/* XPM */
static char *Sketcher_CreateTriangle_sm[] = {
/* columns rows colors chars-per-pixel */
"16 16 78 1 ",
"  c #76F045A63E8B",
". c #6BAF5638531B",
"X c #6A055910569C",
"o c #74CB54D3503A",
"O c #7CA165D4628E",
"+ c #72536D536CA0",
"@ c #707D712A7143",
"# c #7540762E7650",
"$ c #788978897889",
"% c #7E147E147E14",
"& c #AF5E2728139D",
"* c #AABD27E0152B",
"= c #E89D1C9C0000",
"- c #CB842C8F15D0",
"; c #EBE622B4069F",
": c #FC41237504CE",
"> c #CAE0365C2112",
", c #CF7A3A7C257F",
"< c #CA9A3CA92840",
"1 c #FFFF48272CFE",
"2 c #F3EF52863B1C",
"3 c #995B5A2B5121",
"4 c #B2B7533C460C",
"5 c #CD685A924A1C",
"6 c #CE315E314E24",
"7 c #FFFF5B9C435D",
"8 c #F3FE6E3B5AF3",
"9 c #CFE87BB56F8D",
"0 c #CE9382AA77DB",
"q c #FDE7880D771D",
"w c #892389238923",
"e c #8B668BBC8BC8",
"r c #9BF68F678D9C",
"t c #947494749474",
"y c #958595859585",
"u c #9F899F839F82",
"i c #B4398C4D8701",
"p c #AB7CA0F09F82",
"a c #A093A093A093",
"s c #A8FEA908A909",
"d c #AD90AE3FAE58",
"f c #B970A73AA49A",
"g c #B437B543B56A",
"h c #B770B83DB85A",
"j c #CF8C8CB58309",
"k c #C8FB91FF8A54",
"l c #C346AC44A8F3",
"z c #C7DDC0D4BFD5",
"x c #C0FBC20EC236",
"c c #C40DC561C591",
"v c #C49CC49CC49C",
"b c #C802C7FFC7FE",
"n c #CAD7CAD6CAD5",
"m c #CBDBCDDCCE25",
"M c #CEFECEFECEFE",
"N c #D2F0C2D5C083",
"B c #DD95C401C05A",
"V c #D116D201D222",
"C c #D268D268D268",
"Z c #D1A7D4ABD516",
"A c #D5F1D5F1D5F1",
"S c #D491D6FBD74D",
"D c #D6DED74AD759",
"F c #D7E5D7E5D7E5",
"G c #D9BFD9BFD9BF",
"H c #DEA4DEA4DEA4",
"J c #E1E7E1E7E1E7",
"K c #E690E690E690",
"L c #E68AE7FAE82E",
"P c #EE13E704E601",
"I c #E990E990E990",
"U c #EAC7EAC7EAC7",
"Y c #F3CBF3CBF3CB",
"T c #F709F709F709",
"R c #F961F961F961",
"E c #FA13FA13FA13",
"W c #FB2BFCFDFD2D",
"Q c #FFFDFFFEFFFE",
/* pixels */
"QQQQQQQQQQQQQQQQ",
"QQQQQQQQQQQQWWQQ",
"QQQQQQQQQQQB9jPQ",
"QKGGGGAAAAz6q10W",
"RbKMbbbxxxp,1:4U",
"QAGw@@. X#@3-*OK",
"QYbncl58<NmM+@gR",
"QQAMZk27;iSseUWW",
"QQRbAf>=&$C$MQQQ",
"QQQUbVroXhuyRQQQ",
"QQQQCZnmdn$AQQQQ",
"QQQQTbGbFyaQQQQQ",
"QQQQQHMAn$JQQQQQ",
"QQQQQQnHwsQQQQQQ",
"QQQQQQYy%UQQQQQQ",
"QQQQQQQHCQQQQQQQ"
};
