/* XPM */
static char *Sketcher_SelectHorizontalAxis_sm[] = {
/* columns rows colors chars-per-pixel */
"16 16 124 2 ",
"   c #18847C4C0000",
".  c #18607DDF0000",
"X  c #1A94623C1E36",
"o  c #73345EE802A8",
"O  c #76025E55031E",
"+  c #63904D091F6F",
"@  c #4FD467E70000",
"#  c #623363F900B0",
"$  c #713F60EB0077",
"%  c #413E6F224EB0",
"&  c #827956AA018F",
"*  c #A8754D600927",
"=  c #BD1E4CB10F20",
"-  c #EF174E5D2965",
";  c #E0BB54A229BE",
":  c #F99653FC3518",
">  c #DF676ECD45AA",
",  c #DF016EAC4632",
"<  c #DA0A6C344D8B",
"1  c #E4FD6FAE4A98",
"2  c #F7C576C75BD3",
"3  c #FFFF74655C6A",
"4  c #000085AD0000",
"5  c #0A8585BA0000",
"6  c #15CE925B15CE",
"7  c #17E7949E17E7",
"8  c #1C0596811C05",
"9  c #1DD297561DD2",
"0  c #2C729E112C72",
"q  c #3316A1323316",
"w  c #37F2A36737F2",
"e  c #7099D1E81155",
"r  c #7163D22912A6",
"t  c #71F0D48F0FD2",
"y  c #7337D2BF15B3",
"u  c #740CD3031716",
"i  c #7523D35D18E7",
"p  c #7716D3F81C21",
"a  c #7B5FD55E233D",
"s  c #7BD4D5832405",
"d  c #556C8A284DFB",
"f  c #4084A7644084",
"g  c #4CA5AD004CA5",
"h  c #5070AE2D5070",
"j  c #5995B3005995",
"k  c #5EBDB5635EBD",
"l  c #6880B9F26880",
"z  c #7FF4A9CC769A",
"x  c #7173BE197173",
"c  c #7B2EC28C7B2E",
"v  c #7F1EC4507F1E",
"b  c #8286D7A72F2E",
"n  c #8622D8CD352C",
"m  c #F15583CE6776",
"M  c #9398DD2C4BA7",
"N  c #9B87DFB158C7",
"B  c #9BD4DFCD5949",
"V  c #9C43DFF15A01",
"C  c #9DC9E23B598B",
"Z  c #10760A3B8C78",
"A  c #12CA0CB58D71",
"S  c #12DF0D448E71",
"D  c #13AE0D9F8DE1",
"F  c #15FE12368448",
"G  c #1E97113583CA",
"H  c #153911998F60",
"J  c #23F31F5D9408",
"K  c #2636209996D9",
"L  c #2A22257199AF",
"P  c #67D7432E8859",
"I  c #68C764DFB6FD",
"U  c #74927102BCAC",
"Y  c #85E3745CB419",
"T  c #FFFF996C8798",
"R  c #FFFFA7389991",
"E  c #FFFFB17BA551",
"W  c #F910B1BDA950",
"Q  c #FFFFB495A868",
"!  c #FFFFB73CAB9D",
"~  c #FFFFBCF0B1C4",
"^  c #9A7DD10F9A7D",
"/  c #B81BE8DF885D",
"(  c #BA4EE9878BF7",
")  c #A5A2D633A5A2",
"_  c #BF5DE212BF5D",
"`  c #D089F0BAB0FB",
"'  c #D380F1A9B5E7",
"]  c #D69EF2AEBB27",
"[  c #92DB9008CB42",
"{  c #B6E3B53ADC71",
"}  c #FFFFD1B1C99B",
"|  c #FFFFD94DD351",
" . c #C55BE4D8C55B",
".. c #C9ABE6D1C9AB",
"X. c #D4CDE308C8D1",
"o. c #E051F663CA3F",
"O. c #D48FEBE6D48F",
"+. c #E0BDF5F1CBEE",
"@. c #E26EF67ACECB",
"#. c #E3A4F6E8D0DA",
"$. c #E758F815D6FD",
"%. c #D3F4D2C9EAC1",
"&. c #D87AD76AECE8",
"*. c #FFFFE838E4BE",
"=. c #FFFFEB34E8C2",
"-. c #FFFFEF42EC51",
";. c #FFFFEF76ECF7",
":. c #E454F335E454",
">. c #E7E6F4DEE7E6",
",. c #ED13F74EED13",
"<. c #F637FCDCEFB2",
"1. c #E91DE88BF4F4",
"2. c #F1A4F95EF1A4",
"3. c #F6B9FD07F08B",
"4. c #F825FC5BF825",
"5. c #FFFFF898F74A",
"6. c #FFFFF8F2F7BE",
"7. c #F5BAF571FB0B",
"8. c #FFFFFB6AFA9E",
"9. c #F8A0FC94F8A0",
"0. c #FBA9FE98F8C8",
"q. c #FD44FF1EFB72",
"w. c #F9D9F9ADFD03",
"e. c gray100",
/* pixels */
"e.e.e.@.<.e.e.e.e.e.:.0.e.4.>.e.",
"e.e.' n / 0.e.e.e...w ) 2.v g >.",
"e.] b r p ( 0.e.e.>.j 7 f 8 ^ 0.",
"#.M i y u n ` e.e.e._ 6 4 h 2.e.",
"3.$.M r a ] <.e.e...0 q c 8 x 2.",
"e.q.B r a @.e.e.e. .k O.e.) l ,.",
"e.q.B r a @.e.e.e.e.4.e.e.e.9.e.",
"e.q.V r a +.e.e.e.e.e.8.5.e.e.e.",
"e.q.C t a o.e.e.e.e.e.-.T =.e.e.",
"e.9.z % d X.8.8.8.5.8.*.: 2 ;.e.",
"e.{ K S H P < , , , , , = & m ;.",
"e.U Z D D F X .         . 5 * R ",
"e.[ S S S G + $ o o o O # @ 1 *.",
"e.1.I J L Y W E E ! ! E - ; | e.",
"e.e.7.%.&.w.e.e.e.e.e.6.3 ~ e.e.",
"e.e.e.e.e.e.e.e.e.e.e.8.} 8.e.e."
};
