/* XPM */
static char *Sketcher_CreateSlot_sm[] = {
/* columns rows colors chars-per-pixel */
"16 16 82 1 ",
"  c #7C16475A3FBF",
". c #6F1B5F9B5D56",
"X c #704A704A704A",
"o c #726D72FC7310",
"O c #749F749F749F",
"+ c #76CC77557769",
"@ c #79167938793D",
"# c #7B697B697B69",
"$ c #7C2C7C377C39",
"% c #AABE27691490",
"& c #B6CE322C1F41",
"* c #F7E71DEC0000",
"= c #D02F21B1094E",
"- c #E03927810D11",
"; c #DDF3313619E2",
": c #FFFF2E160FA6",
"> c #F1BE37F61D21",
", c #84DE47D23F12",
"< c #84B95A425429",
"1 c #A8A44DE440D4",
"2 c #B5096DB3635F",
"3 c #E7B1587543F6",
"4 c #FFFF5BEC4427",
"5 c #CD2E6B695D61",
"6 c #D5CE67155748",
"7 c #F9AA6D8B590F",
"8 c #FFFF6E6959C7",
"9 c #F25472325FBC",
"0 c #CE9181A876AF",
"q c #7D8B7FC9801C",
"w c #882288228822",
"e c #89CE89CE89CE",
"r c #8F868F868F86",
"t c #913B92179237",
"y c #9BDA9BD39BD2",
"u c #BA0693848E0B",
"i c #A360A360A360",
"p c #A6BBA6BBA6BB",
"a c #A93EAA1AAA3A",
"s c #AAF2ADC0AE27",
"d c #AEAEAEADAEAD",
"f c #BA81A871A5FF",
"g c #B166B166B166",
"h c #B4B4B4B4B4B4",
"j c #B73FB927B96E",
"k c #BBF5BBF5BBF5",
"l c #BDF8BDF8BDF8",
"z c #D23A9AF99306",
"x c #D40A9E7D96CC",
"c c #C299B23AAFDB",
"v c #CAADB0C7AD10",
"b c #C0C5B87AB745",
"n c #C596BFC9BEEE",
"m c #C1C9C1C9C1C9",
"M c #C691C6DEC6EA",
"N c #C84AC849C849",
"B c #CA05CD31CDA6",
"V c #CE18CE18CE18",
"C c #CFCDCFCDCFCD",
"Z c #DDE9C42BC07C",
"A c #CED3D1C6D232",
"S c #D0D9D0ECD0EF",
"D c #D3DCD3DCD3DC",
"F c #D518D518D518",
"G c #D821D91BD940",
"H c #D8A8D8A6D8A6",
"J c #DD50DEBDDEF1",
"K c #DF69DF69DF69",
"L c #E254D176CF07",
"P c #E6BFD892D684",
"I c #E19FE19FE19F",
"U c #E3ECE3EDE3ED",
"Y c #E768E78FE795",
"T c #EB71E3B7E29D",
"R c #EC69EC69EC69",
"E c #EDD9EEFDEF25",
"W c #F22EEE9DEE1D",
"Q c #F2D5F2D5F2D5",
"! c #F768F768F768",
"~ c #F8A8FA53FA91",
"^ c #FB0BFB0BFB0B",
"/ c #FFFEFFFEFFFE",
/* pixels */
"////////////////",
"/////////PZW////",
"///QIKKKv635W///",
"/^HSAVVB274-fE//",
"/SFd$@$q<-*&nAE/",
"IFyoaVYYIu,.tFV^",
"Vm+b06x^/^DHEMSI",
"Visz98;L/////FSl",
"NaAz>:=c/////FVi",
"CMST1% M////!Vky",
"USVESyj!///^DHeh",
"/SVSGKYYIIJAKi@Y",
"/!gpmMNNNNNkwXM/",
"//!ke@$@$@@orS//",
"////QIJKKKKY!///",
"////////////////"
};
