/* XPM */
static char *Sketcher_CreateHexagon_sm[] = {
/* columns rows colors chars-per-pixel */
"16 16 77 1 ",
"  c #6C5E54AA513E",
". c #735173517351",
"X c #756D756D756D",
"o c #7A9D7A9D7A9D",
"O c #7F0E7F0E7F0E",
"+ c #88543EEB345E",
"@ c #B59B3A022842",
"# c #DECA1D2F016A",
"$ c #DA1F1F060425",
"% c #D73120D507B9",
"& c #CEE22DEC16D7",
"* c #FFFF37D41AC0",
"= c #D71D3BF325EE",
"- c #84A5478D3EB3",
"; c #C35E43F8333C",
": c #D5BD518D3F3B",
"> c #F8B642132789",
", c #E98D4BE93553",
"< c #9D6866A05EA5",
"1 c #84F46A306655",
"2 c #B6D56D8662F1",
"3 c #EE2F6FC05D96",
"4 c #FFFF684851ED",
"5 c #FEAE6E8659EF",
"6 c #C7F97A536F30",
"7 c #D0AE79656CC4",
"8 c #ED1B72B96128",
"9 c #CC9480C075D6",
"0 c #CF39856A7AD1",
"q c #827482748274",
"w c #87FE87638749",
"e c #88A188A188A1",
"r c #895B8BDE8C3B",
"t c #915B9256927A",
"y c #940094009400",
"u c #9AA49AA49AA4",
"i c #9E1C9E1C9E1C",
"p c #A65CA65CA65C",
"a c #A81DA81DA81D",
"s c #AA01AA01AA01",
"d c #AFDDAA93A9D4",
"f c #ACC3ACC3ACC3",
"g c #B21FB21FB21F",
"h c #B6D0B6CFB6CF",
"j c #B8A8B8A8B8A8",
"k c #BE19BE19BE19",
"l c #C6D78B1A8283",
"z c #D683AC4DA639",
"x c #C34FB057ADA8",
"c c #D7C9B2A6AD4F",
"v c #D9CCB9C2B524",
"b c #C359C359C359",
"n c #C696C24EC1A8",
"m c #C80DC80DC80D",
"M c #CB2DCB7DCB89",
"N c #CC06CC06CC06",
"B c #CF3CCF3CCF3C",
"V c #D0CAD0D5D0D7",
"C c #D3FAD3FAD3FA",
"Z c #D7FCD7FCD7FC",
"A c #D93FD93FD93F",
"S c #DCE2DCE2DCE2",
"D c #E155D098CE2D",
"F c #E691DA36D864",
"G c #E274E02CDFD6",
"H c #E42EE42EE42E",
"J c #E83AE839E839",
"K c #ED44E88CE804",
"L c #E7C7EAFBEB70",
"P c #E971E971E971",
"I c #F003F00FF010",
"U c #F120EC19EB4E",
"Y c #F0A5F0A5F0A5",
"T c #F495F495F495",
"R c #FA25FA25FA25",
"E c #FAF0FCDBFD19",
"W c #FFF9FFFAFFFA",
/* pixels */
"WWWWWIBVYWWWWWWW",
"WWWTABNmVSTWEWWW",
"WTSVNu.OiNnl7vWW",
"HBBpXqbPjr<35=FW",
"NboohIWWWL2>*%xW",
"VpiJWUzcYWD@&+fW",
"BfAWT98,0WWgdtSW",
"BfZWK:4*;PWIVsTW",
"VfZWR6#$-AWIVaTW",
"BsZWWG1 wIWPVsTW",
"NNmPWWPNPWJVVuTW",
"HuhVVIWWIVVgotRW",
"WAutbBZVVkeXsPWW",
"WWRNtimmy.ySWWWW",
"WWWWTke.eBYWWWWW",
"WWWWWWPbIWWWWWWW"
};
