/* XPM */
static char *Sketcher_CreatePentagon_sm[] = {
/* columns rows colors chars-per-pixel */
"16 16 87 1 ",
"  c #72FB53064E6D",
". c #6CC962F3618B",
"X c #6D786D786D78",
"o c #7C3665696223",
"O c #726772667266",
"+ c #761776177617",
"@ c #7A547A547A54",
"# c #7E447E447E44",
"$ c #AECA26941309",
"% c #AE612B8D18CE",
"& c #E8931C920000",
"* c #CCF72DFC1739",
"= c #EA9221070576",
"- c #FC42234704A1",
"; c #CA84360120B6",
": c #CD8F392423B1",
"> c #F21D3E382496",
", c #D544475332EA",
"< c #FFFF47FF2CD6",
"1 c #F2E0513039F5",
"2 c #B2B5533E460E",
"3 c #881F7D907C09",
"4 c #BC9B7D687446",
"5 c #C87758714863",
"6 c #FFFF5B8C434B",
"7 c #D862658C5516",
"8 c #F3A56DE25A99",
"9 c #D0907C5B7035",
"0 c #CE9882AF77E1",
"q c #FDFE88247735",
"w c #80E380E380E3",
"e c #877187718771",
"r c #8B508B508B50",
"t c #8F6F8F6F8F6F",
"y c #97808BFD8A52",
"u c #8FCB90379047",
"i c #969E969E969E",
"p c #9A7F9A809A80",
"a c #A2C0A2C0A2C0",
"s c #B00FA354A183",
"d c #AE69A75FA65C",
"f c #A91FA91FA91F",
"g c #AAEBAAEFAAEF",
"h c #AFA1AFA1AFA1",
"j c #B404B404B404",
"k c #BA6FBA6FBA6F",
"l c #BE1EB91AB866",
"z c #BBE4BCB1BCCE",
"x c #BE99BF3BBF53",
"c c #CF8C8CB5830A",
"v c #C35F9B6A9648",
"b c #D1789A749318",
"n c #D3EEA2A79B8D",
"m c #CAD1B135AD97",
"M c #C0F0C0F0C0F0",
"N c #C791C791C791",
"B c #C9FDC9FDC9FD",
"V c #CC9ACC9ACC9A",
"C c #CD9ECD9ECD9E",
"Z c #CEEACEEECEEF",
"A c #DFF1C8EFC59E",
"S c #D026D126D14B",
"D c #D091D091D091",
"F c #D3C5D5C5D60F",
"G c #D5A5D5A5D5A5",
"H c #D6B1D75FD777",
"J c #D89FD89FD89F",
"K c #DB96DB96DB96",
"L c #DEB1DEB1DEB1",
"P c #E213CC75C950",
"I c #E210CFDACD3B",
"U c #E49CD38FD118",
"Y c #E502D4E7D295",
"T c #E438E438E438",
"R c #E648E7B7E7EC",
"E c #E70EE70EE70E",
"W c #EE13E704E601",
"Q c #EBFDEBFDEBFD",
"! c #EE02EEE7EF04",
"~ c #ED20F098F10E",
"^ c #EF4AF09EF0CE",
"/ c #F2D0F2D0F2D0",
"( c #F650F64EF64E",
") c #F7F9F8BFF8DB",
"_ c #FBC8FBBFFBBE",
"` c #FB2CFCFDFD2D",
"' c #FFFAFFFDFFFD",
/* pixels */
"'''''JG/''''''''",
"''''LDLDDE_'`'''",
"'''TZj@pBGSm9cW'",
"''QZxOjfwud5q>0`",
"'/ZZOf_'!x3:<-2~",
"(ZD@p/PnU'(4*%oE",
"ZJer^A78,Y'Gl+j_",
"DGtL'b16=v'LZp)'",
"/BDE'I;&$y'JZa''",
"'GZZ('s .z'JBf''",
"'_MGG'_FG(/ZMh''",
"''ENDQ/EJSDJhj''",
"'''BGZGDBjp#XB''",
"'''(kji@O+rfZ(''",
"''''LethDQ)'''''",
"'''''/('''''''''"
};
