/* XPM */
static char *Sketcher_CreateArc_sm[] = {
/* columns rows colors chars-per-pixel */
"16 16 95 2 ",
"   c #782663A460B6",
".  c #754A71A6711E",
"X  c #746B72DE72A7",
"o  c #7D847DAE7DB4",
"O  c #BAAA29D11514",
"+  c #9FC7383F295C",
"@  c #E2851EF303BB",
"#  c #E0941FF305D3",
"$  c #E15C222206BA",
"%  c #FFFF29970AC6",
"&  c #EE792AB1103D",
"*  c #E17936F21E74",
"=  c #BFF34EB63E70",
"-  c #D46740272AEE",
";  c #D31245F831B5",
":  c #FFFF484D2D53",
">  c #E46D481D31BD",
",  c #F63150EF3957",
"<  c #88C64BC14304",
"1  c #997455924CBA",
"2  c #A92F68285ED0",
"3  c #83186A2066FE",
"4  c #84B77BE27AA3",
"5  c #A4AA7C6976A1",
"6  c #CD1668D55A6A",
"7  c #D37B648654A0",
"8  c #D8D061214FF5",
"9  c #E8A261854E1C",
"0  c #E3956A1A58A5",
"q  c #F9FF6AFA567A",
"w  c #CD2773686681",
"e  c #FA857CE26AE2",
"r  c #A6C081C87C7A",
"t  c #C93C831E79BF",
"y  c #CE1186687C1B",
"u  c #FFFF82E5708B",
"i  c #85688596859C",
"p  c #891B899889AA",
"a  c #8B55887E8813",
"s  c #8E948F918FB5",
"d  c #944E96B4970C",
"f  c #999A999A999A",
"g  c #BC3A8D2C86A0",
"h  c #A1D2A220A22C",
"j  c #A3EAA6C7A730",
"k  c #AB7DAB7AAB79",
"l  c #AC1AAD83ADB6",
"z  c #B004B004B004",
"x  c #BF36A8ECA5B7",
"c  c #B4A0B4A0B4A0",
"v  c #B855B855B855",
"b  c #CEEE8D75841B",
"n  c #D3C19EB99710",
"m  c #C155ABD5A8BF",
"M  c #D05BA63BA029",
"N  c #D1FAA7FDA1F5",
"B  c #D478AFF8AAC2",
"V  c #D69FB048AACD",
"C  c #C9B6B407B0ED",
"Z  c #D8B0BC4CB845",
"A  c #C3D5C3D5C3D5",
"S  c #C830C830C830",
"D  c #C7D3C969C99D",
"F  c #C97FC97BC97B",
"G  c #CC8ECEB6CF05",
"H  c #D00BD00BD00B",
"J  c #DDE7C607C2C6",
"K  c #DEB9C952C637",
"L  c #D74FCB45C98F",
"P  c #CEE5D0F6D141",
"I  c #D310D310D310",
"U  c #D085D481D505",
"Y  c #D800D800D800",
"T  c #DAECDD91DDEF",
"R  c #DD34DD34DD34",
"E  c #DE27DE27DE27",
"W  c #E911DD90DBF6",
"Q  c #E86EE10FE005",
"!  c #E451E451E451",
"~  c #E2C5E5ABE613",
"^  c #E5F9E6A0E6B8",
"/  c #E83CE83CE83C",
"(  c #EC86E425E2F2",
")  c #EF6DE929E844",
"_  c #EA53EA82EA87",
"`  c #ED18ED18ED18",
"'  c #EFDCEFDDEFDD",
"]  c #F128ED36ECA2",
"[  c #F2B7EFEAEF81",
"{  c #F414F156F0EE",
"}  c #F6CFF60CF5EB",
"|  c #F9A8F9A8F9A8",
" . c #FCB5FCDEFCE5",
".. c #FD37FE14FE34",
"X. c #FFFDFFFEFFFE",
/* pixels */
"X.} Q } X.X.X.X.X.X.X.X.X.X.X.X.",
"] y 8 w ) X.X.X.X.X.X.X.X.X.X.X.",
"B 9 u & g T ' X.X.X.X.X.X.X.X.X.",
"Z * % @ r G G I ' X.X.X.X.X.X.X.",
"} n = < X o f F G R X.X.X.X.X.X.",
"X.X.~ d i k v f c I Y X.X.X.X.X.",
"X.X.X.' ! | X.} G A I E X.X.X.X.",
"X.X.X.X.X.X.X.X.X.! G A ^ X.X.X.",
"X.X.X.X.X.X.X.X.X.X.R G l | X.X.",
"X.X.X.X.X.X.X.X.X.X.] G j I X.X.",
"} B b J X.X.X.X.X.X.X.x 2 5 } X.",
"M 0 q - L X.X.X.X.X.W 7 e * M X.",
"t , : @ 3 F X.X.X.X.J > , % 1 U ",
"K ; $ + X h | X.X.X.] 6 $ O   l ",
"X.( C p p S X.X.X.X.X.] m 4 s Y ",
"X.X.X._ ! X.X.X.X.X.X.X.X.^ ^  ."
};
