/* XPM */
static char *Sketcher_Trimming_sm[] = {
/* columns rows colors chars-per-pixel */
"16 16 52 1 ",
"  c #B2D82CDE1B75",
". c #D22C32D51BF3",
"X c #E129217605F8",
"o c #D72B4BDD37E7",
"O c #FFFF462E2BA6",
"+ c #906C554B4CBC",
"@ c #9D6E5316485F",
"# c #8D43742E7095",
"$ c #C0F35A6E4BBD",
"% c #F68B6DF259BA",
"& c #92E092E092E0",
"* c #9570956F956F",
"= c #97FD9916993E",
"- c #987D987D987D",
"; c #9F9D9F9D9F9D",
": c #A54B946491F4",
"> c #A07BA07BA07B",
", c #A4D3A4D3A4D3",
"< c #AC6BAC6BAC6B",
"1 c #AF74AF92AF96",
"2 c #C01BAAE0A7D9",
"3 c #BD3CB008AE26",
"4 c #B058B058B058",
"5 c #B1ACB1ACB1AC",
"6 c #B807B807B807",
"7 c #BB3EB2ABB172",
"8 c #BAB4BAB4BAB4",
"9 c #BAC8BC87BCC7",
"0 c #BFF4BFF4BFF4",
"q c #D05595658CDB",
"w c #C138BF2EBEE4",
"e c #D2C9B601B1DA",
"r c #C211C200C1ED",
"t c #C6F2C6F2C6F2",
"y c #C905C904C904",
"u c #CBCDCBCDCBCD",
"i c #D052D1BCD1F0",
"p c #D321D3A2D3B3",
"a c #D674D674D674",
"s c #D96AD962D960",
"d c #DD3ADDB4DDC6",
"f c #DD94DD94DD94",
"g c #DEC3E083E0C1",
"h c #E0E8E0E8E0E8",
"j c #E4F8E4F8E4F8",
"k c #EBAAEBAAEBAA",
"l c #ED26ED26ED26",
"z c #F2CEF2CEF2CE",
"x c #F4D6F4D6F4D6",
"c c #F7C4F7C4F7C4",
"v c #FA8AFA8AFA8A",
"b c #FFFEFFFEFFFE",
/* pixels */
"z8fbbbbbbtucbbbb",
"c0>hbbbbkt&jbbbb",
"bz<;cbbba6;vbbbb",
"bbl<4zbzu=ubbbbb",
"bbbh;5bf0*zbbbbb",
"bbbbs>73;0bbbbbb",
"bbbbb2$o+fbbbbbb",
"bbbbbq%O rbbbbbb",
"bbbbbe.X@9bbbbbb",
"bbbbbp:#w<gbbbbb",
"bbbbzt-pfu<lbbbb",
"bbbbs0*cbat<zbbb",
"bbbcu>rbbvpr8vbb",
"bbbht&lbbbcu8rbb",
"bbbu,5bbbbblu>ub",
"bbba5hbbbbbbj5ab"
};
