/* XPM */
static char *Sketcher_DraftLine_sm[] = {
/* columns rows colors chars-per-pixel */
"16 16 78 1 ",
"  c #33B533B53379",
". c #38273827374F",
"X c #387738773873",
"o c #40D940D94075",
"O c #482F482F4739",
"+ c #4CD44CD44CDF",
"@ c #5AFA5AFA5B05",
"# c #626F626F5FBF",
"$ c #60C360C360BB",
"% c #697A697A6978",
"& c #6BFB6BFB6BFD",
"* c #6DD26DD26D4D",
"= c #78CE78CE781B",
"- c #39893989BB9E",
"; c #46CC46CCB90E",
": c #57105710B343",
"> c #570D570DBE75",
", c #5B0D5B0DB92F",
"< c #7AA37AA3ACB9",
"1 c #6EFA6EFAB770",
"2 c #75CE75CEB69B",
"3 c #732B732BBB1E",
"4 c #76D976D9B9F5",
"5 c #0E960E96CD62",
"6 c #1A151A15C85B",
"7 c #06AB06ABDF08",
"8 c #11081108D568",
"9 c #129D129DDB50",
"0 c #24FE24FECD1E",
"q c #2F972F97CEA3",
"w c #32693269C5E0",
"e c #41824182C899",
"r c #52A852A8C1DC",
"t c #684B684BC68A",
"y c #82A882A882AA",
"u c #87498749871D",
"i c #885F885F8861",
"p c #891289128912",
"a c #884788478E5D",
"s c #8A718A719B27",
"d c #9B589B589A41",
"f c #9C7A9C7A9C7A",
"g c #8C878C87A417",
"h c #81598159AD8D",
"j c #80378037B52B",
"k c #8D3D8D3DB5AA",
"l c #94379437B6A0",
"z c #A802A802A7C9",
"x c #AFC3AFC3AD5B",
"c c #B02CB02CB02C",
"v c #A799A799B3D1",
"b c #B7B8B7B8B742",
"n c #BFEFBFEFBBDA",
"m c #9F049F04C114",
"M c #98919891CC92",
"N c #A188A188CC7C",
"B c #AFE0AFE0CEAD",
"V c #B643B643CE99",
"C c #C35EC35EC35E",
"Z c #C4F5C4F5C4F6",
"A c #C4A4C4A4D7E0",
"S c #C707C707DB32",
"D c #D377D377D09B",
"F c #D8BBD8BBD8BB",
"G c #D7AED7AEE3D8",
"H c #DE6CDE6CE32A",
"J c #DFC8DFC8E746",
"K c #E0A6E0A6E0A6",
"L c #E704E704E704",
"P c #E3E4E3E4EBEA",
"I c #EB2EEB2EEF7D",
"U c #EFAAEFAAEFA9",
"Y c #F1CFF1CFF1CF",
"T c #F4BEF4BEF2EF",
"R c #F571F571F571",
"E c #F958F958F97E",
"W c #FE0FFE0FFBB4",
"Q c gray100",
/* pixels */
"QQQQQQQQQQQQQQQQ",
"QQQQQQQQQQQEVPQQ",
"QQQQQQQQQQWM54DU",
"QQQQQQQQQQB8qsOp",
"QQQQQQQQQA<;gO+Z",
"QQQQQQQQS0-bd@CQ",
"QQQQQQQHw9h@$FQQ",
"QQQQQQGk:j#XzEQQ",
"QQQQQJe6vx%fEQQQ",
"QQQQY>71*OZEQQQQ",
"QQQIm23= pRQQQQQ",
"QQYt5lnuyYQQQQQQ",
"QW47ryoxRQQQQQQQ",
"QQN,a.%LQQQQQQQQ",
"QQQTz*FQQQQQQQQQ",
"QQQQEYQQQQQQQQQQ"
};
