/* XPM */
static char *Sketcher_CloseShape_sm[] = {
/* columns rows colors chars-per-pixel */
"16 16 96 2 ",
"   c #C0312E591A4D",
".  c #B28D38182682",
"X  c #B7D23DFB2C53",
"o  c #C1072A801699",
"O  c #C6852886145D",
"+  c #B28C4C883E01",
"@  c #C05C487E37C4",
"#  c #BCCE50054045",
"$  c #BC1952FD43C8",
"%  c #BAE05A4B4C7D",
"&  c #BEBD7FDD76D2",
"*  c #1AB9894F1AB9",
"=  c #1A828F551A82",
"-  c #26938B2B2693",
";  c #1FAC93711FAC",
":  c #21CF98C621CF",
">  c #29F692C329F6",
",  c #30A68EB830A6",
"<  c #38A39B0238A3",
"1  c #536790A75367",
"2  c #55119E365511",
"3  c #58639F275863",
"4  c #5258A3655258",
"5  c #5336A90C5336",
"6  c #6384A3FB6384",
"7  c #63B6ABC363B6",
"8  c #6D53A8DF6D53",
"9  c #720DAA87720D",
"0  c #7EA3A7BE7EA3",
"q  c #B74486427F3A",
"w  c #BA20873E7FDF",
"e  c #C9A789437FF9",
"r  c #B24F92448DA0",
"t  c #BF6F9BA89689",
"y  c #82E2AF8382E2",
"u  c #811EB0FC811E",
"i  c #8A36B4168A36",
"p  c #8A39B4E88A39",
"a  c #9587ACC69587",
"s  c #9AB4BE0F9AB4",
"d  c #B4C1A415A1B4",
"f  c #A34CBE9BA34C",
"g  c #AA83B9E0AA83",
"h  c #C9DA8DCD8545",
"j  c #C793A5D2A0FD",
"k  c #CBCBACF0A873",
"l  c #CBCFB94CB692",
"z  c #A155C106A155",
"x  c #B4F2CC84B4F2",
"c  c #B506CE6DB506",
"v  c #BB97CA71BB97",
"b  c #B87ECD91B87E",
"n  c #BB9AD214BB9A",
"m  c #BCE6D1F3BCE6",
"M  c #C1CACEC0C1CA",
"N  c #C5BECB8BC5BE",
"B  c #CF5ECF5FCF5F",
"V  c #DCB5C450C0DA",
"C  c #C146D4C6C146",
"Z  c #CE94DB69CE94",
"A  c #D0C7CFEAD0CA",
"S  c #D398D344D398",
"D  c #D415D415D415",
"F  c #D82BD458D3C9",
"G  c #D7E9D7E6D7E9",
"H  c #DF3CD5B4D450",
"J  c #D329DEFCD329",
"K  c #DAB8D9C4DAB8",
"L  c #E00CDA16D931",
"P  c #DF28DF28DF28",
"I  c #E083CAB7C795",
"U  c #E5A5DD7DDC46",
"Y  c #E2D1DDA6DCE4",
"T  c #E3DBE3DBE3DB",
"R  c #E19BE5EEE18F",
"E  c #E6B3E6FCE6B3",
"W  c #E805E7E4E805",
"Q  c #E96EE20CE0FC",
"!  c #E5E8EC7BE5E4",
"~  c #ED37E8EEE850",
"^  c #E994E994E994",
"/  c #EDA8EC52EC21",
"(  c #E983EEBFE983",
")  c #ECF8F026ECF8",
"_  c #F29CF027EFCD",
"`  c #EF0FF205EF0F",
"'  c #F302F309F30A",
"]  c #F3DBF5C8F3DB",
"[  c #F4ABF4EAF4F3",
"{  c #F491F65AF491",
"}  c #F565F7BDF80F",
"|  c #F7AFF7F0F7AF",
" . c #FAECFB3AFAEB",
".. c #FC14FCA0FCB4",
"X. c #FCF0FCC4FCF0",
"o. c #FFFEFFFEFFFE",
/* pixels */
"o.o.o. .x z { o.o.o.o.o.` J ] o.",
"o.o. .v 7 > x o.o.o.o.{ p 4 9 { ",
"o.' K g - * n o.o.o.o.) 2 : , ^ ",
" .K G E C m  . .' o.o.o.b 1 f o.",
"^ G E o.o.o.~ & q I V Q ' B E o.",
"K S { o.o.o.l O o X . t { B E o.",
"G G o.o.o.o. .j r U U _ ' B E o.",
"S K o.o.o.o.o. .{ o.o.o.' B E o.",
"G G  .o.o.o.o.o.o.o.o.o.' B E o.",
"P S ' o.o.o.o.~ F o.o.o.' B E o.",
") D T o.o.o.U % + h e k ' B E o.",
"X.K G [ o.o.L +   $ # w ) S E o.",
"o.' S N x ! o.H d { {  .R a M o.",
"o.o.E 0 < 6  .o...o.o. .i 5 , J ",
"o.o.{ 8 ; 3  .o.o.o.o.o.u = - Z ",
"o.o.o.J y Z o.o.o.o.o.o.) s b  ."
};
