/* XPM */
static char *Sketcher_Element_Point_StartingPoint_svg[] = {
/* columns rows colors chars-per-pixel */
"16 16 34 1 ",
"  c #0FF75C650FF7",
". c #00007AEC0000",
"X c #00007D520000",
"o c #05247DD40524",
"O c #3A3C584F3A3C",
"+ c #5A3775355A37",
"@ c #67D56CC367D5",
"# c #7ACF7F587ACF",
"$ c #000080240000",
"% c #1CD688421CD6",
"& c #0FC2920C0FC2",
"* c #344091B03440",
"= c #3A65931C3A65",
"- c #3192A2103192",
"; c #47B8878947B8",
": c #403B953F403B",
"> c #5D4296915D42",
", c #55FAB2E355FA",
"< c #7801A3607801",
"1 c #9145A8649145",
"2 c #97FBD19F97FB",
"3 c #BD3BCC36BD3B",
"4 c #C17CCF28C17C",
"5 c #C3DDD0CDC3DD",
"6 c #C5A5D203C5A5",
"7 c #D1F4D16DD1F4",
"8 c #DA82D8CBDA82",
"9 c #EC3AEE21EC3A",
"0 c #ED1BECC0ED1B",
"q c #F0A8EF27F0A8",
"w c #F13BF225F13B",
"e c #F63EF680F63E",
"r c #FA34F9DEFA34",
"t c #FFFEFFFEFFFE",
/* pixels */
"tttttttttttttttt",
"tttttttttttttttt",
"tttttttttttttttt",
"tttttttttttttttt",
"tttttttttttttttt",
"tttttte64wtttttt",
"ttttte<:*>9ttttt",
"ttttt5=2,o1ttttt",
"ttttt3%-&X+etttt",
"ttttt0;.$ #rtttt",
"tttttt7+O@7ttttt",
"tttttttq80tttttt",
"tttttttttttttttt",
"tttttttttttttttt",
"tttttttttttttttt",
"tttttttttttttttt"
};
