/* XPM */
static char *Sketcher_NewSketch_sm[] = {
/* columns rows colors chars-per-pixel */
"16 16 111 2 ",
"   c #41CB40664066",
".  c #476846084608",
"X  c #62E562D162D1",
"o  c #676765476547",
"O  c #67B067586758",
"+  c #6ABE6A486A49",
"@  c #6BA56C236C4A",
"#  c #6BA56DE06E41",
"$  c #7378736C736C",
"%  c #766B76497649",
"&  c #7BDF7B357B35",
"*  c #FFFF44262B15",
"=  c #FFFF4B993409",
"-  c #A69C6E70676C",
";  c #A69C71466A78",
":  c #FFFF5F8A4A51",
">  c #FFFF62854D82",
",  c #F8766E4B5BCE",
"<  c #FA316C655974",
"1  c #FABE6DE35C0E",
"2  c #FFFF6FC85C92",
"3  c #FA3270E85E8F",
"4  c #FFFF71455E01",
"5  c #DD8E761A683C",
"6  c #FFFF73A460A8",
"7  c #FFFF74EB625A",
"8  c #FFFF76B56463",
"9  c #FFFF792A6739",
"0  c #FFFF7BCF6A10",
"q  c #FFFF7C9F6B0C",
"w  c #FFFF7EBE6D5B",
"e  c #FFFF81E2715A",
"r  c #FFFF847B746D",
"t  c #FFFF881B7804",
"y  c #803980B080E9",
"u  c #80A081118149",
"i  c #8BC18B9B8BC1",
"p  c #8E568CB98CB9",
"a  c #9CD68E768CBE",
"s  c #93B2923E923E",
"d  c #94E9938A9389",
"f  c #9CC2923590FA",
"g  c #9A9598B598A7",
"h  c #9CC29ABB9AA7",
"j  c #A69C8F5E8C6A",
"k  c #A69C944B91FD",
"l  c #BA65A12E9DCE",
"z  c #A7CBA6BCA6BC",
"x  c #A963A87BA880",
"c  c #AC31AB16AB16",
"v  c #B377B4E7B518",
"b  c #B5EFBA43BAD6",
"n  c #BAF9BA1BBA1B",
"m  c #BE2CBE30BE30",
"M  c #FFFF927C83D9",
"N  c #FFFF9F2691CF",
"B  c #FFFFA7D79C3A",
"V  c #C7A7AE9FAB46",
"C  c #D00AB73CB3EA",
"Z  c #CE33BCDDBAA8",
"A  c #FFFFADD9A2CB",
"S  c #FFFFB38DA922",
"D  c #FFFFB62BABE3",
"F  c #E0B8C268BE5A",
"G  c #FFFFC3D5BB67",
"H  c #FFFFC49DBC51",
"J  c #C0EAC03AC041",
"K  c #BF97C1E0C22E",
"L  c #CE33C28AC116",
"P  c #C6F1C8C7C906",
"I  c #C914C855C855",
"U  c #CE33C90FC87A",
"Y  c #CE5ACDB2CDB2",
"T  c #CE33D000D054",
"R  c #D2DAD3A8D3C4",
"E  c #D837D9AFD9F3",
"W  c #EC76CFE4CC0E",
"Q  c #F079C7E0C274",
"!  c #F1E1CC7AC77A",
"~  c #FFFFCAA9C388",
"^  c #FFFFCD7FC6BB",
"/  c #FFFFD32FCD39",
"(  c #FFFFD4A3CED2",
")  c #F6F3D5C3D153",
"_  c #FFFFD7C2D25D",
"`  c #FFFFDCBCD80E",
"'  c #FFFFDD20D87E",
"]  c #FA31E12DDDD5",
"[  c #FFFFE133DCCE",
"{  c #E698E705E70A",
"}  c #ED94ED53ED54",
"|  c #EDADEDF3EE05",
" . c #EF26EEEFEEEF",
".. c #F805E652E3F9",
"X. c #FB53E7A1E502",
"o. c #FEAEE7CEE4C4",
"O. c #F37FEC5DEB50",
"+. c #FFFFEE88EBFE",
"@. c #FAA5F08AEF2A",
"#. c #FFFFF09BEE91",
"$. c #EFA6F0BBF0DB",
"%. c #F0B1F0B5F0B5",
"&. c #F3CAF3BBF3BB",
"*. c #F54EF5F1F607",
"=. c #FFFFF38FF1DE",
"-. c #FFFFF6DBF5A3",
";. c #FB19FB09FB09",
":. c #FFFFFB83FAE3",
">. c #FFFFFC1CFB99",
",. c #FE0AFE0FFE0F",
"<. c #FF64FF62FF62",
/* pixels */
";.n z x z x x x x x x x x c  .<.",
" .p I Y Y Y Y Y L Z U Y Y d I <.",
" .h ;.<.<.<.+.N q 0 e H <.z & &.",
" .h ;.<.<.#.0 5 F X.~ 4 D z + $.",
" .g ;.<.<.A M R b $.<.' 4 j @ &.",
" .g ] _ _ 4 B ! Q [ >.<.r - @  .",
" .f < 4 w = > w q : ' <.e ; @ $.",
" .a , W { S w -.:.q ( ( 8 k @ $.",
" .a , V K @.t t ^ 4 M 2 G z + &.",
" .a < l v *.-.A q * 9 / <.z +  .",
"} a , C P <.<.<.:.0 / <.<.z + &.",
"} a 1 ) O.-.-.-.=.0 / <.<.z +  .",
"} f 3 4 9 8 8 8 7 > [ E s o +  .",
"} g ..] [ [ ] [ [ o.<.m o . % &.",
"&.s i y u u u u u u y o   X m <.",
"<.$.z o O + + O + + + + $ n <.<."
};
