/* XPM */
static char *Sketcher_CreateLine_sm[] = {
/* columns rows colors chars-per-pixel */
"16 16 84 1 ",
"  c #68F451134D9B",
". c #62265FB45F61",
"X c #669466CE66D6",
"o c #6E4A6E596E5B",
"O c #71DE72EB7311",
"+ c #71BD732F7364",
"@ c #754376AC76E1",
"# c #B71824390F39",
"$ c #BE21233D0CFD",
"% c #EBAD1E6300F7",
"& c #ED631FDD038F",
"* c #FA84201E0127",
"= c #F3E7270C0B11",
"- c #FFFF2A790B74",
"; c #F2552D6910FD",
": c #CF963E2D2947",
"> c #9C2440A43390",
", c #912B43923901",
"< c #F5AB4AA33234",
"1 c #FFFF4DF33413",
"2 c #B4666315576A",
"3 c #A89A71336976",
"4 c #B801747C6AC3",
"5 c #B4A677D96F1C",
"6 c #CB655712465F",
"7 c #E4245BA047FF",
"8 c #CD7E61B45258",
"9 c #CE0D678558C4",
"0 c #E80066215375",
"q c #F7AD706C5CDF",
"w c #C41A7E4874DA",
"e c #CA7683E279BD",
"r c #FFFF833D70E2",
"t c #FFFF88FE77B9",
"y c #8761876C876D",
"u c #86998A218A9C",
"i c #897A8B0F8B49",
"p c #8E1B8E1B8E1B",
"a c #918F84638275",
"s c #946294629462",
"d c #9C849C849C84",
"f c #A3AEA3A6A3A4",
"g c #A8CBA8CBA8CB",
"h c #AE0DAE0DAE0D",
"j c #B742B742B742",
"k c #BFD3B8A7B7A7",
"l c #B804B88DB8A1",
"z c #CA3E8FDE8767",
"x c #C7FD90238845",
"c c #C9A5995F926D",
"v c #D0ACAF24AA5F",
"b c #C273BEDABE4B",
"n c #D513B9F9B60E",
"m c #C0C1C0C1C0C1",
"M c #C70BC70BC70B",
"N c #C8D9C8D9C8D9",
"B c #CCEBCCEACCEA",
"V c #CFAACFAACFAA",
"C c #DB28C67AC36B",
"Z c #DF8CCD2ACA84",
"A c #D1C3D1C3D1C3",
"S c #D3B8D3B0D3AF",
"D c #D51DD51DD51D",
"F c #D61ED65AD662",
"G c #DA3CDA3CDA3C",
"H c #DADEDDA2DE05",
"J c #DD35DD3ADD3B",
"K c #DFB1DFB1DFB1",
"L c #E097D1ADCF8E",
"P c #E5C6DC72DB20",
"I c #E59BE59BE59B",
"U c #E8CAE2B5E1C8",
"Y c #ED5FE8B8E80A",
"T c #EAEAEAEAEAEA",
"R c #ECF3ECF3ECF3",
"E c #EFDFEFDFEFDF",
"W c #F1D9EF2CEEC4",
"Q c #F1F2F1F2F1F1",
"! c #F44AF4A9F4B6",
"~ c #F29CF591F5FD",
"^ c #FA17FA17FA17",
"/ c #F950FB0FFB46",
"( c #FC6EFD93FDBB",
") c #FFFEFFFEFFFE",
/* pixels */
"))))))))))))PnU)",
")))))))))))Z876L",
")))))))))))eqr=w",
"))))))))))~5;-&x",
")))))))))ENk>#2Y",
"))))))))TMFl+.i~",
")))))))IMAANoXyQ",
"))))))KNVFApggF)",
")))))GMVFNiV))))",
")(~^AANGkpF)))))",
"Wz94bNKjpK))))))",
"c0t;3HhsI)))))))",
"w<1*,udT))))))))",
"C:%$ @I)))))))))",
")Pva+f^)))))))))",
")))QKQ))))))))))"
};
