/* XPM */
static char *Sketcher_Element_Arc_EndPoint_svg[] = {
/* columns rows colors chars-per-pixel */
"16 16 94 2 ",
"   c #06BA7C3006BA",
".  c #15146E081514",
"X  c #4CBA75B94CBA",
"o  c #60B66D4E60B6",
"O  c #746B72DE72A7",
"+  c #7D847DAE7DB4",
"@  c #9FC7383F295C",
"#  c #E2851EF303BB",
"$  c #E0941FF305D3",
"%  c #FFFF29970AC6",
"&  c #EE792AB1103D",
"*  c #E17936F21E74",
"=  c #BFF34EB63E70",
"-  c #D46740272AEE",
";  c #D31245F831B5",
":  c #FFFF484D2D53",
">  c #F63150EF3957",
",  c #88C64BC14304",
"<  c #83186A2066FE",
"1  c #D8D061214FF5",
"2  c #E8A261854E1C",
"3  c #E3956A1A58A5",
"4  c #F9FF6AFA567A",
"5  c #CD2773686681",
"6  c #050488820504",
"7  c #1EFB88C21EFB",
"8  c #31BD925A31BD",
"9  c #5ED086CC5ED0",
"0  c #54A098BF54A0",
"q  c #5A6A98155A6A",
"w  c #3FD3A9703FD3",
"e  c #76A18F7076A1",
"r  c #6AE2B8136AE2",
"t  c #A6C081C87C7A",
"y  c #C93C831E79BF",
"u  c #CE1186687C1B",
"i  c #FFFF82E5708B",
"p  c #85688596859C",
"a  c #8B55887E8813",
"s  c #8FB58F1A8FB5",
"d  c #944E96B4970C",
"f  c #9A9F9A9F9A9F",
"g  c #BC3A8D2C86A0",
"h  c #A1D2A220A22C",
"j  c #A730A56EA730",
"k  c #AB7DAB7AAB79",
"l  c #ADB6ACD8ADB6",
"z  c #B004B004B004",
"x  c #A5B7B367A5B7",
"c  c #A029BA0AA029",
"v  c #B4A0B4A0B4A0",
"b  c #B855B855B855",
"n  c #CEEE8D75841B",
"m  c #D3C19EB99710",
"M  c #D1FAA7FDA1F5",
"N  c #D478AFF8AAC2",
"B  c #D69FB048AACD",
"V  c #C9B6B407B0ED",
"C  c #D8B0BC4CB845",
"Z  c #C3D5C3D5C3D5",
"A  c #C830C830C830",
"S  c #C7D3C969C99D",
"D  c #C97FC97BC97B",
"F  c #CC8ECEB6CF05",
"G  c #D00BD00BD00B",
"H  c #DF32C7DBC47D",
"J  c #DEB9C952C637",
"K  c #D74FCB45C98F",
"L  c #C2C6D145C2C6",
"P  c #D141CFFCD141",
"I  c #D310D310D310",
"U  c #D505D29ED505",
"Y  c #D510D517D510",
"T  c #D800D800D800",
"R  c #DAECDD91DDEF",
"E  c #DD34DD34DD34",
"W  c #DBF6E302DBF6",
"Q  c #E86EE10FE005",
"!  c #E451E451E451",
"~  c #E2C5E5ABE613",
"^  c #E83CE83CE83C",
"/  c #EC86E425E2F2",
"(  c #EF6DE929E844",
")  c #EA53EA82EA87",
"_  c #ED18ED18ED18",
"`  c #EFDCEFDDEFDD",
"'  c #F128ED36ECA2",
"]  c #EF81F13CEF81",
"[  c #F206F207F206",
"{  c #F50CF477F462",
"}  c #F6DFF65FF64A",
"|  c #F9A8F9A8F9A8",
" . c #FCE5FCCBFCE5",
".. c #FFFDFFFEFFFE",
/* pixels */
"..} Q { ........................",
"' u 1 5 ( ......................",
"N 2 i & g R ` ..................",
"C * % # t F I I ^ ..............",
"} m = , O + f A G E ............",
"....~ d p k b f v I Y ..........",
"......` ! | ..} G Z I E ........",
"..................! G Z ^ ......",
"....................Y I z | ....",
"....................[ I j P ....",
"} N n H ............| x 9 e } ..",
"M 3 4 - K ..........W 0 r 7 c ..",
"y > : $ < S ........L 8 w 6 X U ",
"H ; $ @ O h | ......] q   . o z ",
"../ V a p A ..........] x + s I ",
"......^ ^ ..............| ^ ^ .."
};
