/* XPM */
static char *Sketcher_Element_Line_StartingPoint_svg[] = {
/* columns rows colors chars-per-pixel */
"16 16 84 1 ",
"  c #0D7C6D410D7C",
". c #113470BD1134",
"X c #16BD75FB16BD",
"o c #1AD47E441AD4",
"O c #3AE259FF3AE2",
"+ c #63505AD6599D",
"@ c #60E25B2A5A50",
"# c #669E672B6740",
"$ c #6E9A6F036F13",
"% c #724071657240",
"& c #750A743C750A",
"* c #783B7C4E783B",
"= c #BE0525690F73",
"- c #C65D20AB08DC",
"; c #DFC6285F0F08",
": c #DEFB299B118D",
"> c #FFFF2A090B07",
", c #C1B63B0227B2",
"< c #FFFF3CAD201C",
"1 c #B53F6D2D62D8",
"2 c #CEB956D04584",
"3 c #D70854A641E3",
"4 c #D1D05ED44E44",
"5 c #FFFF693A538C",
"6 c #05EC8EB905EC",
"7 c #1E7A99821E7A",
"8 c #23DD857A23DD",
"9 c #334983F43349",
"0 c #3CEEA7D23CEE",
"q c #3FE892AC3FE8",
"w c #4B7A96194B7A",
"e c #C871833D7948",
"r c #876587728774",
"t c #89F08AF48B18",
"y c #89DF8DBE89DF",
"u c #8F6F8F6F8F6F",
"i c #904D904D904D",
"p c #94E094E094E0",
"a c #9DCB9D849DCB",
"s c #87F3A79987F3",
"d c #8472A9C98472",
"f c #8B10AD628B10",
"g c #A3CEA3C8A3CE",
"h c #A741A892A8C0",
"j c #A8CEA8CEA8CE",
"k c #AF66AF69AF69",
"l c #AE21B239AE21",
"z c #B238B238B238",
"x c #B5FDB5FDB5FD",
"c c #B7DCB7DCB7DC",
"v c #B8A0B8A0B8A0",
"b c #BBAABBAABBAA",
"n c #BE33BE33BE33",
"m c #C5489A0E93D5",
"M c #FFFF92248201",
"N c #CFF1A8A3A2FD",
"B c #D508BDA9BA5B",
"V c #8BEACC198BEA",
"C c #C647C368C306",
"Z c #C240C70AC240",
"A c #C497C61DC655",
"S c #CC6CCC6CCC6C",
"D c #C783D260C783",
"F c #C8F4D322C8F4",
"G c #D266D267D266",
"H c #D739D739D739",
"J c #D7E5DC5CD7E5",
"K c #D936D936D936",
"L c #DEE7DEE7DEE7",
"P c #E09FD660D4DF",
"I c #E5A6DDE8DCC7",
"U c #DC15E1C4DC15",
"Y c #E345E345E345",
"T c #E6E1E6E1E6E1",
"R c #EC67E8D6E853",
"E c #EA77EA77EA77",
"W c #ED00ED00ED00",
"Q c #F1F5F1EAF1F5",
"! c #F4E9F4CFF4CB",
"~ c #F75FF75FF75F",
"^ c #F7A4F823F829",
"/ c #F9ACF915F9AC",
"( c #FBBFFBBFFBBF",
") c #FFFEFFFEFFFE",
/* pixels */
")))))))))))(IP~)",
")))))))))))N43e~",
"))))))))))R2M5:B",
"))))))))))C,<>;B",
"))))))))(AAm=-1Q",
")))))))~nGQj@+t~",
"))))))QvKWxk$#rQ",
")))))ExYTxnuhhH)",
"))))YxELxntS))))",
")(UZxQGvxuH)))))",
"~fw9sAnzuL))))))",
"DqV0XlkpT)))))))",
"F876.*aE))))))))",
"(do O&T)))))))))",
")(Jy%g()))))))))",
")))QLQ))))))))))"
};
