/* XPM */
static char *Sketcher_Element_MidPoint_sm[] = {
/* columns rows colors chars-per-pixel */
"16 16 103 2 ",
"   c #59D45EB163C9",
".  c #60A4611C619D",
"X  c #66B866AD66A1",
"o  c #6E536E516E4E",
"O  c #729972567212",
"+  c #762875DF7591",
"@  c #8555CF513D00",
"#  c #8015D11530E7",
"$  c #856CDAE631E5",
"%  c #809BBDE744A7",
"&  c #844DBD5C4C88",
"*  c #9703BFA36F50",
"=  c #9F7EE41A5C7E",
"-  c #A16EEA365A59",
";  c #A8A3DBB976DF",
":  c #5A5477E7976E",
">  c #5C367B779CD6",
",  c #6053701680DA",
"<  c #624D74AE886E",
"1  c #69E39350BF85",
"2  c #73A090F6B03B",
"3  c #6BC59562C1CE",
"4  c #73739A1EC34A",
"5  c #72CE9C6BC8C3",
"6  c #76409E3BC8E5",
"7  c #714B9DE5CD62",
"8  c #7A94A690D578",
"9  c #876787658763",
"0  c #8A7B8A2989CF",
"q  c #89388BE78EC5",
"w  c #8E1B8E1B8E1B",
"e  c #8F888F888F88",
"r  c #859490B49CB7",
"t  c #946294629462",
"y  c #9C849C849C84",
"u  c #9E88BAF082C1",
"i  c #81039162A2DD",
"p  c #8E349A6AA78B",
"a  c #8D459AF0A97A",
"s  c #81C99968B268",
"d  c #89689F2FB65B",
"f  c #8D3DA1EFB7FD",
"g  c #97F8A60EB527",
"h  c #9DDBAC0ABB4A",
"j  c #A3A9A3AAA3AC",
"k  c #A8CBA8CBA8CB",
"l  c #AE0DAE0DAE0D",
"z  c #A4B2AFD8BBDD",
"x  c #AB1BB4E2BF3B",
"c  c #B742B742B742",
"v  c #B859B83EB820",
"b  c #BB4BBCB9BE4A",
"n  c #A2D5C08785FC",
"m  c #A6E2C0548E23",
"M  c #AA73C2AE92D5",
"N  c #AF48C3089BF6",
"B  c #B174C5FD9D7C",
"V  c #BF43F1208EA2",
"C  c #C2A0CFD9B5AB",
"Z  c #8DD0A96FC6CF",
"A  c #95EAB00CCC14",
"S  c #8A17ACD9D21B",
"D  c #9031B499DB50",
"F  c #A2AEBE32DBA8",
"G  c #C022C0E1C1A7",
"H  c #BB7CC242C980",
"J  c #B212CBE3E758",
"K  c #B543CDA3E7A4",
"L  c #C7A6C7A6C7A6",
"P  c #C3F2C96ACF4A",
"I  c #C911C904C8F6",
"U  c #CCEACCEBCCEB",
"Y  c #CFAACFAACFAA",
"T  c #CE31D7ABC4ED",
"R  c #D12CD944C957",
"E  c #CE0AD23DD6AE",
"W  c #D1C3D1C3D1C3",
"Q  c #D634D62FD628",
"!  c #D82DD82DD82D",
"~  c #DB1AE039D60A",
"^  c #D3E7D79BDB8D",
"/  c #D720DA2DDD5F",
"(  c #DA3CDA3CDA3C",
")  c #DC9FDC0FDB76",
"_  c #DD38DD37DD36",
"`  c #DFB1DFB1DFB1",
"'  c #DFCDE438DB80",
"]  c #DDEBE025E286",
"[  c #DFE6E1C6E3CA",
"{  c #E59BE59BE59B",
"}  c #E6E5E6E5E6E5",
"|  c #EA6EEB58EC5D",
" . c #EDBFEF4DEC44",
".. c #ECF3ECF3ECF3",
"X. c #EFDFEFDFEFDF",
"o. c #F072F16AEF87",
"O. c #F029F0AEF144",
"+. c #F47AF3E1F33E",
"@. c #F508F508F508",
"#. c #F5D4F599F55A",
"$. c #FA17FA17FA17",
"%. c #FC7DFBEEFCE1",
"&. c #FFFEFFFDFFFE",
/* pixels */
"&.&.&.&.&.&.&.&.&.&.&.&.[ P { &.",
"&.&.&.&.&.&.&.&.&.&.&.^ d Z s / ",
"&.&.&.&.&.&.&.&.&.&.&.h F J 5 g ",
"&.&.&.&.&.&.&.&.&.&.+.p 6 8 3 z ",
"&.&.&.&.&.&.&.&.&.O.I b < : i | ",
"&.&.&.&.&.&.&.&.| L W v O . 0 +.",
"&.&.&.&.&.&.&.{ L W W I o X 9 +.",
"&.&.&.&.&.&.` I Y Q W w k k Q &.",
"&.&.&.&.&.Q I U Q I 0 Y &.&.&.&.",
"&.&.@.$.Q Y U ( b w Q &.$.@.%.&.",
"..z f p L L ` c w ' &...m * M o.",
"x A J 4 r ( l t { &.&.B ; V @ N ",
"g S D 7 , 9 y | &.&.&.n = - $ u ",
"E 2 3 >   + { &.&.&.&.T % # & R ",
"&.] H q O j $.&.&.&.&.%.~ C ' &.",
"&.&.&.+.` @.&.&.&.&.&.&.&.&.&.&."
};
