/* XPM */
static char *Sketcher_ConstrainCoincident_sm[] = {
/* columns rows colors chars-per-pixel */
"16 16 112 2 ",
"   c #7369624F16EC",
".  c #775365961798",
"X  c #6A2D5CBD2177",
"o  c #79C46B142B0C",
"O  c #7D9E70B637F5",
"+  c #7BCF727F49A5",
"@  c #7BD5741A5246",
"#  c #7E9076D454D5",
"$  c #7F91792C5D02",
"%  c #7F477A1362F2",
"&  c #8EDF78771490",
"*  c #851372121F25",
"=  c #8AB176481B67",
"-  c #944E7CE512D8",
";  c #95157E0D1820",
":  c #82E27724430E",
">  c #89B17E534C62",
",  c #8082798F5BA1",
"<  c #9CE781850941",
"1  c #A69989450770",
"2  c #AF248FA802DF",
"3  c #A3C3876F083D",
"4  c #B99F982100D0",
"5  c #B87E9DDA289A",
"6  c #BDD8A1202204",
"7  c #BCA3A0AE24B7",
"8  c #BD46A3022C15",
"9  c #BD04A34D30A2",
"0  c #BE60A4773214",
"q  c #C3AF9FC60000",
"w  c #C4E1A0CA0108",
"e  c #C6A3A20D001E",
"r  c #CB1EA5760000",
"t  c #CE05A75B0000",
"y  c #D0E8A9AD0000",
"u  c #D408AD3B0000",
"i  c #DD46B4020000",
"p  c #E6DBBBBC0000",
"a  c #E6EABF6806E0",
"s  c #E081BBF4161F",
"d  c #F012C4220000",
"f  c #F5BAC7CE00E0",
"g  c #F5D8C93A0000",
"h  c #FACFCD280000",
"j  c #F841D48336D0",
"k  c #9BF18D734CE0",
"l  c #AC7D991042DE",
"z  c #BB58A67048AF",
"x  c #BA8FA6B04DC1",
"c  c #B01EA0EA5D3D",
"v  c #BFB5ABA55348",
"b  c #B702A5E25A7F",
"n  c #869580456469",
"m  c #8756818267BF",
"M  c #898A86B17A48",
"N  c #8D898ABF7EBF",
"B  c #8F468C517F80",
"V  c #BCAFABBD60AE",
"C  c #C12FB1936C45",
"Z  c #C195B3F67680",
"A  c #90378EBD882D",
"S  c #95F2929383EA",
"D  c #9676930E8467",
"F  c #989D9571874E",
"G  c #98EC95FC88C2",
"H  c #9B0D98F48FE1",
"J  c #99F0986491A5",
"K  c #9C1A9A0F90F4",
"L  c #9F5B9D599483",
"P  c #9ACD9AC49AA4",
"I  c #9EC99E549C59",
"U  c #BD58B28982AC",
"Y  c #A319A1729A2A",
"T  c #A3AEA2B99E87",
"R  c #A519A3B49DC0",
"E  c #A62BA51FA087",
"W  c #B33EB0ECA68C",
"Q  c #B20BB06CA921",
"!  c #B3D8B367B177",
"~  c #BC1FBBFEBB7F",
"^  c #BC54BC34BBA9",
"/  c #BC68BC49BBC2",
"(  c #BD25BD22BD0B",
")  c #C707BA9F826A",
"_  c #C2FCB9CB9089",
"`  c #C95BBF67921E",
"'  c #C63CBE8F9D0F",
"]  c #EB43D7BE8182",
"[  c #F762E37D81FF",
"{  c #CE96C634A021",
"}  c #CB91C546A97B",
"|  c #D071C9B5ABD9",
" . c #D484CEEFB631",
".. c #C330C323C2E4",
"X. c #C754C757C76D",
"o. c #CAE6CB48CD39",
"O. c #D09ED0ECD240",
"+. c #D2C4D35AD5F6",
"@. c #D86AD902DBA6",
"#. c #DABADB2EDD30",
"$. c #E04FE0BAE28E",
"%. c #E7A8E709E419",
"&. c #E6FCE763E929",
"*. c #EC5EEBFCEA3C",
"=. c #EB29EBCDEEA4",
"-. c #EE76EE83EEBD",
";. c #EC52ED17F083",
":. c #F2C5F288F175",
">. c #F2CEF32FF4D5",
",. c #F66CF66CF66E",
"<. c #F6F5F75DF920",
"1. c #FFFEFFFFFFFF",
/* pixels */
"1.1.1.1.1.1.<.;.;.1.1.1.1.1.1.1.",
"1.1.1.1.&.E m : : m ! >.1.1.1.1.",
"1.1.1.X.+ b ] j f i < $ $.1.1.1.",
"1.1.O.o s [ ' k ; 4 g e @ =.1.1.",
"1.<., u a > P W Q A * d 2 H 1.1.",
"1.o.& h = Y v 6 7 C I - d O =.1.",
"1.R 4 i % V 0  .| 5 U # p - o.1.",
"1.G r e M 9 ` 1.1.Z x M y 3 ( 1.",
"1.F t q M 8 { 1.1.) z B t 1 ~ 1.",
"1.F r e B l } 1.1._ c B t 1 ~ 1.",
"1.F r q J %.:.1.1.-.*.S t 1 ~ 1.",
"1.F t q L 1.1.1.1.1.1.S t 1 ~ 1.",
"1.K .   T 1.1.1.1.1.1.J . X ..1.",
"1.*.+.+.-.1.1.1.1.1.1.-.@.#.,.1.",
"1.1.1.1.1.1.1.1.1.1.1.1.1.1.1.1.",
"1.1.1.1.1.1.1.1.1.1.1.1.1.1.1.1."
};
