/* XPM */
static char *Sketcher_Element_StartingPoint_sm[] = {
/* columns rows colors chars-per-pixel */
"16 16 98 2 ",
"   c #5C5F65E35333",
".  c #60A4611C619D",
"X  c #66B866AD66A1",
"o  c #6E536E516E4E",
"O  c #7289722D726F",
"+  c #76017572768D",
"@  c #6CD6AA0B3121",
"#  c #68BA87904AA2",
"$  c #8912E03933EF",
"%  c #8813D3763E40",
"&  c #8340BC994B3D",
"*  c #8B85A15E761F",
"=  c #949CAF257A8B",
"-  c #9CA6E0B05A14",
";  c #A390EAB25E1D",
":  c #983EC0C470B1",
">  c #A3DFD70E71B6",
",  c #5A5477E7976E",
"<  c #624D74AE886E",
"1  c #6FEC8F38B0A1",
"2  c #69FE9360BF94",
"3  c #74C691EAB10E",
"4  c #71229701BF56",
"5  c #6BC59562C1CE",
"6  c #6E2099D9C877",
"7  c #72CE9C6BC8C3",
"8  c #76409E3BC8E5",
"9  c #7A94A690D578",
"0  c #876787658763",
"q  c #8A9E8FE28592",
"w  c #8A7B8A2989CF",
"e  c #8E1B8E1B8E1B",
"r  c #946294629462",
"t  c #9C849C849C84",
"y  c #9F8CBB17848F",
"u  c #81039162A2DD",
"i  c #8E349A6AA78B",
"p  c #81C99968B268",
"a  c #89689F2FB65B",
"s  c #8BF7A0B0B6E1",
"d  c #96CFA550B4CE",
"f  c #98F6A6E6B5D0",
"g  c #9DDBAC0ABB4A",
"h  c #A008ACF9BAD1",
"j  c #A3AAA3ADA3A6",
"k  c #A8CBA8CBA8CB",
"l  c #AE0DAE0DAE0D",
"z  c #A4B2AFD8BBDD",
"x  c #A3DAB036BD66",
"c  c #A9E1B3F8BEB5",
"v  c #B742B742B742",
"b  c #B859B83EB820",
"n  c #BB4BBCB9BE4A",
"m  c #AB89C2BB9502",
"M  c #B05AC3579DC7",
"N  c #BF12CC4AB233",
"B  c #C24BF1EB93D1",
"V  c #8DD0A96FC6CF",
"C  c #8CC5AFD4D532",
"Z  c #8D9AB2C6DA86",
"A  c #9ABAB4C7D0AA",
"S  c #ABEBB665C19A",
"D  c #A2AEBE32DBA8",
"F  c #BF02C5B8CCFA",
"G  c #B1C7CB21E660",
"H  c #C0C1C0C1C0C1",
"J  c #C70BC70BC70B",
"K  c #C3F2C96ACF4A",
"L  c #C911C904C8F6",
"P  c #CBBACBBACBBA",
"I  c #CCEACCEBCCEA",
"U  c #CFAACFAACFAA",
"Y  c #D04AD86DC855",
"T  c #CBA4D074D59F",
"R  c #CEFCD321D77D",
"E  c #D1C3D1C3D1C3",
"W  c #D3B3D3B5D3B6",
"Q  c #D51DD51DD51D",
"!  c #D61FD61FD61F",
"~  c #D3E7D79BDB8D",
"^  c #D720DA2DDD5F",
"/  c #DA3CDA3CDA3C",
"(  c #DC52DB3BDD63",
")  c #D9B2DC4CDF19",
"_  c #DFB1DFB1DFB1",
"`  c #DF15E36DDAD9",
"'  c #DEA3E0DAE347",
"]  c #E59BE59BE59B",
"[  c #EA6EEB58EC5D",
"{  c #ED5AEE22EEFA",
"}  c #EFDFEFDFEFDF",
"|  c #F06FF181EF6A",
" . c #F032F0B2F133",
".. c #F47AF3E1F33E",
"X. c #F508F509F508",
"o. c #FA17FA17FA17",
"O. c #FC99FC64FC14",
"+. c #FFFEFFFEFFFE",
/* pixels */
"+.+.+.+.+.+.+.+.+.+.+.+.' K ] +.",
"+.+.+.+.+.+.+.+.+.+.+.~ a V p ^ ",
"+.+.+.+.+.+.+.+.+.+.+.g D G 7 f ",
"+.+.+.+.+.+.+.+.+.+...i 8 9 5 z ",
"+.+.+.+.+.+.+.+.+. .L n < , u [ ",
"+.+.+.+.+.+.+.+.[ J E b O . w ..",
"+.+.+.+.+.+.+.] J E E L o X 0 ..",
"+.+.+.+.+.+._ L U ! E e k k ! +.",
"+.+.+.+.+./ J U ! L w U +.+.+.+.",
"+.+.X.o.E U U / H e ! +.o.X.O.+.",
"{ m : = n L _ v e _ +.{ h s x  .",
"M > B % * _ l r ] +.+.S A G 4 c ",
"y - ; $ # 0 t [ +.+.+.f C Z 6 d ",
"Y & % @   + ] +.+.+.+.T 1 2 3 R ",
"+.` N q O j o.+.+.+.+.+.) F ' +.",
"+.+.o.| _ ..+.+.+.+.+.+.+.+.+.+."
};
