/* XPM */
static char *Sketcher_Element_Arc_MidPoint_svg[] = {
/* columns rows colors chars-per-pixel */
"16 16 91 1 ",
"  c #05D37B7705D3",
". c #295C6903295C",
"X c #782663A460B6",
"o c #66FE75D066FE",
"O c #746B72DE72A7",
"+ c #7D847DAE7DB4",
"@ c #BAAA29D11514",
"# c #E2851EF303BB",
"$ c #E15C222206BA",
"% c #F80022D20504",
"& c #FFFF29970AC6",
"* c #EE792AB1103D",
"= c #E17936F21E74",
"- c #BFF34EB63E70",
"; c #E46D481D31BD",
": c #88C64BC14304",
"> c #997455924CBA",
", c #A92F68285ED0",
"< c #84B77BE27AA3",
"1 c #A4AA7C6976A1",
"2 c #FFFF587F3FD3",
"3 c #CD1668D55A6A",
"4 c #D37B648654A0",
"5 c #D8D061214FF5",
"6 c #E8A261854E1C",
"7 c #CD2773686681",
"8 c #FA857CE26AE2",
"9 c #2AEE85F52AEE",
"0 c #31B5886E31B5",
"q c #39579F923957",
"w c #2D53A0F32D53",
"e c #567AAE51567A",
"r c #58A5A34458A5",
"t c #79BFA42D79BF",
"y c #A6C081C87C7A",
"u c #CE1186687C1B",
"i c #FFFF82E5708B",
"p c #85688596859C",
"a c #89AA895D89AA",
"s c #8E948F918FB5",
"d c #944E96B4970C",
"f c #999A999A999A",
"g c #BC3A8D2C86A0",
"h c #841BAC53841B",
"j c #A22CA1FCA22C",
"k c #A3EAA6C7A730",
"l c #AB7DAB7AAB79",
"z c #AC1AAD83ADB6",
"x c #B004B004B004",
"c c #BF36A8ECA5B7",
"v c #A1F5BBBAA1F5",
"b c #B4A0B4A0B4A0",
"n c #B0EDBE47B0ED",
"m c #B855B855B855",
"M c #D3C19EB99710",
"N c #C155ABD5A8BF",
"B c #D05BA63BA029",
"V c #D478AFF8AAC2",
"C c #D8B0BC4CB845",
"Z c #AACDC257AACD",
"A c #C3D5C3D5C3D5",
"S c #C830C830C830",
"D c #C97BC97DC97B",
"F c #CC8ECEB6CF05",
"G c #D00BD00BD00B",
"H c #DDE7C607C2C6",
"J c #C47DD2D2C47D",
"K c #C98FD0F1C98F",
"L c #CEE5D0F6D141",
"P c #D310D310D310",
"I c #D800D800D800",
"U c #DAECDD91DDEF",
"Y c #DD34DD34DD34",
"T c #DE27DE27DE27",
"R c #E911DD90DBF6",
"E c #E86EE10FE005",
"W c #E451E451E451",
"Q c #E2F2E81AE2F2",
"! c #E2C5E5ABE613",
"~ c #E5F9E6A0E6B8",
"^ c #E83CE83CE83C",
"/ c #EF6DE929E844",
"( c #E99CE999E999",
") c #ED18ED18ED18",
"_ c #EFDCEFDDEFDD",
"` c #F128ED36ECA2",
"' c #F414F156F0EE",
"] c #F6CFF60CF5EB",
"[ c #F9A8F9A8F9A8",
"{ c #FCB5FCDEFCE5",
"} c #FFFEFFFDFFFE",
/* pixels */
"}]E]}}}}}}}}}}}}",
"`u57/}}}}}}}}}}}",
"V6i*gU_}}}}}}}}}",
"C=&#yFFP_}}}}}}}",
"]M-:O+fDFY}}}}}}",
"}}!dplmfbPI}}}}}",
"}}}_W[}]FAPT}}}}",
"}}}}}}}}}WFA~}}}",
"}}}}}}}}}}YFz[}}",
"}}}}}}}}}}`FkP}}",
"]ZhJ}}}}}}}c,1]}",
"vre9K}}}}}R48=B}",
"tqw oS}}}}H;2%>L",
"J0 .Oj[}}}`3$@Xz",
"}QnaaS}}}}}`N<sI",
"}}}(!}}}}}}}}~~}"
};
