/* XPM */
static char *Sketcher_CreateOctagon_sm[] = {
/* columns rows colors chars-per-pixel */
"16 16 88 1 ",
"  c #72FB53064E6D",
". c #6CC862F2618A",
"X c #6EFF6EFF6EFF",
"o c #7C1B654F6209",
"O c #71A271A271A2",
"+ c #766676667666",
"@ c #780A780A780A",
"# c #7BB67BB67BB6",
"$ c #7CDA7CDA7CDA",
"% c #AECA26941309",
"& c #B53332571FA2",
"* c #E8931C920000",
"= c #C6D027E4111A",
"- c #EA9221070576",
"; c #FC3E22D1041F",
": c #CA84360120B6",
"> c #F2203E3A2499",
", c #D60841982C26",
"< c #D544475332EA",
"1 c #FFFF47CD2CA5",
"2 c #F2E0513039F5",
"3 c #B2F6538B4650",
"4 c #C5B655A745A2",
"5 c #FFFF5B8C434B",
"6 c #D862658B5516",
"7 c #F3A56DE25A99",
"8 c #CE387A046DDE",
"9 c #BFE180B2778E",
"0 c #CE9882AF77E1",
"q c #FE1A88407751",
"w c #821A821A821A",
"e c #8A9B838C828E",
"r c #8A058A058A05",
"t c #8E828E828E82",
"y c #97808BFD8A52",
"u c #912191219121",
"i c #94E294E294E2",
"p c #989B989A989A",
"a c #9C969C969C96",
"s c #9DDE9DDE9DDE",
"d c #A3D79EDC9E23",
"f c #BAA4A1089D6A",
"g c #A5CCA5CCA5CC",
"h c #B00FA354A183",
"j c #A8A5A9B0A9D8",
"k c #AA1FAA1FAA1F",
"l c #AD8FAB92AB50",
"z c #AFC5AFC5AFC5",
"x c #B53DB53DB53D",
"c c #B7B2B7B2B7B2",
"v c gray72",
"b c #BBC8BBC8BBC8",
"n c #BBD6BCA2BCBF",
"m c #BE26BE26BE26",
"M c #CFA28CCB8320",
"N c #C35F9B6A9648",
"B c #D1769A739316",
"V c #D3D6A28D9B73",
"C c #C0E3C0E3C0E3",
"Z c #C5D5C5D5C5D5",
"A c #C96BC97BC97D",
"S c #CBA1CBA1CBA1",
"D c #CECACEC9CEC9",
"F c #D00BD00BD00B",
"G c #DF04C802C4B1",
"H c #D611CB82C9FD",
"J c #D3DCD3DBD3DC",
"K c #D4F4D4F4D4F4",
"L c #D5F8D620D625",
"P c #DBC1DBC1DBC1",
"I c #DC9CDC9CDC9C",
"U c #E132CBB9C89D",
"Y c #E210CFDACD3A",
"T c #E3B5D2A8D031",
"R c #E502D4E7D295",
"E c #E40EE40EE40E",
"W c #E3B8E469E480",
"Q c #E52BE52BE52B",
"! c #EE13E704E601",
"~ c #E6EEE85EE892",
"^ c #EF03EF03EF03",
"/ c #ED66F0DDF154",
"( c #F487F485F485",
") c #F754F81AF837",
"_ c #F807F807F807",
"` c #FAC4FAC4FAC4",
"' c #FB8EFD6FFDA1",
"] c gray100",
/* pixels */
"]]]](^~ILI`]]]]]",
"]]]PDJLLJLL(']]]",
"]]EJbuw+OpJf8M!]",
"]^JCXukCLCe4q>0'",
"`JJ@z`]]]]H,1;3/",
"PLtu(]UVT]`9=&o~",
"LDwI]G67<R]Edlk'",
"IJx]]B25-N]]LAD]",
"~Jb`]Y:*%y]]LDm]",
"^Kx/]]h .n]^Dbg]",
"`DDL`](LL'`DD@b]",
"]PxLD(]]](JLri(]",
"]`zpJDJJLLPg$~]]",
"]]]AumDZxgrXA]]]",
"]]]]~a+O$taZ`]]]",
"]]]]](LP^`]]]]]]"
};
