/* XPM */
static char *Sketcher_EditSketch_sm[] = {
/* columns rows colors chars-per-pixel */
"16 16 67 1 ",
"  c #3F773F773F77",
". c #488F488F488F",
"X c #508350835083",
"o c #5E1769537651",
"O c #633663366336",
"+ c #65D465D465D4",
"@ c #685868586858",
"# c #6B846B846B84",
"$ c #73DD73DD73DD",
"% c #76B676AF76A3",
"& c #780678067806",
"* c #15C53C94AF6B",
"= c #2CB4499D8F84",
"- c #2E105753AE77",
"; c #320D560AA6B2",
": c #30C25DF4AF8B",
"> c #2CFA62A6B5C6",
", c #47E56669B20F",
"< c #66DB7841B85C",
"1 c #155B4D6FDCF0",
"2 c #1CBD59B8D56C",
"3 c #1A195870DFFF",
"4 c #2DF36B3BD64A",
"5 c #20ED65B1E6BA",
"6 c #29527B53E6FC",
"7 c #28EF7D6BE6ED",
"8 c #26C97081E8C4",
"9 c #296E7AD8EEB5",
"0 c #5E3577D6C7B8",
"q c #5D0E79C1C4DB",
"w c #4DFF816FBB39",
"e c #33778397E1FB",
"r c #66CC917EC185",
"t c #71329E20CFBB",
"y c #7F089FB7CFA0",
"u c #863988428DB8",
"i c #8DE98DE98DE9",
"p c #85F988AE9191",
"a c #917891789178",
"s c #9CFE9CFE9CFE",
"d c #913896BBA60D",
"f c #A398A398A398",
"g c #A8DAA8DAA8DA",
"h c #ABA2ABA2ABA2",
"j c #AE2CAD94AC5C",
"k c #A4A7B06BC92C",
"l c #B198C569DA89",
"z c #C1C5C2F7C430",
"x c #C3C6C3C6C3C6",
"c c #C38FC3F3C498",
"v c #C819C808C7F6",
"b c #CB7FCC1FCD5E",
"n c #CC13CCF5CE79",
"m c #D19ED2D4D7EA",
"M c #DC9ADBAADAA4",
"N c #DD63DD6EDD8B",
"B c #D114DAC4E4FB",
"V c #DFC4E536EC01",
"C c #E2F4E511E724",
"Z c #E532E62BE9A4",
"A c #EAEAEB8DED94",
"S c #F373F373F373",
"D c #F5B7F4EDF323",
"F c #F7EFF7EFF7EF",
"G c #F9B9F9B7F9B3",
"H c #FCCDFC83FBBC",
"J c #FFFEFFFEFFFD",
/* pixels */
"JJJJJJJJJJJJJJJJ",
"JJJJJJJJGJJJJJJJ",
"JJJJJJNupmJJJJJJ",
"JJJJJJb=*<HJJJJJ",
"JJJJJJn-10GJJJJJ",
"JJJJJGc:3qDJJJJJ",
"JJJJJzo>5;dAJJJJ",
"JJJJJCw682,ZJJJJ",
"JMfssMle94kjffzJ",
"Jh +@vGt7yN%@.%H",
"Jh+SJJJBrVJGGi%J",
"Jh+FJJJGAJJJJa&G",
"Jh+FJJJJJJJJJa&J",
"JfXsfffffffffO$H",
"Jc@@@#@@@@@@@@sJ",
"JJGGGGGGGGGGGGGJ"
};
