/* XPM */
static char *Sketcher_External_sm[] = {
/* columns rows colors chars-per-pixel */
"16 16 148 2 ",
"   c #6D5A2C933675",
".  c #572756F55C78",
"X  c #6A5B6A197181",
"o  c #62A963597B5F",
"O  c #8893448A3B75",
"+  c #C51A46763A79",
"@  c #85D458F0526C",
"#  c #ABC351D243F5",
"$  c #BC6D548E454D",
"%  c #ADD150F75845",
"&  c #D6DA682E5717",
"*  c #1EF01EF09B6C",
"=  c #333A333A8B4E",
"-  c #5DEF4E868482",
";  c #536A53739C6E",
":  c #54B35A1C9A3C",
">  c #5E3A6B779D3E",
",  c #724B731891D5",
"<  c #54295B33A568",
"1  c #52B35BE2BFE2",
"2  c #59176299AE82",
"3  c #5FBE6830B00D",
"4  c #5DA270ADA6D0",
"5  c #5810669BBAE2",
"6  c #64E665EBA19C",
"7  c #69E77C0FABC3",
"8  c #752C752BA294",
"9  c #6C6F7175B044",
"0  c #57AC6339C27E",
"q  c #5D856795C4F2",
"w  c #5CBD6E23C5F3",
"e  c #5F3A72D0C777",
"r  c #60DC6F1AC74C",
"t  c #60E66F1FC751",
"y  c #68D16DB2C7DE",
"u  c #65F1722CC41D",
"i  c #60D47112C7A9",
"p  c #65BD7364C948",
"a  c #6707754ECA3F",
"s  c #65AD7714C9C5",
"d  c #6E9A739CC93B",
"f  c #62177BD2CA1B",
"g  c #62A67C9ECB9C",
"h  c #6C1E7D25CD14",
"j  c #70E37A9EC75D",
"k  c #75B97FDDCD93",
"l  c #66C9811CCC7A",
"z  c #6866826BCD19",
"x  c #6A4C849FCE1C",
"c  c #6D92848CCF87",
"v  c #724F814DCE94",
"b  c #7FE1874ACA0C",
"n  c #73A78432D09C",
"m  c #790684FDD249",
"M  c #739E8B81D1EF",
"N  c #75318F3DD322",
"B  c #7C478927D246",
"V  c #7BF28E51D4CC",
"C  c #7D5B8EB4D549",
"Z  c #7A749477D5AB",
"A  c #7C879638D67D",
"S  c #7ECC98C7D7A9",
"D  c #83CE83CB8419",
"F  c #A034A0329FD1",
"G  c #8C4B8CBAA6C2",
"H  c #864B9004B424",
"J  c #A5C1A0CDA6F6",
"K  c #A36BA370A82B",
"L  c #B064B062AFE1",
"P  c #B742B70EB975",
"I  c #B8A5B8FBBCCE",
"U  c #BEBBBFFCBF30",
"Y  c #D490BF7FBD30",
"T  c #83D08EC0D4B9",
"R  c #86ED8ED6D485",
"E  c #87739E57DB11",
"W  c #8FE398CED960",
"Q  c #8B8B9E59DC3F",
"!  c #91A19977D97D",
"~  c #961799F1D8EF",
"^  c #9A519E4EDA6C",
"/  c #8753A111DBAD",
"(  c #8A20A11DDC60",
")  c #8F93A50CDEE7",
"_  c #9137A3EBDF28",
"`  c #9347A3A1DF8D",
"'  c #9782A341DEA1",
"]  c #9CC3A0F0DB9F",
"[  c #9163AA7CE02D",
"{  c #A1F0A21CC3F8",
"}  c #A26AA27CD28F",
"|  c #A7E7A7E7D7FB",
" . c #A222A530DCA0",
".. c #A9DDAD76E02B",
"X. c #BA2CBA95DA5E",
"o. c #96E5ABC2E209",
"O. c #94ACAE38E1C8",
"+. c #98E5AC5FE292",
"@. c #9AA8ACD1E342",
"#. c #9960B142E452",
"$. c #9EFAB817E6B3",
"%. c #A9A5AD80E0A6",
"&. c #ADE1B102E1C9",
"*. c #A355BBDDE8C3",
"=. c #A4F7BDADE950",
"-. c #A8B1BCD8EA44",
";. c #B36DB526E2F8",
":. c #B7F3B99FE4DB",
">. c #ABC2C17DEBFA",
",. c #A9EFC31FEBAC",
"<. c #ADBAC681EDBA",
"1. c #B494CCD3F0DB",
"2. c #B4D3CD7FF0B7",
"3. c #BD0BD5EAF49E",
"4. c #C51CC4D9C26F",
"5. c #CA9ECBDBCC18",
"6. c #CED5CE92D0FA",
"7. c #C633C91FD8CF",
"8. c #CF7ACF7ADF18",
"9. c #D3AED3AED3A1",
"0. c #DBA0DBA2D981",
"q. c #D895DA71DAB6",
"w. c #DCC3DCB9DB77",
"e. c #E06CD0D5CE86",
"r. c #E839DCCEDB33",
"t. c #C163C163E1F3",
"y. c #CA77CFDEE075",
"u. c #C3D2C4CDE90B",
"i. c #C6C8C74CE9FD",
"p. c #DD30DCEFE50E",
"a. c #D1EED254EE3C",
"s. c #DE52DE69EAA8",
"d. c #DD4DDDB2F2BF",
"f. c #E827E832E6AA",
"g. c #EB6BE236E060",
"h. c #ED4FE6C0E5D4",
"j. c #E1A1E26EEC07",
"k. c #E5F8E4B8E9BB",
"l. c #E250E268F47B",
"z. c #EA14E9DFF763",
"x. c #F7F3F7F1F762",
"c. c #F11AF0FCFA22",
"v. c #F837F7DEFD52",
"b. c #F921F89AF97E",
"n. c #FAC4FA43FAE9",
"m. c #FB5BFB6FFE33",
"M. c #FCD3FCD7FECA",
"N. c #FFFEFFFDFFFC",
/* pixels */
"N.N.N.N.N.e.g.N.N.N.N.N.N.N.N.N.",
"N.N.N.N.r.& % { } | 8.t.s.k.Y e.",
"N.N.N.N.h.#   , ; = 8 * 6 - + $ ",
"N.N.N.N.N.5.U f.0.4.6.K I J O @ ",
"N.N.N.N.N.N.N.N.N.y.H b.N.N.0.0.",
"N.N.N.N.N.N.N.N.n.7 4 n.N.N.N.N.",
"N.N.N.N.N.c.c.v.j.> 7.N.N.N.N.N.",
"N.N.N.l.%.W W ! b 3 ] ..&.i.m.N.",
"N.d...' -.1.<.*.#.) A p 1 d c.N.",
"..y m ` @.@.o.o.O.V p w e v c.N.",
"~ _ @.Q V h e w q n M z f j p.x.",
"] -.3.,.O.S x g w Q A z f 2 X L ",
"] *.1.=.[ A z g w E A g p < . F ",
"^ ` $.O./ N l g w A c 5 : o D 9.",
":.R T B v p e p 0 u 9 G P 0.x.N.",
"N.c.z.d.a.u.;. .~ X.f.n.N.N.N.N."
};
