/* XPM */
static char *Sketcher_CreatePoint_sm[] = {
/* columns rows colors chars-per-pixel */
"16 16 33 1 ",
"  c #725B41723A3C",
". c #7114690767D5",
"X c #9E6D22700FF7",
"o c #E8F819ED0000",
"O c #F0281D730000",
"+ c #E69B20D70524",
"@ c #FFFF2F2C0FC2",
"# c #E39036AF1CD6",
"$ c #DF2E4FE33A65",
"% c #E2514AC03440",
"& c #FFFF4CA83192",
"* c #BEBF56E947B8",
"= c #8C97609A5A37",
"- c #834C7BEE7ACF",
"; c #DE9C54C1403B",
": c #C80C6B075D42",
"> c #FFFF6C2A55FA",
", c #C8B882827801",
"< c #BC6C96C59145",
"1 c #FFFFA5E097FB",
"2 c #D931C0CDBD3B",
"3 c #DC02C6FFC3DD",
"4 c #DCB5C8A1C5A5",
"5 c #D0FBD1D4D1F4",
"6 c #D74ED292D1DA",
"7 c #D751DA18DA82",
"8 c #EFC3ECADEC3A",
"9 c #EC71ED05ED1B",
"0 c #F2F1F175F13B",
"q c #F472F701F75F",
"w c #F6BAF651F63E",
"e c #F994FA1FFA34",
"r c #FFFEFFFEFFFE",
/* pixels */
"rrrrrrrrrrrrrrrr",
"rrrrrrrrrrrrrrrr",
"rrrrrrrrrrrrrrrr",
"rrrrrrrrrrrrrrrr",
"rrrrrrrrrrrrrrrr",
"rrrrrrw430rrrrrr",
"rrrrrw,;%:8rrrrr",
"rrrrr3$1>+<rrrrr",
"rrrrr2#&@o=qrrrr",
"rrrrr9*oOX-errrr",
"rrrrrr6= .5rrrrr",
"rrrrrrr979rrrrrr",
"rrrrrrrrrrrrrrrr",
"rrrrrrrrrrrrrrrr",
"rrrrrrrrrrrrrrrr",
"rrrrrrrrrrrrrrrr"
};
