/* XPM */
static char *Sketcher_Element_Arc_Edge_svg[] = {
/* columns rows colors chars-per-pixel */
"16 16 106 2 ",
"   c #37344E290CEE",
".  c #087E6F7F087E",
"X  c #0ACD75170D44",
"o  c #0CE475140CE4",
"O  c #1C4D7D701C4D",
"+  c #201A6FB3201A",
"@  c #2D9B681C2D9B",
"#  c #2A7F6E3C2CAB",
"$  c #204A7F29204A",
"%  c #57F942890D9F",
"&  c #58EE6CC3591E",
"*  c #6D566F996B92",
"=  c #782663A460B6",
"-  c #754A71A6711E",
";  c #BAAA29D11514",
":  c #9FC7383F295C",
">  c #E19F1E8502D5",
",  c #E0941FF305D3",
"<  c #E17321ED0672",
"1  c #F80022D20504",
"2  c #FFFF29A70AE8",
"3  c #EE812AB41045",
"4  c #E17936F21E74",
"5  c #BFF64EB83E74",
"6  c #D46740272AEE",
"7  c #D31245F831B5",
"8  c #FFFF484D2D53",
"9  c #E46D482131C4",
"0  c #F63150EF3957",
"q  c #88B24BB742F0",
"w  c #997455924CBA",
"e  c #95287B155F8E",
"r  c #83186A2066FE",
"t  c #84B77BE27AA3",
"y  c #A3C27BFC75B9",
"u  c #FFFF58823FDA",
"i  c #CD1668D55A6A",
"p  c #D46264EF5588",
"a  c #D8D061214FF4",
"s  c #E8A261854E1C",
"d  c #E3956A1A58A5",
"f  c #F9FF6AFA567A",
"g  c #CD31736D668C",
"h  c #FC0D7D966C6A",
"j  c #2E8B86002E8B",
"k  c #30AA85B930AA",
"l  c #3EEB85293EEB",
"z  c #3F53861D3F53",
"x  c #39038AAF3903",
"c  c #3E9C8E6E3F17",
"v  c #7CF98C627CF9",
"b  c #8A75907970FF",
"n  c #C93C831E79BF",
"m  c #CE1186687C1B",
"M  c #FFFF82E87092",
"N  c #85CE85C58602",
"B  c #891B899889AA",
"V  c #8B55887E8813",
"C  c #8E948F918FB5",
"Z  c #81FA9AB681FA",
"A  c #944E96B4970C",
"S  c #885DB084885D",
"D  c #A1D2A220A22C",
"F  c #ADB6AC81ADB3",
"G  c #BBACB9E2BBAC",
"H  c #CEEE8D75841B",
"J  c #D3C19EB99710",
"K  c #C155ABD5A8BF",
"L  c #D05BA63BA029",
"P  c #D1FAA7FDA1F5",
"I  c #D478AFF8AAC2",
"U  c #D69FB048AACD",
"Y  c #C9B6B407B0ED",
"T  c #D8B0BC4CB845",
"R  c #AA51C2BDAA51",
"E  c #B189C658B189",
"W  c #B4A4CBE1B7A7",
"Q  c #BFC4CF8DBFC4",
"!  c #C72BCB72C72B",
"~  c #C7D3C969C99D",
"^  c #DDE7C607C2C6",
"/  c #DEB9C952C637",
"(  c #D74FCB45C98F",
")  c #C655D331C655",
"_  c #D15FD21CD3C2",
"`  c #D085D481D505",
"'  c #D51CD512D510",
"]  c #DA6AE03CDA6A",
"[  c #E90BDD8DDBF0",
"{  c #E86EE10FE005",
"}  c #E451E451E451",
"|  c #E2C5E5ABE613",
" . c #E720E7C5E720",
".. c #EC86E425E2F2",
"X. c #E682EA16E682",
"o. c #E99CE999E999",
"O. c #EA53EA82EA87",
"+. c #EFB6E94FE88D",
"@. c #EFDCEFDDEFDD",
"#. c #F128ED36ECA2",
"$. c #F13DF1A6F141",
"%. c #F6DDF612F5F9",
"&. c #F99FF9A0F99F",
"*. c #FC3CFADEFC3C",
"=. c #FD5CFE28FE45",
"-. c #FFFDFFFFFFFF",
/* pixels */
"-.%.{ %.-.-.-.-.-.-.-.-.-.-.-.-.",
"#.m a g +.-.-.-.-.-.-.-.-.-.-.-.",
"I s M 3 e W X.-.-.-.-.-.-.-.-.-.",
"T 4 2 >   X j S X.-.-.-.-.-.-.-.",
"%.J 5 q * & @ . x Q -.-.-.-.-.-.",
"-.-.| A N F G v + O E -.-.-.-.-.",
"-.-.-.@.} &.-.&.! z $ ) -.-.-.-.",
"-.-.-.-.-.-.-.-.-.] k z  .-.-.-.",
"-.-.-.-.-.-.-.-.-.-.R o Z &.-.-.",
"-.-.-.-.-.-.-.-.-.-.@.c # _ -.-.",
"%.I H ^ -.-.-.-.-.-.-.b % y %.-.",
"L d f 6 ( -.-.-.-.-.[ p h 4 L -.",
"n 0 8 < r ~ -.-.-.-.^ 9 u 1 w ` ",
"/ 7 < : - D &.-.-.-.#.i < ; = F ",
"-...Y V B ~ -.-.-.-.-.$.K t C ' ",
"-.-.-.o.} -.-.-.-.-.-.-.&. .o.-."
};
