/* XPM */
static char *Sketcher_ConnectLines_sm[] = {
/* columns rows colors chars-per-pixel */
"16 16 89 1 ",
"  c #B28D38182682",
". c #B7D23DFB2C53",
"X c #C1072A801699",
"o c #C6852886145D",
"O c #E0A43ACB2589",
"+ c #F7463AAF1FAC",
"@ c #FF113A531FB4",
"# c #EFC34F9F38A3",
"$ c #BEBD7FDD76D2",
"% c #DC3268EA5863",
"& c #E3FA645F5216",
"* c #D8246EFE5FE2",
"= c #DA866F806014",
"- c #DB7C72A06384",
"; c #DA7078C56ACA",
": c #DC317B406D53",
"> c #1AB9894F1AB9",
", c #26938B2B2693",
"< c #21B698C421B6",
"1 c #29F692C329F6",
"2 c #301F8C7B301F",
"3 c #53AE90EC53AE",
"4 c #551A9E3E551A",
"5 c #5258A3655258",
"6 c #63B6ABC363B6",
"7 c #720DAA87720D",
"8 c #B74486427F3A",
"9 c #CB1488417EA3",
"0 c #B24F92448DA0",
"q c #BFB69BEF96D0",
"w c #8A3AB4E98A3A",
"e c #AA83B9E0AA83",
"r c #D5EF8D4882E2",
"t c #D79F9E2D95F6",
"y c #C793A5D2A0FD",
"u c #DF58AC3AA4ED",
"i c #C249B215AFB9",
"p c #CBCFB94CB692",
"a c #E12EBA4CB4B5",
"s c #A155C106A155",
"d c #A5F6C144A5F6",
"f c #B55FCA76B55F",
"g c #B506CE6DB506",
"h c #BB97CA71BB97",
"j c #BB9AD214BB9A",
"k c #BCE6D1F3BCE6",
"l c #CF8ACDB5CF8A",
"z c #CFA7CFCACFCF",
"x c #D095C718C5BE",
"c c #DCB5C450C0DA",
"v c #C146D4C6C146",
"b c #D415D415D415",
"n c #D4E9D4E9D4E9",
"m c #D7E9D7E6D7E9",
"M c #D329DEFCD329",
"N c #DAB8D9C4DAB8",
"B c #DF28DF28DF28",
"V c #E083CAB7C795",
"C c #E846CBEEC7D3",
"Z c #E999D3CAD0A0",
"A c #E5A5DD7DDC46",
"S c #E72DDFDDDEC1",
"D c #EB38DFFCDE4A",
"F c #E3DBE3DBE3DB",
"G c #E550E144E0B3",
"H c #E82AE58FE521",
"J c #E6EDE6E3E6B3",
"K c #E9ADE250E13B",
"L c #ED37E8EEE850",
"P c #E994E994E994",
"I c #E86EEC24E86E",
"U c #EC54EC54EC54",
"Y c #ECB5EC22ECB5",
"T c #ECF7F026ECF7",
"R c #F21DE770E5E0",
"E c #EF0FF205EF0F",
"W c #F2E4F070F016",
"Q c #EE78F07CF0C6",
"! c #F30DF30DF30D",
"~ c #F3DCF3FBF3FE",
"^ c #F5DBF28CF20F",
"/ c #F3DBF5C8F3DB",
"( c #F491F65AF491",
") c #F58FF75BF58F",
"_ c #F7AFF7F0F7AF",
"` c #FAECFB3AFAEB",
"' c #FAE6FBE8FC0E",
"] c #FCE3FCE3FCE3",
"[ c #FFFEFFFFFFFF",
/* pixels */
"[[[`fs^[[[[[EM/[",
"[[`h61g[[[[^w57)",
"[!Ne,>k][[[T4<2I",
"`NmJvk``![[[f3d[",
"PmJ[[[L88VcKTlU[",
"Nb)[[[poX. qQlU[",
"mm[[[[`y0SAWTlU[",
"bm[[[[[`![[[TbP[",
"mm`[[[[[[[[[JiG[",
"Bb![[[[[[[[`t&*^",
"TmF[[[[[[[[!%@OD",
"]mm![[[[[[[[C;u`",
"[!bxaR[[[[[[[[[[",
"[[J9#-`[[[[[[[[[",
"[[):+%)[[[[[[[[[",
"[[[ZrZ[[[[[[[[[["
};
