/* XPM */
static char *Sketcher_CreateRectangle_sm[] = {
/* columns rows colors chars-per-pixel */
"16 16 68 1 ",
"  c #78E74B7544F0",
". c #710D60A55E55",
"X c #78FD78FD78FD",
"o c #B45828FC14F4",
"O c #99B436CD28DF",
"+ c #C3DF2F011A5D",
"@ c #FD2723BD04ED",
"# c #FFFF32B914FD",
"$ c #F9C0345F180C",
"% c #A6CC45F03812",
"& c #A2F04BE33F75",
"* c #C322468E34CD",
"= c #F4EA4265289D",
"- c #FC1B4C323371",
"; c #BBAB566D4828",
": c #B8675A0C4C80",
"> c #A724624E5873",
", c #C5215AE04B9E",
"< c #FABD5FB94989",
"1 c #EB56707B5ED9",
"2 c #C32E725B66D2",
"3 c #D09E7B3B6EF7",
"4 c #FA3E7D246B1F",
"5 c #CDC789A47FD2",
"6 c #D0A8828E7762",
"7 c #83CE85158544",
"8 c #9B01886185B5",
"9 c #976893AB9323",
"0 c #973599FF9A65",
"q c #98AD98AD98AD",
"w c #984E99699992",
"e c #9B949B949B94",
"r c #9D0E9F9D9FFB",
"t c #9F079FEFA010",
"y c #A34595709378",
"u c #A183A183A183",
"i c #A1DBA222A22C",
"p c #A533A3B7A382",
"a c #A433A433A434",
"s c #A450A72FA797",
"d c #AE05B0F6B162",
"f c #B10AB10AB10A",
"g c #B154B154B154",
"h c #B601B706B72C",
"j c #B860B860B860",
"k c #C18490948985",
"l c #D1299D3795C6",
"z c #CB1EC95EC925",
"x c #D019D019D019",
"c c #CEBBD148D18F",
"v c #D1EFD1EFD1EF",
"b c #D3CAD3CBD3CB",
"n c #D616D616D616",
"m c #D77BD77BD77B",
"M c #DC5CDC5CDC5C",
"N c #E6BFD473D1CA",
"B c #E832D9EED7E1",
"V c #E927DC48DA68",
"C c #E07EE358E3B9",
"Z c #E3C0E3BFE3BF",
"A c #E77BE783E77F",
"S c #F48DF0EEF06D",
"D c #F58FF582F580",
"F c #F865F8E5F8E7",
"G c #F8FDF8FDF8FD",
"H c #FB82FC6CFC8E",
"J c #FD75FD75FD75",
"K c #FFF0FFF1FFF1",
/* pixels */
"KKKKKKKKKKKKHFKK",
"KKHKHKHKHKKB63NK",
"KMvnnnnnnnv24-;C",
"Kvxiiiiiiir&$@Oa",
"KngXppipaiiy:%.h",
"KngwKKKKKKKFc0rD",
"KngwKKKKKKKFvrjK",
"KngwHKKKKKKHb0jK",
"KngwKKKKKKKDvrjK",
"Knd0KKKKKKKHvwjK",
"Sk>8HHKHKKHFbwjK",
"l1<*znnnnnnvmwjK",
"5=#+9iiiiriiaXjK",
"V,o 7pippspiaanK",
"KApsZKKKKKKKKKKK",
"KKHKKKKKKKKKKKKK"
};
