/* XPM */
static char *Sketcher_ConstrainDistance_sm[] = {
/* columns rows colors chars-per-pixel */
"16 16 61 1 ",
"  c #3737B4383737",
". c #3E01B3EA3E01",
"X c #1F3DFFFF1F3D",
"o c #2B4DFFFF2B4D",
"O c #3258FFFF3258",
"+ c #3973FFFF3973",
"@ c #3E9DFFFF3E9D",
"# c #4362C4344362",
"$ c #4217FFFF4217",
"% c #4472FFFF4472",
"& c #4B9FFFFF4B9F",
"* c #6042C54A6042",
"= c #7448FFFF7448",
"- c #7737FFFF7737",
"; c #799DF985799D",
": c #795DFFFF795D",
"> c #91E591E591E5",
", c #96ED94FA96ED",
"< c #999895D99998",
"1 c #9B42991F9B42",
"2 c #8527A2E78527",
"3 c #877CAC1C877C",
"4 c #8CC6B51F8CC6",
"5 c #98E9BDAF98E9",
"6 c #A705A705A705",
"7 c #BBCDB541BBCD",
"8 c #BAA3BAA3BAA3",
"9 c #83D9FFFF83D9",
"0 c #849EFFFF849E",
"q c #903AFFFF903A",
"w c #983BFFFF983B",
"e c #B2C5DC47B2C5",
"r c #B7E4D96CB7E4",
"t c #BFE4DB84BFE4",
"y c #BCCEE1CBBCCE",
"u c #B733FFFFB733",
"i c #B8AFFFFFB8AF",
"p c #C886C6B3C886",
"a c #CA6FC5A9CA6F",
"s c #CCF2CB82CCF2",
"d c #CE70CE70CE70",
"f c #C20AEDA6C20A",
"g c #C5E4FFFFC5E4",
"h c #CAAEFFFFCAAE",
"j c #CFD0FFFFCFD0",
"k c #D191FFFFD191",
"l c #E9E0E9B3E9E0",
"z c #EC57E8FCEC57",
"x c #ECE9ECE9ECE9",
"c c #E3ECFFFFE3EC",
"v c #E816FFFFE816",
"b c #EE34F7BFEE34",
"n c #E88CFFFFE88C",
"m c #F2FBF2F7F2FB",
"M c #F596F326F596",
"N c #F700F700F700",
"B c #F212FFFFF212",
"V c #F658FFFFF658",
"C c #FB55FACDFB55",
"Z c #FCE6FCE6FCE6",
"A c #FFFEFFFEFFFE",
/* pixels */
"AAAAAAAAAAAAAAAA",
"AAAAmzAmzCAClbVA",
"ABqcs>md1sAN<*wA",
"Av$jm6mA8pAAa#-A",
"Av$kz,zp1xmC7.:A",
"An$it2r53yef4 ;A",
"AnOo+++@@@$$$X:A",
"An$uvcccccvvv--A",
"An%jAAAAAAAAA9-A",
"Av$jAAAAAAAAA0-A",
"An%jAAAAAAAAA9-A",
"An$jAAAAAAAAA9-A",
"An$kAAAAAAAAA9-A",
"An&kAAAAAAAAA9-A",
"AVgBAAAAAAAAAhiA",
"AAAAAAAAAAAAAAAA"
};
