/* XPM */
static char *Sketcher_ConstrainHorizontal_sm[] = {
/* columns rows colors chars-per-pixel */
"16 16 56 1 ",
"  c #7749774943E6",
". c #788D788D5F65",
"X c #72BB72BB662C",
"o c #781B781B60C4",
"O c #93DB93DB2D04",
"+ c #94ED94ED2E3A",
"@ c #AABDAABD3DD9",
"# c #E2EFE2EF0579",
"$ c #E7A4E7A405AA",
"% c #EDB1EDB10237",
"& c #EE82EE8205FD",
"* c #E7EAE7EA0851",
"= c #EB7DEB7D088D",
"- c #FC9BFC9B0000",
"; c #FC82FC82038D",
": c #FFC4FFC4074E",
"> c #FFDDFFDD106B",
", c #F290F2901CDA",
"< c #BA92BA924BE0",
"1 c #B1E0B1E05718",
"2 c #8F4B8F4B7268",
"3 c #959895987744",
"4 c #939B939B78CC",
"5 c #FFFFFFFF5D8B",
"6 c #CDEDCDED6ABB",
"7 c #E8E1E8E16CDB",
"8 c #FFFFFFFF6267",
"9 c #FFFFFFFF7858",
"0 c #B501B501B90D",
"q c #B5B9B5B9B9C6",
"w c #B865B865BA6B",
"e c #F42CF42C995D",
"r c #C157C157A91A",
"t c #FFFFFFFFA4AD",
"y c #FFFFFFFFAE46",
"u c #FC83FC83B965",
"i c #FFFFFFFFBAF2",
"p c #FFFFFFFFBDDF",
"a c #CE08CE08CF7F",
"s c #D400D400D471",
"d c #FFFFFFFFC71D",
"f c #FFFFFFFFD5C9",
"g c #FFFFFFFFDF19",
"h c #DD51DD51E139",
"j c #DE4CDE4CE079",
"k c #EBBDEBBDEBAE",
"l c #ED48ED48EF01",
"z c #EE47EE47EF18",
"x c #FFFFFFFFE5DA",
"c c #FFFFFFFFEE60",
"v c #F1C0F1C0F2D8",
"b c #F74CF74CF8E0",
"n c #FB11FB11FB0B",
"m c #FFFFFFFFF999",
"M c #FB0AFB0AFFFF",
"N c #FFFEFFFEFFFE",
/* pixels */
"NNNNNNNNNNNNNNNN",
"NNNfdmNNNNcpxNNN",
"NNN8,rbNNNp>6hNN",
"NNN5#olNNNi:O0NN",
"NNN5#.lNNNi:O0NN",
"NNN5#olNNNi:+0NN",
"NNN5%@ettt9:+0NN",
"NNm5-==***&-+0NN",
"NNN5$ 23341;O0NN",
"NNm5#okMMMi:O0NN",
"NNN5#olNNNi:+0NN",
"NNN5$olNNNi:+0NN",
"NNN5#olNNNi:+0NN",
"NNNy<XlNNNg7 wNN",
"NNNNhsnNNNNvakNN",
"NNNNNNNNNNNNNNNN"
};
