/* XPM */
static char *Sketcher_Create3PointCircle_sm[] = {
/* columns rows colors chars-per-pixel */
"16 16 103 2 ",
"   c #5848410B3DA1",
".  c #6C1E4F574B35",
"X  c #6EDA6F6D6F82",
"o  c #6F776F776F77",
"O  c #70F7723F726D",
"+  c #74B5778C77F5",
"@  c #770F770F770F",
"#  c #7A697A697A69",
"$  c #7BB57BB57BB5",
"%  c #BD721E7307E9",
"&  c #8E58398B2D53",
"*  c #A361372827AF",
"=  c #B7E73AD828EB",
"-  c #A7A33E653041",
";  c #E38A1DB70170",
":  c #E6CD1D3900F2",
">  c #D9F22B9C12A3",
",  c #CD06344F1F98",
"<  c #F52A25B9093C",
"1  c #FDFA259107E2",
"2  c #BCF542E53161",
"3  c #D4E549383526",
"4  c #DBDF52763E68",
"5  c #FE2341E5269F",
"6  c #F82D474B2E78",
"7  c #FFFF4F573541",
"8  c #FA6355C93E3E",
"9  c #AAF358B54CF4",
"0  c #814C7E7F7E18",
"q  c #AA246CB86504",
"w  c #C4A25F4350B4",
"e  c #E4535CE34965",
"r  c #CA4C6C7D5F47",
"t  c #DC53675E56A0",
"y  c #EAF06B675912",
"u  c #FFFF6C9A5690",
"i  c #C2276F20631B",
"p  c #C49678286D23",
"a  c #CE487A1E6E0E",
"s  c #D11D82A57769",
"d  c #FACF81637006",
"f  c #813881388138",
"g  c #86C786C786C7",
"h  c #9F06868182F8",
"j  c #92D38C478B5F",
"k  c #9CFF8D108AC3",
"l  c #926D926D926D",
"z  c #96EC96EC96EC",
"x  c #9AA19AA19AA1",
"c  c #9F4F9F4F9F4F",
"v  c #A60592198F45",
"b  c #B3E893838EE8",
"n  c #B535985D9433",
"m  c #A5D8A5D8A5D8",
"M  c #A7E8A9B7A9FA",
"N  c #AE1EAE1EAE1E",
"B  c #BCE9AE27AC13",
"V  c #B212B2EDB308",
"C  c #B712B712B712",
"Z  c #B90DB90DB90D",
"A  c #BECFBBA1BB27",
"S  c #BE89BE86BE86",
"D  c #C948A36E9DEF",
"F  c #C171AA96A74E",
"G  c #C66FB20EAF21",
"H  c #D70DB4D2AFED",
"J  c #C180B3D8B1EB",
"K  c #DABCB757B254",
"L  c #DD2AC20BBE22",
"P  c #C18CC18CC18C",
"I  c #C760C760C760",
"U  c #CB74CB74CB74",
"Y  c #CCE8CDC7CDE6",
"T  c #CDC4CDC4CDC4",
"R  c #D3A0CE49CDA5",
"E  c #CF0DD32ED3B5",
"W  c #D146D146D146",
"Q  c #D30CD30BD307",
"!  c #D4B9D4CED4D1",
"~  c #DAAFDBFADC29",
"^  c #DC82DCB3DCBA",
"/  c #DF50DF50DF50",
"(  c #E255D1D1CF75",
")  c #EA1CDD4FDB7B",
"_  c #DEEAE09EE0DD",
"`  c #E0C1E0D9E0DD",
"'  c #E109E3B8E409",
"]  c #E452E452E452",
"[  c #E733E733E733",
"{  c #EDBEE67EE573",
"}  c #E8F6E9D2E9F1",
"|  c #EEFDEBECEB7D",
" . c #EC14ECE2ECFF",
".. c #ECFDED3DED46",
"X. c #F182F182F182",
"o. c #F47DF47DF47D",
"O. c #F630F630F630",
"+. c #F83CFAE0FB3A",
"@. c #FA65FA65FA65",
"#. c #FB25FB25FB25",
"$. c #FA0BFC3DFC8B",
"%. c #FC16FDACFDCE",
"&. c #FFFCFFFEFFFE",
/* pixels */
"&.&.&.&.&.{ H ( @.&.&.&.&.&.&.&.",
"&.&.&.&.| a y 3 F ~  .$.%.&.&.&.",
"&.&.&.} B 4 u < q E J p s ) &.&.",
"&.&.[ Q C * : %   + 9 d 6 r +.&.",
"&.O.Q S X j b k Y _ w 5 1 - ' &.",
"&./ Q # m O.&.&.&.&.L = 2 h [ &.",
"&.! Z g X.&.&.&.&.&.&.Q V Q _ &.",
"@.! m C &.&.&.&.&.&.&.@.G n A &.",
"@.! N Q &.&.&.&.&.&.&.K t e i O.",
"&.Q I ! &.&.&.&.&.&.&.s 8 7 , R ",
"&.] ! Y @.&.&.&.&.&.&.D > : & V ",
"&.@.U ! ! O.&.&.&.%./ ! v . $ / ",
"&.&.[ N Q Q ^ ` / Q ~ S O M ..&.",
"&.&.&.! l V Y ! Q I z X c o.&.&.",
"&.&.&.&./ x $ + O X f Z O.&.&.&.",
"&.&.&.&.&.@.' I P Q ..&.&.&.&.&."
};
