/* XPM */
static char *Sketcher_Element_EndPoint_sm[] = {
/* columns rows colors chars-per-pixel */
"16 16 99 2 ",
"   c #59D45EB163C9",
".  c #60E861D65FF5",
"X  c #66B2669C66C8",
"o  c #6E526E4D6E57",
"O  c #728071EB730B",
"+  c #762875DF7591",
"@  c #6A22A402317E",
"#  c #6C2D903D48DB",
"$  c #81FBD3613268",
"%  c #88F3DA4A398C",
"&  c #8B8FD9B73F38",
"*  c #920DE8063E0A",
"=  c #89BCA9DC6A70",
"-  c #8E47BC43617A",
";  c #94F3BF766B6D",
":  c #94B4AC9F7D51",
">  c #9C7AD25D67D6",
",  c #B165E7397CCE",
"<  c #5C367B779CD6",
"1  c #6053701680DA",
"2  c #6FEC8F38B0A1",
"3  c #69E39350BF85",
"4  c #73A090F6B03B",
"5  c #74C691EAB10E",
"6  c #71229701BF56",
"7  c #6E2099D9C877",
"8  c #73739A1EC34A",
"9  c #714B9DE5CD62",
"0  c #87668762876A",
"q  c #88D3881B8757",
"w  c #8A4F89B18AEC",
"e  c #8C068C068C06",
"r  c #89388BE78EC5",
"t  c #8E1B8E1B8E1B",
"y  c #8F888F888F88",
"u  c #859490B49CB7",
"i  c #946294629462",
"p  c #9C849C849C84",
"a  c #A064BBB385AC",
"s  c #8D459AF0A97A",
"d  c #8BF7A0B0B6E1",
"f  c #96CFA550B4CE",
"g  c #97F8A60EB527",
"h  c #9ACEA9F2BA05",
"j  c #A008ACF9BAD1",
"k  c #A3A9A3AAA3AC",
"l  c #A8CBA8CBA8CB",
"z  c #AE0DAE0DAE0D",
"x  c #A553B116BDB9",
"c  c #AB1BB4E2BF3B",
"v  c #B742B742B742",
"b  c #B84BB815B880",
"n  c #BC13BEE0B94F",
"m  c #AAB8C0A69530",
"M  c #BFE1F2208EB6",
"N  c #C6DAD191BC5F",
"B  c #95EAB00CCC14",
"V  c #8A17ACD9D21B",
"C  c #8CC5AFD4D532",
"Z  c #8D9AB2C6DA86",
"A  c #9ABAB4C7D0AA",
"S  c #9031B499DB50",
"D  c #ABEBB665C19A",
"F  c #C022C0E1C1A7",
"G  c #BB7CC242C980",
"H  c #BF02C5B8CCFA",
"J  c #B1C7CB21E660",
"K  c #B543CDA3E7A4",
"L  c #C7A6C7A6C7A6",
"P  c #C8D9C8D9C8D9",
"I  c #CBBACBBACBBA",
"U  c #CCEACCEBCCEB",
"Y  c #CFAACFAACFAA",
"T  c #CBA4D074D59F",
"R  c #CE0AD23DD6AE",
"E  c #D1C3D1C3D1C3",
"W  c #D51DD51DD51D",
"Q  c #D82DD82DD82D",
"!  c #D8BCDEA1D2F9",
"~  c #DA3CDA3CDA3C",
"^  c #DC9FDC0FDB76",
"/  c #D9B2DC4CDF19",
"(  c #DD38DD37DD36",
")  c #DFB1DFB1DFB1",
"_  c #E0E0E491DD46",
"`  c #DEA3E0DAE347",
"'  c #E58FE805E336",
"]  c #E59BE59BE59B",
"[  c #EAEFECC8E922",
"{  c #ECF3ECF3ECF3",
"}  c #EFDFEFDFEFDF",
"|  c #F02EF0B0F13C",
" . c #F428F2FEF54D",
".. c #F47BF456F4A0",
"X. c #F508F508F508",
"o. c #F5C9F58DF54D",
"O. c #FC99FC64FC14",
"+. c #FD42FD01FCBE",
"@. c #FFFEFFFEFFFE",
/* pixels */
"@.@.@.@.@.@.@.@.@.@.@.@._ N ' @.",
"@.@.@.@.@.@.@.@.@.@.@.! ; > - ! ",
"@.@.@.@.@.@.@.@.@.@.@.a , M % a ",
"@.@.@.@.@.@.@.@.@.@. .: & * $ m ",
"@.@.@.@.@.@.@.@.@.} P n # @ = [ ",
"@.@.@.@.@.@.@.@.[ P E b O . w ..",
"@.@.@.@.@.@.@.] L E E P o X 0 ..",
"@.@.@.@.@.@.) P Y W E t l l W @.",
"@.@.@.@.@.^ P P W P w P @.@.@.@.",
"@.O.X.O.E U Y ^ L t W @.O.X.@.@.",
"| x d s F P ) v t ) @.} j d j  .",
"c B K 8 u ) z i ] @.@.c A J 6 x ",
"f V S 9 1 q p { @.@.+.h C Z 7 f ",
"R 4 3 <   + ] @.@.@.@.T 2 3 5 R ",
"@.) G r O k O.@.@.@.@.+./ H ` @.",
"@.@.@.X.^ ..@.@.@.@.@.@.@.@.@.@."
};
