/* XPM */
static char *Sketcher_Element_Line_sm[] = {
/* columns rows colors chars-per-pixel */
"16 16 120 2 ",
"   c #2E5F54210000",
".  c #18B261A20000",
"X  c #01177DD50117",
"o  c #04C47B4204C4",
"O  c #0A2679DF0A26",
"+  c #0AEA78EB0AEA",
"@  c #120378CD1203",
"#  c #13E7786613E7",
"$  c #1C1B79E61D76",
"%  c #26FB6D1B287B",
"&  c #3B0F7FF03C7B",
"*  c #5887575151FB",
"=  c #70D846334025",
"-  c #63EA5B1D5A38",
";  c #669567276737",
":  c #6FAF6F837027",
">  c #70ED72177241",
",  c #742075EE7631",
"<  c #9666319011CD",
"1  c #B2B7202804D2",
"2  c #B15C2F0B1DE9",
"3  c #B291341418D1",
"4  c #A0233EC3240D",
"5  c #FF601DF70016",
"6  c #C4F3216A09F8",
"7  c #DFC6285F0F08",
"8  c #DEFB299B118D",
"9  c #EA20227F05BE",
"0  c #E1D823750823",
"q  c #E4D321B707EC",
"w  c #F85124830730",
"e  c #FFFF248004EC",
"r  c #FFFF2A050AFF",
"t  c #E8C738621F09",
"y  c #D6F93CF826CD",
"u  c #FFFF3D4D2176",
"i  c #FFC3445029FB",
"p  c #B53F6D2D62D8",
"a  c #CF9D57404668",
"s  c #D70854A641E3",
"d  c #D34F5BE64B94",
"f  c #D1D05ED44E44",
"g  c #DBBB5CD94A9D",
"h  c #E1FF59A24619",
"j  c #C6D460275169",
"k  c #C99B61145215",
"l  c #FFFF693A538C",
"z  c #FBFE69985469",
"x  c #F5496D955A06",
"c  c #FFFF70D35C0C",
"v  c #C09F6BBA60F8",
"b  c #C7E66E1A61EA",
"n  c #000081470000",
"m  c #4F0688354F06",
"M  c #61FF8F4061FF",
"N  c #65DA90EF65DA",
"B  c #78C49AB078C4",
"V  c #7D7F9D397D7F",
"C  c #C871833D7948",
"Z  c #835B82918325",
"A  c #876587728774",
"S  c #89F08AF48B18",
"D  c #8D488D318D48",
"F  c #91C385AD83F5",
"G  c #903C8FCD903C",
"H  c #94D994DC94D9",
"J  c #9D069D2E9D2D",
"K  c #8E1EA69E8E1E",
"L  c #9525ABCD9525",
"P  c #A3BFA3BFA3BF",
"I  c #A8CBA8CDA8CB",
"U  c #AAD7AD53AADB",
"Y  c #AE77AD46AE92",
"T  c #A1ABB1EFA1AB",
"R  c #A8AFB399A99D",
"E  c #AB2FBA2DAB31",
"W  c #B50FB389B50F",
"Q  c #B83DBCF5B4FC",
"!  c #BAFCB960BAFC",
"~  c #BD86BC84BD86",
"^  c #BDEDBE16BDED",
"/  c #C8E08C908401",
"(  c #CB52900B876B",
")  c #CB36922E89EC",
"_  c #C84D96F28FC6",
"`  c #CCBE94698C4E",
"'  c #CD4099F0929C",
"]  c #FFFF921F81F7",
"[  c #FFFF9B788CA6",
"{  c #CBF3A3929DE0",
"}  c #CFF1A8A3A2FD",
"|  c #CFE0AECCAA13",
" . c #D1FEACB8A761",
".. c #D0ADAFBDAAFD",
"X. c #D7FABC3DB848",
"o. c #D508BDA9BA5B",
"O. c #D805C2F3BFEA",
"+. c #C5F3CA4EC4B8",
"@. c #CC68CC6ACC68",
"#. c #DB15C4EBC1AE",
"$. c #D615D616D615",
"%. c #DEE7DEE7DEE7",
"&. c #E09FD660D4DF",
"*. c #E5A6DDE8DCC7",
"=. c #E5B4E5B5E5B5",
"-. c #E6E0E6E0E6E0",
";. c #ED11E813E7C9",
":. c #EA5BEA71EA5B",
">. c #ED0AE92CE8F6",
",. c #ECF1ECF1ECF1",
"<. c #F1B8EF4AEEEC",
"1. c #F330F27DF330",
"2. c #F49FF430F421",
"3. c #F4E9F4CFF4CB",
"4. c #F7A4F823F829",
"5. c #F824FBA6FC23",
"6. c #F9DBF885F9DB",
"7. c #FB33FC06FC23",
"8. c #FDC1FCADFDC1",
"9. c #FFFEFFFEFFFE",
/* pixels */
"9.9.9.9.9.9.9.9.9.9.9.6.*.&.6.9.",
"9.9.9.9.9.9.9.9.9.9.9.} f s C 4.",
"9.9.9.9.9.9.9.9.9.9.>.a ] l 8 o.",
"9.9.9.9.9.9.9.9.9.9.Q 3 u r 7 o.",
"9.9.9.9.9.9.9.9.9.E $   1 6 p 1.",
"9.9.9.9.9.9.9.6.L # n % * - S 2.",
"9.9.9.9.9.9.1.V + X m U : ; A 1.",
"9.9.9.9.9.:.N o o M ^ G I I $.9.",
"9.9.9.9.%.m X O B ~ D @.9.9.9.9.",
"9.6.;.+.& X @ K ! D $.9.9.9.9.9.",
"1./ d 4 . $ T W D %.9.6.o.` #.6.",
"| h [ i < R Y H -.9.9. .g x y ..",
"{ t i e 2 Z J :.9.9.6.b l c w p ",
";.j 0 6 = , -.9.9.9.9.) 9 5 q ` ",
"9.,.O.F > P 6.9.9.9.9.<.) k ' 2.",
"9.9.9.1.%.3.9.9.9.9.9.9.6.6.9.9."
};
