/* XPM */
static char *Sketcher_ViewSketch_sm[] = {
/* columns rows colors chars-per-pixel */
"16 16 138 2 ",
"   c #134548BB52C3",
".  c #1BC947CF50A3",
"X  c #2F5B535A59F5",
"o  c #137D5F276C06",
"O  c #1E6960AD6C21",
"+  c #0A126BE37C1B",
"@  c #1015631E7131",
"#  c #1A5C6E557C96",
"$  c #500C4E9A4EA5",
"%  c #4F8D51545203",
"&  c #4D2F59A95C57",
"*  c #5758567C5699",
"=  c #5A57597B5981",
"-  c #5CEB5AF65ACA",
";  c #7991600B5CD8",
":  c #7195685F6771",
">  c #797D6A36685B",
",  c #784E7767776C",
"<  c #793F79627992",
"1  c #7D467C727C82",
"2  c #FFFF51C23B9F",
"3  c #935A744071EA",
"4  c #AEFB7BDD779E",
"5  c #FFFF698E555E",
"6  c #EE0A70095F39",
"7  c #FC40718760C1",
"8  c #F60E789F67E4",
"9  c #F7D27A356974",
"0  c #FCC8799C6887",
"q  c #FFFF79A36825",
"w  c #FE8F7F296DF9",
"e  c #BF13817D7A50",
"r  c #FFFF80596EFA",
"t  c #EB25869B7936",
"y  c #EEFF8A947D53",
"u  c #FFFF877276B0",
"i  c #FFFF87D17777",
"p  c #FC018AC87B7B",
"a  c #FFFF8B3C7B3B",
"s  c #FF958C687CFC",
"d  c #FFFF8D207DBA",
"f  c #03586FE981BC",
"g  c #0E4D759E8936",
"h  c #09637EA391E3",
"j  c #38C27967849B",
"k  c #59E97ACD8772",
"l  c #000087989CB2",
"z  c #000089989EF5",
"x  c #22058496952F",
"c  c #2F1383F895B8",
"v  c #2C2D869695D8",
"b  c #3A6F888396E6",
"n  c #37028ABA9D3F",
"m  c #36758C199C53",
"M  c #02278AE7A091",
"N  c #067F8D63A32D",
"B  c #091F8B4CA1F8",
"V  c #133A9434AB54",
"C  c #184C9700AE9B",
"Z  c #20B89BD5B445",
"A  c #58048A3E9403",
"S  c #44EC9678A75A",
"D  c #4AD194C2A1AD",
"F  c #61BC945FA1CD",
"G  c #32B0A5CDC0A6",
"H  c #33D2A657C0B4",
"J  c #5A5DACF1C7BC",
"K  c #472FB107CD49",
"L  c #58DEB956D828",
"P  c #6385C237E252",
"I  c #90BD8F468F46",
"U  c #993E97D197D1",
"Y  c #99CC986F9871",
"T  c #A7AE8F2D8C41",
"R  c #A88D8FAD8C8F",
"E  c #A7AE9C499AF1",
"W  c #9249A46FA7E2",
"Q  c #9D1AB097B473",
"!  c #A7BBA680A681",
"~  c #A815A7EBA7EC",
"^  c #AA8BA0B2A25A",
"/  c #A4D3ABFEAD81",
"(  c #A87FA90EA928",
")  c #A9FDAB94ABFE",
"_  c #ACAFABA0ABA0",
"`  c #AE4EAD4DAD4E",
"'  c #B2C6AAE3A9C9",
"]  c #BCCEBBF7BBF7",
"[  c #BEE4BE0CBE0C",
"{  c #FBFA94DF8725",
"}  c #FFFF9CD58F7C",
"|  c #FE8FA01C934B",
" . c #FCCBA96F9E5B",
".. c #D588B3B0AF4A",
"X. c #C633B80BB62A",
"o. c #C553BF08BE26",
"O. c #D5A8C011BD4A",
"+. c #FFFFADFAA2B0",
"@. c #FFFFB3CAA917",
"#. c #FA44BBC4B351",
"$. c #F248C438BE21",
"%. c #FA88C654BF42",
"&. c #BC48D01DD42E",
"*. c #B8F3D07CD4E0",
"=. c #C95DC950C94E",
"-. c #CD27CD96CDA2",
";. c #D589C32BC0CC",
":. c #D0CFD0A7D0BB",
">. c #D1BED106D106",
",. c #D59CD4E6D4E5",
"<. c #DEC2D388D29E",
"1. c #DBD7D697D5F7",
"2. c #DA52D9ADD988",
"3. c #F60FD27FCDCB",
"4. c #FAD9DE6ADAB9",
"5. c #FC93E06FDC9C",
"6. c #D91CE47FE6CC",
"7. c #DCA0E700E8FF",
"8. c #E2A9E2AFE2AF",
"9. c #E7A4E773E773",
"0. c #E266EB05ECCB",
"q. c #E768EE84EFE9",
"w. c #ED75EB10EB13",
"e. c #EDEDEB7BEB28",
"r. c #EDBDEE58EE74",
"t. c #EDC0EF03EF35",
"y. c #EEFEEEC7EEC7",
"u. c #F1A4E35AE171",
"i. c #FFFFE632E2BC",
"p. c #FFFFECA9E9FB",
"a. c #EEFCF3DEF4D3",
"s. c #F284F1A1F177",
"d. c #F704F434F3D7",
"f. c #FFFFF55DF3C6",
"g. c #FC98F6A2F5C0",
"h. c #FAACFA9BFA9B",
"j. c #FCF5FCE6FCE6",
"k. c #FFFDFFFDFFFD",
/* pixels */
"h.] _ ` _ ` ` ` ` ` ` _ [ j.k.k.",
"y.U >.,.,.,.,.O...;.,.>.I 9.k.k.",
"y.~ h.k.k.f.| w d r +.g.1 ` k.k.",
"e.~ h.k.k.} t X.e.p.d  .< ~ k.k.",
"y.~ h.k.4.w u.=.s.k.i.0 > ~ k.k.",
"y.E { a q 2 a s y <.w.q ; _ k.k.",
"y.T 7 $.%.5 #.^ k n b 3 : ) k.k.",
"y.T 8 ] 6.@.4 J P G V h X ) k.k.",
"y.T 6 ' -.d.F L P K Z M @ / k.k.",
"y.T 9 o.8.a.S G K G C M + / k.k.",
"y.T 7 3.4.4.A B C V N z o _ k.k.",
"t.E p u u u e x l z l f   W k.k.",
"y.Y ,.1.1.1.1.Q j # O . g x *.k.",
"h.] , = = = = - * % $ & c B v 7.",
"k.k.8.:.>.>.>.>.>.>.:.2.&.m D q.",
"k.k.k.k.k.k.k.k.k.k.k.k.k.6.0.k."
};
