/* XPM */
static char *Sketcher_AlterConstruction_sm[] = {
/* columns rows colors chars-per-pixel */
"16 16 80 1 ",
"  c #58EB58EB6CEF",
". c #44F344F373B3",
"X c #443B443B7621",
"o c #6A696A696CE3",
"O c #631F631F706E",
"+ c #683768377B9F",
"@ c #77E077E077E0",
"# c #72E072E07FC4",
"$ c #7966796678F0",
"% c #797279727F91",
"& c #23F923F9B4B6",
"* c #36343634B190",
"= c #36473647B5EA",
"- c #373B373BBD2A",
"; c #38043804B96C",
": c #3C793C79BDF7",
"> c #453245328266",
", c #67C367C39F32",
"< c #730273029A7D",
"1 c #54295429B331",
"2 c #6C3C6C3CA593",
"3 c #78C778C7A04A",
"4 c #78AC78ACB6B8",
"5 c #26C026C0C069",
"6 c #24C724C7C89D",
"7 c #254C254CCEE8",
"8 c #3D633D63C368",
"9 c #267F267FF043",
"0 c #29392939F9A7",
"q c #5EC85EC8D80C",
"w c #6F6A6F6AC24E",
"e c #62406240C961",
"r c #7A7C7A7CCBBF",
"t c #79627962D75E",
"y c #82D182D182D1",
"u c #83B483B483B4",
"i c #815381538555",
"p c #84288428842B",
"a c #8C8A8C8A9D55",
"s c #80998099A932",
"d c #89548954BA1D",
"f c #92539253BB96",
"g c #950E950EBBBC",
"h c #9B929B92BA9A",
"j c #9EEC9EECBF52",
"k c #AE13AE13AE13",
"l c #A430A430BC21",
"z c #AC0FAC0FBE08",
"x c #B11AB11AB11A",
"c c #B58CB58CB58C",
"v c #B9B1B9B1B9B1",
"b c #BD80BD80BD80",
"n c #8E1E8E1EC13B",
"m c #90589058C1EF",
"M c #BE5EBE5ECC5C",
"N c #BAC2BAC2D3F4",
"B c #C763C763C763",
"V c #C8A7C8A7CC1F",
"C c #CDF8CDF8CDF8",
"Z c #CED3CED3D406",
"A c #D076D076D076",
"S c #D452D452D7BF",
"D c #DA83DA83DA83",
"F c #E01AE01ADD48",
"G c #DF29DF29DF29",
"H c #E09DE09DDD26",
"J c #DFE1DFE1E0E5",
"K c #E329E329E329",
"L c #E88AE88AE4EA",
"P c #E8E5E8E5E7F1",
"I c #E795E795EAE3",
"U c #EB58EB58EB58",
"Y c #EED1EED1EE69",
"T c #EF4FEF4FF03A",
"R c #F31EF31EF0E4",
"E c #F3ADF3ADF3AD",
"W c #F74DF74DF74D",
"Q c #F976F976F976",
"! c #FE94FE94FC69",
"~ c #FFEEFFEEFFEE",
/* pixels */
"~~UKKW~~~~YJJT~~",
"~QkBcx~~~~j:83E~",
"~Wb~GpW~~~n90>H~",
"~Wb~GyE~~~f67.G~",
"~Wb~GyW~~~Z+ %U~",
"~Wb~GyYJG!j;-<E~",
"~Wb~Gyjd4Nm90>F~",
"~Wb~Ko&tq:s67XF~",
"~Wb~G$1rewV+ %U~",
"~Wb~GuSzlIj--<E~",
"~Wb~GiEQQ~f90>F~",
"~Wb~HyW~~~f5&.F~",
"~Wb~GyW~~~S#OiU~",
"~WvQDyW~~~h*-3E~",
"~Qku@yW~~~M,2aP~",
"~~WACD!~~~~PPPQ~"
};
