/* XPM */
static char *Sketcher_LeaveSketch_sm[] = {
/* columns rows colors chars-per-pixel */
"16 16 71 1 ",
"  c #3F773F773F77",
". c #38FC4A357A11",
"X c #488F488F488F",
"o c #508350835083",
"O c #633663366336",
"+ c #674967496749",
"@ c #685868586858",
"# c #6B846B846B84",
"$ c #73DD73DD73DD",
"% c #749D749D749D",
"& c #780678067806",
"* c #306B4EF49907",
"= c #2BF764E0AED4",
"- c #53F26B1A9137",
"; c #5FAC73489DD4",
": c #71A778218795",
"> c #64DA7A669198",
", c #64CE70CD9C87",
"< c #619A7781A087",
"1 c #15314A8DD181",
"2 c #1B1B578CDA3A",
"3 c #22134813C338",
"4 c #260357CEC9F4",
"5 c #27F45428CBB5",
"6 c #202F5C2AD323",
"7 c #3CC66936C90F",
"8 c #201A631EDFD2",
"9 c #2CAE72C7DC64",
"0 c #226A69BCE63C",
"q c #268A706CE779",
"w c #2A597C11EE6D",
"e c #2B0F8209ED4C",
"r c #35D6848BE0C4",
"t c #460787BAD209",
"y c #70A39A6FCFEE",
"u c #79D7A2A9CF1A",
"i c #8DE98DE98DE9",
"p c #917891789178",
"a c #9CFD9CFD9CFD",
"s c #A297A297A297",
"d c #A398A398A398",
"f c #A8DAA8DAA8DA",
"g c #ABA2ABA2ABA2",
"h c #ACA4ACA4ACA4",
"j c #A62EAB52B91C",
"k c #A3B1AAD9BFE0",
"l c #BD76BBECB992",
"z c #A727B745D40F",
"x c #B7A7C567D404",
"c c #B7DBC92CDBAB",
"v c #C0D8C0D8C0D8",
"b c #C3C6C3C6C3C6",
"n c #CA63CA1AC911",
"m c #D685D5B2D36F",
"M c #DBB3DABED89D",
"N c #DC7ADC7ADC7A",
"B c #DDB6DD61DC5E",
"V c #DF5EDF11DE5C",
"C c #D165D688E669",
"Z c #D667DA66E57D",
"A c #D864DF33E6A7",
"S c #E699E586E376",
"D c #E6A6E802EDFE",
"F c #EBB1EB34E967",
"G c #F161F0EEF067",
"H c #F498F448F388",
"J c #F814F79EF66F",
"K c #F7EFF7EFF7EF",
"L c #F9ABF9ABF9AB",
"P c #FC11FC11FC11",
"I c gray100",
/* pixels */
"IIIIIIIIIIIIIIII",
"IIIIIIIIIIIIIIII",
"IIIIIIIAxIIIIIII",
"IIIIIIJytAIIIIII",
"IIIIIIz9euJIIIII",
"IIIIIZ70wrcIIIII",
"IIIIIk*6q=>GIIII",
"IIIIIJj48-lGIIII",
"IMsaaVC52<ShssbI",
"Ig @+nC31;M%@X%L",
"Ig+HIID,.:HLLi&I",
"IgOJIIIFmVIIIp%I",
"Ig+JIIIIIIIIIp&I",
"IsoaddsssssdsO$I",
"Ib@#@##@@@@#@@aL",
"IILLLLLLLLLLLLLI"
};
