/* XPM */
static char *Sketcher_SelectVerticalAxis_sm[] = {
/* columns rows colors chars-per-pixel */
"16 16 109 2 ",
"   c #19BB66DB36A2",
".  c #62823F4F7AC9",
"X  c #0BCD4CFD458B",
"o  c #CC0E1D5A1E3C",
"O  c #CF6022FA1F6F",
"+  c #FFFF227D0000",
"@  c #FFFF25EC018F",
"#  c #FFFF286702A8",
"$  c #FFFF2B5C0927",
"%  c #FFFF32C80F20",
"&  c #FFFF488D2965",
"*  c #FFFF52103518",
"=  c #FFFF5E71420E",
"-  c #FFFF61F745AD",
";  c #F55161844D16",
":  c #FFFF65334A98",
">  c #FFFF742E5BD3",
",  c #FFFF7E206776",
"<  c #003C897A001E",
"1  c #03E08C850000",
"2  c #06CA8DF30000",
"3  c #057C8AE2057C",
"4  c #09AE8F5801A1",
"5  c #17E199690163",
"6  c #1A669ABA0311",
"7  c #1B499B220326",
"8  c #15E1922D15E1",
"9  c #171794361717",
"0  c #1A2995A01A29",
"q  c #1F4E98081F4E",
"w  c #20EF9EEB03D2",
"e  c #3A6DA48A3A6D",
"r  c #4636B63E0C69",
"t  c #54F2BBE42173",
"y  c #5A83BFFE1FC4",
"u  c #67A9C6132C9D",
"i  c #74ABCEC22CED",
"p  c #4D3FAD4E4D3F",
"a  c #5866B2675866",
"s  c #6BD09F4F67CA",
"d  c #5F59B62F5FEA",
"f  c #62DFB74262DF",
"g  c #7384BEA47384",
"h  c #7B1ACDA246AD",
"j  c #7D73D07646FC",
"k  c #8471D2A34CF9",
"l  c #893CD4A35327",
"z  c #9891DCBE5D48",
"x  c #9EF9E07B600A",
"c  c #10880A418C94",
"v  c #12890D668E71",
"b  c #13E711628D3C",
"n  c #24030F0A83CA",
"m  c #2636209996D9",
"M  c #2A21257199AF",
"N  c #68C764DFB6FD",
"B  c #749B7104BCBB",
"V  c #85F67457B419",
"C  c #FFFF99AD87CD",
"Z  c #FFFFA8A29991",
"A  c #FFFFB2F3A551",
"S  c #F931B215A950",
"D  c #FFFFB56EA868",
"F  c #FFFFB83DAB9D",
"G  c #FFFFBD77B1C4",
"H  c #8CE8CA938CE8",
"J  c #A851D349861A",
"K  c #AF08E4C781A5",
"L  c #B00AE47283E4",
"P  c #B36FE5CA8838",
"I  c #BDFFEABB9236",
"U  c #ACBCD977ACBC",
"Y  c #BBFAE046BBFA",
"T  c #CBBEEEEDAA35",
"R  c #CD77EFC7ABD2",
"E  c #CF92F0D2AD6B",
"W  c #D14FF0C6B364",
"Q  c #D428F239B5C5",
"!  c #D790F310BCB3",
"~  c #92DB9008CB42",
"^  c #B651B50ADB88",
"/  c #FFFFD1B1C99B",
"(  c #FFFFDA01D351",
")  c #C4E8E469C4E8",
"_  c #CA8CE746CA8C",
"`  c #D3E6EBC6D41D",
"'  c #E670F805D450",
"]  c #D3F4D2C9EAC1",
"[  c #D87AD76AECE8",
"{  c #FFFFE8D2E4BE",
"}  c #FFFFEC2EE8C2",
"|  c #FFFFEF43EC59",
" . c #E50BF385E50B",
".. c #ED4CFA07E0DF",
"X. c #EA13F5D9EA13",
"o. c #F2F3FBD6EA19",
"O. c #E91DE88BF4F4",
"+. c #FC7CF76BF4AF",
"@. c #F6B1FA87F402",
"#. c #F4F8FAEEF4F8",
"$. c #FA13FE8CF404",
"%. c #FFFFF8F0F7BE",
"&. c #F5BAF571FB0B",
"*. c #FFFFFB6AFA9E",
"=. c #F8F1FCB7F8F1",
"-. c #FDB5FF4CFBF6",
";. c #F9D9F9ADFD03",
":. c #FCA6FE73FCA6",
">. c gray100",
/* pixels */
">.>.-.E ' >.>.>.>.>. .:.>.=. .>.",
">.>.T y k ..>.>.>._ e U :.H p  .",
">.W t 2 6 l ..>.>.X.f q a 0 H :.",
"Q i w < 4 r x o.>.>.#.g 3 H :.>.",
"! I u 2 6 z R ..>.>.>.Y 9 _ >.>.",
">.$.h < 6 P >.>.>.>.>.Y 9 ) >.>.",
">.$.h 2 5 L >.>.>.>.>.` a ` >.>.",
">.$.h 2 5 L >.>.>.>.>.>.%.>.>.>.",
">.$.j 1 5 K >.>.>.>.>.| C } >.>.",
">.@.s X   J *.*.%.%.*.} * > | >.",
">.^ m v b . ; - - - - = % @ , | ",
">.B c v v n o + + + + + @ @ $ Z ",
">.~ v v v n O # # # # @ @ @ : { ",
">.O.N m M V S A D D F A & & ( >.",
">.>.&.] [ ;.>.>.>.>.>.%.> G >.>.",
">.>.>.>.>.>.>.>.>.>.>.*./ *.>.>."
};
