/* XPM */
static char *Sketcher_Element_Line_Edge_svg[] = {
/* columns rows colors chars-per-pixel */
"16 16 95 2 ",
"   c #2E5F54210000",
".  c #18B261A20000",
"X  c #00AA7E6B00AA",
"o  c #04C47B4204C4",
"O  c #041E7C04041E",
"+  c #0AEA78EB0AEA",
"@  c #120378CD1203",
"#  c #13E7786613E7",
"$  c #1C1B79E61D76",
"%  c #1DDB78D11FA9",
"&  c #26FB6D1B287B",
"*  c #3B0F7FF03C7B",
"=  c #5887575151FB",
"-  c #70D846334025",
";  c #63EA5B1D5A38",
":  c #669567276737",
">  c #6FAF6F837027",
",  c #742075EE7631",
"<  c #9666319011CD",
"1  c #B2B7202804D2",
"2  c #B15C2F0B1DE9",
"3  c #B291341418D1",
"4  c #A0233EC3240D",
"5  c #C4F3216A09F8",
"6  c #C7232106099A",
"7  c #DFC6285F0F08",
"8  c #DEFB299B118D",
"9  c #E1D823750823",
"0  c #FFFF248004EC",
"q  c #FFFF2A050AFF",
"w  c #E8C738621F09",
"e  c #FFFF3D4D2176",
"r  c #FFC3445029FB",
"t  c #B53F6D2D62D8",
"y  c #CF9D57404668",
"u  c #D70854A641E3",
"i  c #D34F5BE64B94",
"p  c #D1D05ED44E44",
"a  c #E1FF59A24619",
"s  c #C6D460275169",
"d  c #FFFF693A538C",
"f  c #000081470000",
"g  c #4F0688354F06",
"h  c #50DB871E50DB",
"j  c #61FF8F4061FF",
"k  c #65DA90EF65DA",
"l  c #78C49AB078C4",
"z  c #7D7F9D397D7F",
"x  c #C871833D7948",
"c  c #835B82918325",
"v  c #876587728774",
"b  c #89F08AF48B18",
"n  c #8D488D318D48",
"m  c #91C385AD83F5",
"M  c #94D994DC94D9",
"N  c #9D069D2E9D2D",
"B  c #8E1EA69E8E1E",
"V  c #9525ABCD9525",
"C  c #A3BFA3BFA3BF",
"Z  c #A8CAA8CCA8CA",
"A  c #AAD7AD53AADB",
"S  c #AE77AD46AE92",
"D  c #A1ABB1EFA1AB",
"F  c #A8AFB399A99D",
"G  c #AB2FBA2DAB31",
"H  c #B50FB389B50F",
"J  c #B83DBCF5B4FC",
"K  c #BAFCB960BAFC",
"L  c #BDEDBE16BDED",
"P  c #C8E08C908401",
"I  c #FFFF921F81F7",
"U  c #FFFF9B788CA6",
"Y  c #CBF3A3929DE0",
"T  c #CFF1A8A3A2FD",
"R  c #CFE0AECCAA13",
"E  c #D508BDA9BA5B",
"W  c #D805C2F3BFEA",
"Q  c #C5F3CA4EC4B8",
"!  c #CC68CC6ACC68",
"~  c #D615D616D615",
"^  c #DDF2E016DDF2",
"/  c #DEE7DEE7DEE7",
"(  c #E09FD660D4DF",
")  c #E5A6DDE8DCC7",
"_  c #E6E0E6E0E6E0",
"`  c #ED11E813E7C9",
"'  c #EA5BEA71EA5B",
"]  c #ED0AE92CE8F6",
"[  c #ECF1ECF1ECF1",
"{  c #F330F27DF330",
"}  c #F49FF430F421",
"|  c #F7A4F823F829",
" . c #F9DBF885F9DB",
".. c #FC4AFCF6FD09",
"X. c #FFFEFFFEFFFE",
/* pixels */
"X.X.X.X.X.X.X.X.X.X.X...) ( | X.",
"X.X.X.X.X.X.X.X.X.X.X.T p u x { ",
"X.X.X.X.X.X.X.X.X.X.] y I d 8 E ",
"X.X.X.X.X.X.X.X.X.X.J 3 e q 7 E ",
"X.X.X.X.X.X.X.X.X.G %   1 6 t | ",
"X.X.X.X.X.X.X. .V # f & = ; b { ",
"X.X.X.X.X.X.{ z + X g A > : v { ",
"X.X.X.X.X.' k o O j L n Z Z ~ X.",
"X.X.X.X./ h X + l L n ! X.X.X.X.",
"X. .` Q * X @ B K n ~ X.X.X.X.X.",
"{ P i 4 . $ D H n / X.X.X.X.X.X.",
"R a U r < F S M _ X.X.X.X.X.X.X.",
"Y w r 0 2 c N [ X.X.X.X.X.X.X.X.",
"` s 9 6 - , _ X.X.X.X.X.X.X.X.X.",
"X.[ W m > C  .X.X.X.X.X.X.X.X.X.",
"X.X.X.{ / } X.X.X.X.X.X.X.X.X.X."
};
