/* XPM */
static char *Sketcher_CreateCircle_sm[] = {
/* columns rows colors chars-per-pixel */
"16 16 95 2 ",
"   c #756643CA3C9F",
".  c #6B1A56CB53E0",
"X  c #6B756B756B75",
"o  c #6D486D486D48",
"O  c #70906AFA6A27",
"+  c #723472347234",
"@  c #7112747574F3",
"#  c #744B744B744B",
"$  c #768076807680",
"%  c #773077307730",
"&  c #7A897A897A89",
"*  c #7F207F207F20",
"=  c #AED42BCC193A",
"-  c #92FD38E12BD9",
";  c #EF801DAF004D",
":  c #D72834BF1F1D",
">  c #EAD321F90554",
",  c #EDE428870C37",
"<  c #FD78209A01A0",
"1  c #CDB83BFC288F",
"2  c #96C64463388E",
"3  c #D70D51433E13",
"4  c #FFFF42FC2812",
"5  c #E3E84E193895",
"6  c #928F63D15D0E",
"7  c #BA3A7BDE72EC",
"8  c #FFFF5AD542F7",
"9  c #CB7E6081512F",
"0  c #D06466EF583F",
"q  c #E068678F5647",
"w  c #CE9379406CEF",
"e  c #FF9F778763BC",
"r  c #FBA5798A667E",
"t  c #CD35845979D6",
"y  c #CE4489147F28",
"u  c #808280828082",
"i  c #85E985E985E9",
"p  c #879787978797",
"a  c #8C118C118C12",
"s  c #8EE38EE48EE4",
"d  c #925B925B925B",
"f  c #942F942F942F",
"g  c #95E395E395E3",
"h  c #999D999D999D",
"j  c #9F669F669F66",
"k  c #A4C7A4C7A4C7",
"l  c #AC0CAC0CAC0C",
"z  c #AC27AD59AD85",
"x  c #BAD4AE41AC73",
"c  c #B14CB14CB14C",
"v  c #B1C5B497B4FF",
"b  c #B6E4B6E4B6E4",
"n  c #B677B78EB7B5",
"m  c #BC1FBC1FBC1F",
"M  c #BFEABFEABFEA",
"N  c #D0788F578600",
"B  c #D1909F8C986A",
"V  c #C5A0BDDEBCC7",
"C  c #DB56C204BE62",
"Z  c #C5E3C5E3C5E3",
"A  c #C655C782C7AB",
"S  c #C8CBC8CBC8CB",
"D  c #CA79CA79CA79",
"F  c #CF8DCFB0CFB5",
"G  c #DE62C68EC324",
"H  c #DFB2C96EC635",
"J  c #D0E3D100D104",
"K  c #D2D3D2D3D2D3",
"L  c #D3B1D3B1D3B1",
"P  c #D7F2D7F2D7F2",
"I  c #DE1BD546D40C",
"U  c #DA9FD60CD568",
"Y  c #D7F4D868D879",
"T  c #D889D889D889",
"R  c #DACFDACFDACF",
"E  c #DBA0DBCBDBD1",
"W  c #DBB9DCB3DCD6",
"Q  c #DD01DD23DD28",
"!  c #DF1FDF1FDF1F",
"~  c #DDA8E040E09F",
"^  c #E40CE40CE40C",
"/  c #E77DE501E49E",
"(  c #E9A2E611E58F",
")  c #EBFDEBFFEBFF",
"_  c #EF36EF36EF36",
"`  c #EFDDEFE3EFE3",
"'  c #F1DEF1DEF1DE",
"]  c #F436F436F436",
"[  c #F5E3F68FF6A9",
"{  c #F7F8F7F8F7F8",
"}  c #F93BF8AFF89C",
"|  c #FBAFFBBAFBBB",
" . c #FC64FE97FEE7",
".. c #FCF1FCEEFCEE",
"X. c #FFFEFFFEFFFE",
/* pixels */
"X.X.X.X.} ( W E Q ' X.X.X.X.X.X.",
"X.X.X.^ J P Y Y Q J P ] X.X.X.X.",
"X.X.P P A g & $ p c E F ` X.X.X.",
"X.Q P l X * l M n g d T F [ X.X.",
"' F n X l ` X.X.X.X.J z E E X.X.",
"E P * l } } H G ' X.X.W V x ' X.",
"J S u ) X.B q 5 N X.X.C 9 3 y } ",
"F M j X.[ 0 e 4 1 ^ X.w r 8 : I ",
"J S v X. .t > ; - A X.N , < = l ",
"Q J V X.X.( 6   O T X.I 7 2 . n ",
"[ F J ^ X.X.Q v F | [ J J @ l ' ",
"X.W J J Q } X.X.X.) F Q s s } X.",
"X.} n Z P J P P P J E s @ J X.X.",
"X.X.` k g m F J S l $ @ A X.X.X.",
"X.X.X.[ V p $ + o $ h E X.X.X.X.",
"X.X.X.X.X.] E S F ^ } X.X.X.X.X."
};
