/* XPM */
static char *Sketcher_CreateText_sm[] = {
/* columns rows colors chars-per-pixel */
"16 16 103 2 ",
"   c #794C189D0AC7",
".  c #7DA119790B5C",
"X  c #7023247019C9",
"o  c #7C4C26CE1AD6",
"O  c #45E72E862B27",
"+  c #5DAE303129AB",
"@  c #46C833CE3121",
"#  c #4A5E39773705",
"$  c #47793E913D4D",
"%  c #4F613B0A3819",
"&  c #53FC3BFF3886",
"*  c #60652D2925E0",
"=  c #62632EA12741",
"-  c #76A42BCE212E",
";  c #6FB337D02FE3",
":  c #6A443C033565",
">  c #4AAD47D7476F",
",  c #5E3945C84240",
"<  c #5F3F50764E8B",
"1  c #54E257AD5816",
"2  c #6D934F334AE5",
"3  c #691A53F850E9",
"4  c #6E916DEF6DD9",
"5  c #741962B4604B",
"6  c #7A0D70CF6F7E",
"7  c #6F3575B776A6",
"8  c #8D7216FF05F2",
"9  c #8D571D6C0DF5",
"0  c #9DEF1B8D0907",
"q  c #A0EB192805DD",
"w  c #B1FC198003AD",
"e  c #B946189A0180",
"r  c #B8521BC80588",
"t  c #8305225E146E",
"y  c #92AC2ACC1BD9",
"u  c #903E2BB11D35",
"i  c #BBE7262A11A3",
"p  c #B92A28041426",
"a  c #B54F2AE817CC",
"s  c #B6232F8E1C31",
"d  c #C0CF175E0000",
"f  c #C500184F0024",
"g  c #C6FA19C20133",
"h  c #CC1919A6016F",
"j  c #CDEC19070007",
"k  c #D78E1C18012F",
"l  c #DD9E1A900000",
"z  c #DADA1BBA0140",
"x  c #E2261B500000",
"c  c #E55A1C840000",
"v  c #E8D11B910000",
"b  c #ED9D1AD60000",
"n  c #E9D61D1A0000",
"m  c #ECED1C4A0000",
"M  c #F1FF1B2C0000",
"N  c #F3E91BB80000",
"B  c #F30C1CDD0000",
"V  c #F5171DB40000",
"C  c #FFFF1F020000",
"Z  c #FFFF20010000",
"A  c #A4F844B337A7",
"S  c #A14048DE3D16",
"D  c #A1264DFD42CE",
"F  c #833662135D4B",
"G  c #8EAF647E5E6C",
"H  c #92286DB66884",
"J  c #83C1712A6E88",
"K  c #911D7EC67C25",
"L  c #A5A17D7F7812",
"P  c #A783831F7E19",
"I  c #870982018152",
"U  c #919E94D49549",
"Y  c #92A294579496",
"T  c #98849867986E",
"R  c #9F019FF5A018",
"E  c #A543A171A0E5",
"W  c #A117A422A491",
"Q  c #A1F7A502A571",
"!  c #A115A655A716",
"~  c #A85FA267A189",
"^  c #B4BDB7CCB83F",
"/  c #BF32BF5CBF63",
"(  c #C13CB6DAB562",
")  c #C3FBBB62BA2C",
"_  c #BFEAC173C1AC",
"`  c #C1BFC1C9C1CB",
"'  c #C80AC1A4C0BF",
"]  c #C66CC7CAC7FD",
"[  c #C6E1CA52CAD3",
"{  c #D8A5DBB1DC21",
"}  c #DB93DE4BDEAF",
"|  c #DEE8DEDFDEDB",
" . c #DF43E119E15C",
".. c #E2A1E32FE338",
"X. c #E64CE62DE628",
"o. c #E771E996E9DB",
"O. c #EB52ED3AED80",
"+. c #EF1DEEEAEEE3",
"@. c #F571F68FF6B6",
"#. c #FA51FB7DFBA8",
"$. c #F9DAFC55FCAD",
"%. c #FB2AFD7FFDCE",
"&. c gray100",
/* pixels */
"&.&.&.&.&.&.&.&.&.&.&.&.&.&.&.&.",
"&.&.&.&.&.&.&.+.| | | X.&.&.&.&.",
"&.&.&.&.&.&.&.~ u s y 6 +.&.&.&.",
"&.&.&.&.&.&.%.P l C h < ` &.&.&.",
"&.&.&.&.&.&.' a v n b : } &.&.&.",
"&.&.&.&.&.o.D b . q C t ^ &.&.&.",
"&.&.&.&.%.P z r $ o C w I &.&.&.",
"&.&.&.&.) p x + 7 G m l 2 O.&.&.",
"&.&.&.X.S N 8 @ J H k C - [ &.&.",
"&.&.#.L l V j f g h n C 0 T &.&.",
"&.&.^ i x X = = = = 9 C h 5 @.&.",
"&...A N t 1 Y ! W ! F c B ; { &.",
" .F e d O Y @.&.&.#.K e l   R &.",
"{ K , % > / &.&.&.@.E 3 & # 4 X.",
"&...` _ / | &.&.&.&.@.] _ ` ` X.",
"&.&.&.&.&.&.&.&.&.&.&.&.&.&.&.&."
};
