/* XPM */
static char *Sketcher_CreateFillet_sm[] = {
/* columns rows colors chars-per-pixel */
"16 16 63 1 ",
"  c #B8B028FC1458",
". c #E70B1EAE02EC",
"X c #FD212C5B0F41",
"o c #F5632CD41033",
"O c #CF563D512855",
"+ c #F6143A131FBA",
"@ c #E4B0412C29BE",
"# c #883D542D4CC3",
"$ c #A4844E2441B1",
"% c #A85B4F1042B5",
"& c #9F236C726536",
"* c #ABBF6CCF63CB",
"= c #B1836D986416",
"- c #C8C65E6C4F23",
"; c #C62D615552D8",
": c #C25168AB5BD1",
"> c #FF0A62E54C12",
", c #E5DF6C395AB9",
"< c #FE5B7EDB6C68",
"1 c #B7E084087C9B",
"2 c #829C84D5852A",
"3 c #85E285E285E2",
"4 c #8F538C3C8BCC",
"5 c #8CBB8CBB8CBB",
"6 c #918C918C918C",
"7 c #960A960A960A",
"8 c #9D2C9D2F9D30",
"9 c #BFDC9E7999AA",
"0 c #A29FA29FA29F",
"q c #A7ABA7ABA7AB",
"w c #A975A998A99D",
"e c #A9D2AB02AB2C",
"r c #AE2BAE2BAE2B",
"t c #ADA9B0C6B128",
"y c #B293B293B293",
"u c #B3BFB3BFB3BF",
"i c #B1FEB49BB4FB",
"p c #B903B8E1B8D9",
"a c #BFEDBFEDBFED",
"s c #C22B898E817B",
"d c #D5E4B93FB527",
"f c #DB7EBE09B9D1",
"g c #C059C059C059",
"h c #C0A4C236C271",
"j c #C601C6FFC724",
"k c #C9A4C9A5C9A6",
"l c #CD0ECD0ECD0E",
"z c #D441C815C651",
"x c #D175D175D175",
"c c #D57ED57ED57E",
"v c #D92FD942D945",
"b c #D8A9DB02DB58",
"n c #DC4BDC4BDC4B",
"m c #DB1ADDCEDE31",
"M c #E78BDB98D9E6",
"N c #E359E364E366",
"B c #E5EAE5EAE5EA",
"V c #F101F13CF144",
"C c #F495F495F495",
"Z c #F643F6D8F6E3",
"A c #F732F732F732",
"S c #FD32FD32FD32",
"D c #FE37FEE5FEFE",
/* pixels */
"SvNSSSSSSSSSSSSS",
"ZpeVSSSSSSSSSSSS",
"d:$zSSSSSSSSSSSS",
"-<+=ZSSSSSSSSSSS",
";o.#mSSSSSSSSSSS",
"M*&4VSSSSSSSSSSS",
"SiheSSSSSSSSSSSS",
"SpqiNSSSSSSSSSSS",
"Su3ahZSSSSSSSSSS",
"Sh0jllZSSSSSSSSS",
"Sp5BcllnZVffZSSS",
"Br6cNaukl1,@svBS",
"up7706772$>X%t8B",
"Cu3lxjvxh9O #qiB",
"SZcZSSSSSSMrkSSS",
"SSSSSSSSSSSSSSSS"
};
